QalamBadi-Tucked.ufo
<glyph name="eight" format="2">
  <advance width="1228"/>
  <unicode hex="0038"/>
  <outline>
    <contour>
      <point x="247.0" y="879.0" type="curve" smooth="yes"/>
      <point x="247.0" y="766.0"/>
      <point x="317.0" y="680.0"/>
      <point x="370.94" y="651.0" type="curve" smooth="yes"/>
      <point x="391.6418" y="639.87"/>
      <point x="391.0139194891487" y="621.3994678027768"/>
      <point x="369.60408401946535" y="611.700995325057" type="curve" smooth="yes"/>
      <point x="293.0" y="577.0"/>
      <point x="210.0" y="476.0"/>
      <point x="210.0" y="340.0" type="curve" smooth="yes"/>
      <point x="210.0" y="131.0"/>
      <point x="380.0" y="-22.0"/>
      <point x="614.0" y="-22.0" type="curve" smooth="yes"/>
      <point x="848.0" y="-22.0"/>
      <point x="1018.0" y="131.0"/>
      <point x="1018.0" y="340.0" type="curve" smooth="yes"/>
      <point x="1018.0" y="476.0"/>
      <point x="935.0" y="577.0"/>
      <point x="857.4540819504425" y="611.8299462425979" type="curve" smooth="yes"/>
      <point x="836.0134185167079" y="621.460074734021"/>
      <point x="835.3582" y="639.87"/>
      <point x="856.06" y="651.0" type="curve" smooth="yes"/>
      <point x="910.0" y="680.0"/>
      <point x="981.0" y="766.0"/>
      <point x="981.0" y="879.0" type="curve" smooth="yes"/>
      <point x="981.0" y="1064.0"/>
      <point x="826.0" y="1209.0"/>
      <point x="614.0" y="1209.0" type="curve" smooth="yes"/>
      <point x="402.0" y="1209.0"/>
      <point x="247.0" y="1064.0"/>
    </contour>
    <contour>
      <point x="864.0" y="341.0" type="curve" smooth="yes"/>
      <point x="864.0" y="215.0"/>
      <point x="761.0" y="126.0"/>
      <point x="614.0" y="126.0" type="curve" smooth="yes"/>
      <point x="467.0" y="126.0"/>
      <point x="364.0" y="215.0"/>
      <point x="364.0" y="341.0" type="curve" smooth="yes"/>
      <point x="364.0" y="467.0"/>
      <point x="467.0" y="554.0"/>
      <point x="614.0" y="554.0" type="curve" smooth="yes"/>
      <point x="761.0" y="554.0"/>
      <point x="864.0" y="467.0"/>
    </contour>
    <contour>
      <point x="829.0" y="876.0" type="curve" smooth="yes"/>
      <point x="829.0" y="773.0"/>
      <point x="737.0" y="693.0"/>
      <point x="614.0" y="693.0" type="curve" smooth="yes"/>
      <point x="491.0" y="693.0"/>
      <point x="399.0" y="773.0"/>
      <point x="399.0" y="876.0" type="curve" smooth="yes"/>
      <point x="399.0" y="990.0"/>
      <point x="491.0" y="1061.0"/>
      <point x="614.0" y="1061.0" type="curve" smooth="yes"/>
      <point x="737.0" y="1061.0"/>
      <point x="829.0" y="990.0"/>
    </contour>
  </outline>
</glyph>
<glyph name="greater" format="2">
  <advance width="1228"/>
  <unicode hex="003E"/>
  <outline>
    <contour>
      <point x="844.7128306212177" y="603.7417686606666" type="line" smooth="yes"/>
      <point x="867.6550303919723" y="592.7486312705133"/>
      <point x="867.6550303919723" y="573.2513687294867"/>
      <point x="844.7128306212177" y="562.2582313393334" type="curve" smooth="yes"/>
      <point x="216.0" y="261.0" type="line" smooth="yes"/>
      <point x="174.0" y="241.0"/>
      <point x="164.0" y="212.0"/>
      <point x="187.0" y="166.0" type="curve" smooth="yes"/>
      <point x="209.0" y="122.0"/>
      <point x="238.0" y="108.0"/>
      <point x="279.0" y="128.0" type="curve" smooth="yes"/>
      <point x="1056.0" y="509.0" type="line" smooth="yes"/>
      <point x="1088.0" y="525.0"/>
      <point x="1103.0" y="543.0"/>
      <point x="1103.0" y="583.0" type="curve" smooth="yes"/>
      <point x="1103.0" y="623.0"/>
      <point x="1088.0" y="641.0"/>
      <point x="1056.0" y="657.0" type="curve" smooth="yes"/>
      <point x="279.0" y="1038.0" type="line" smooth="yes"/>
      <point x="238.0" y="1058.0"/>
      <point x="209.0" y="1044.0"/>
      <point x="187.0" y="1000.0" type="curve" smooth="yes"/>
      <point x="164.0" y="954.0"/>
      <point x="174.0" y="925.0"/>
      <point x="216.0" y="905.0" type="curve" smooth="yes"/>
    </contour>
  </outline>
</glyph>
<glyph name="F" format="2">
  <advance width="1228"/>
  <unicode hex="0046"/>
  <outline>
    <contour>
      <point x="308.0" y="1187.0" type="line" smooth="yes"/>
      <point x="266.0" y="1187.0"/>
      <point x="245.0" y="1169.0"/>
      <point x="245.0" y="1119.0" type="curve" smooth="yes"/>
      <point x="245.0" y="55.0" type="line" smooth="yes"/>
      <point x="245.0" y="9.0"/>
      <point x="263.0" y="-10.0"/>
      <point x="319.0" y="-10.0" type="curve" smooth="yes"/>
      <point x="321.0" y="-10.0" type="line" smooth="yes"/>
      <point x="377.0" y="-10.0"/>
      <point x="395.0" y="9.0"/>
      <point x="395.0" y="55.0" type="curve" smooth="yes"/>
      <point x="395.0" y="452.0" type="line" smooth="yes"/>
      <point x="395.0" y="477.44"/>
      <point x="417.56" y="500.0"/>
      <point x="443.0" y="500.0" type="curve" smooth="yes"/>
      <point x="786.736976744186" y="500.0" type="line" smooth="yes"/>
      <point x="824.4846511627907" y="500.0"/>
      <point x="839.5837209302325" y="520.0"/>
      <point x="839.5837209302325" y="572.0" type="curve" smooth="yes"/>
      <point x="839.5837209302325" y="624.0"/>
      <point x="824.4846511627907" y="644.0"/>
      <point x="786.736976744186" y="644.0" type="curve" smooth="yes"/>
      <point x="443.0" y="644.0" type="line" smooth="yes"/>
      <point x="417.56" y="644.0"/>
      <point x="395.0" y="666.56"/>
      <point x="395.0" y="692.0" type="curve" smooth="yes"/>
      <point x="395.0" y="995.0" type="line" smooth="yes"/>
      <point x="395.0" y="1020.44"/>
      <point x="417.56" y="1043.0"/>
      <point x="443.0" y="1043.0" type="curve" smooth="yes"/>
      <point x="883.2032558139534" y="1043.0" type="line" smooth="yes"/>
      <point x="920.9509302325581" y="1043.0"/>
      <point x="936.05" y="1063.0"/>
      <point x="936.05" y="1115.0" type="curve" smooth="yes"/>
      <point x="936.05" y="1167.0"/>
      <point x="920.9509302325581" y="1187.0"/>
      <point x="883.2032558139534" y="1187.0" type="curve" smooth="yes"/>
    </contour>
  </outline>
</glyph>
<glyph name="P" format="2">
  <advance width="1228"/>
  <unicode hex="0050"/>
  <outline>
    <contour>
      <point x="298.0" y="1187.0" type="line" smooth="yes"/>
      <point x="253.0" y="1187.0"/>
      <point x="235.0" y="1169.0"/>
      <point x="235.0" y="1119.0" type="curve" smooth="yes"/>
      <point x="235.0" y="55.0" type="line" smooth="yes"/>
      <point x="235.0" y="9.0"/>
      <point x="253.0" y="-10.0"/>
      <point x="309.0" y="-10.0" type="curve" smooth="yes"/>
      <point x="311.0" y="-10.0" type="line" smooth="yes"/>
      <point x="367.0" y="-10.0"/>
      <point x="385.0" y="9.0"/>
      <point x="385.0" y="55.0" type="curve" smooth="yes"/>
      <point x="385.0" y="345.0" type="line" smooth="yes"/>
      <point x="385.0" y="370.44"/>
      <point x="407.56" y="393.0"/>
      <point x="433.0" y="393.0" type="curve" smooth="yes"/>
      <point x="605.9443231441048" y="393.0" type="line" smooth="yes"/>
      <point x="848.5498544395924" y="393.0"/>
      <point x="980.25" y="553.0"/>
      <point x="980.25" y="788.0" type="curve" smooth="yes"/>
      <point x="980.25" y="1024.0"/>
      <point x="848.5498544395924" y="1187.0"/>
      <point x="605.9443231441048" y="1187.0" type="curve" smooth="yes"/>
    </contour>
    <contour>
      <point x="433.0" y="537.0" type="line" smooth="yes"/>
      <point x="407.56" y="537.0"/>
      <point x="385.0" y="559.56"/>
      <point x="385.0" y="585.0" type="curve" smooth="yes"/>
      <point x="385.0" y="995.0" type="line" smooth="yes"/>
      <point x="385.0" y="1020.44"/>
      <point x="407.56" y="1043.0"/>
      <point x="433.0" y="1043.0" type="curve" smooth="yes"/>
      <point x="587.7489082969432" y="1043.0" type="line" smooth="yes"/>
      <point x="758.43922852984" y="1043.0"/>
      <point x="846.8169577874818" y="949.0"/>
      <point x="846.8169577874818" y="788.0" type="curve" smooth="yes"/>
      <point x="846.8169577874818" y="629.0"/>
      <point x="758.43922852984" y="537.0"/>
      <point x="587.7489082969432" y="537.0" type="curve" smooth="yes"/>
    </contour>
  </outline>
</glyph>
<glyph name="Y" format="2">
  <advance width="1228"/>
  <unicode hex="0059"/>
  <outline>
    <contour>
      <point x="893.4352796686777" y="1172.0" type="curve" smooth="yes"/>
      <point x="636.7070093717547" y="688.4157167811798" type="line" smooth="yes"/>
      <point x="624.7780744340216" y="665.9458678441857"/>
      <point x="603.6093039124321" y="665.9396033847033"/>
      <point x="591.667072091777" y="688.4023881439831" type="curve" smooth="yes"/>
      <point x="334.56472033132223" y="1172.0" type="line" smooth="yes"/>
      <point x="318.4250929890582" y="1205.0"/>
      <point x="296.13703618307454" y="1210.0"/>
      <point x="257.70935203482685" y="1187.0" type="curve" smooth="yes"/>
      <point x="217.74456052064926" y="1163.0"/>
      <point x="212.36468473989459" y="1136.0"/>
      <point x="232.34708049698338" y="1096.0" type="curve" smooth="yes"/>
      <point x="517.4198611695479" y="529.6180182423226" type="line" smooth="yes"/>
      <point x="528.8573347496875" y="506.8940705636377"/>
      <point x="539.0" y="464.1826452636719"/>
      <point x="539.0" y="438.7426452636719" type="curve" smooth="yes"/>
      <point x="539.0" y="55.0" type="line" smooth="yes"/>
      <point x="539.0" y="9.0"/>
      <point x="557.0" y="-10.0"/>
      <point x="613.0" y="-10.0" type="curve" smooth="yes"/>
      <point x="615.0" y="-10.0" type="line" smooth="yes"/>
      <point x="671.0" y="-10.0"/>
      <point x="689.0" y="9.0"/>
      <point x="689.0" y="55.0" type="curve" smooth="yes"/>
      <point x="689.0" y="439.4532470703125" type="line" smooth="yes"/>
      <point x="689.0" y="464.8932470703125"/>
      <point x="699.1521115999094" y="507.5999150345935"/>
      <point x="710.6002374466157" y="530.3184980581444" type="curve" smooth="yes"/>
      <point x="995.6529195030166" y="1096.0" type="line" smooth="yes"/>
      <point x="1015.6353152601055" y="1136.0"/>
      <point x="1010.2554394793507" y="1163.0"/>
      <point x="970.2906479651731" y="1187.0" type="curve" smooth="yes"/>
      <point x="931.8629638169255" y="1210.0"/>
      <point x="910.3434606939068" y="1205.0"/>
    </contour>
  </outline>
</glyph>
<glyph name="k" format="2">
  <advance width="1228"/>
  <unicode hex="006B"/>
  <outline>
    <contour>
      <point x="911.0" y="924.0" type="curve" smooth="yes"/>
      <point x="417.8375976330841" y="484.5796491948389" type="line" smooth="yes"/>
      <point x="398.84367088754954" y="467.6555732441329"/>
      <point x="382.0" y="475.2074304199219"/>
      <point x="382.0" y="500.6474304199219" type="curve" smooth="yes"/>
      <point x="382.0" y="1257.0" type="line" smooth="yes"/>
      <point x="382.0" y="1303.0"/>
      <point x="364.0" y="1322.0"/>
      <point x="308.0" y="1322.0" type="curve" smooth="yes"/>
      <point x="306.0" y="1322.0" type="line" smooth="yes"/>
      <point x="250.0" y="1322.0"/>
      <point x="232.0" y="1303.0"/>
      <point x="232.0" y="1257.0" type="curve" smooth="yes"/>
      <point x="232.0" y="55.0" type="line" smooth="yes"/>
      <point x="232.0" y="9.0"/>
      <point x="250.0" y="-10.0"/>
      <point x="306.0" y="-10.0" type="curve" smooth="yes"/>
      <point x="308.0" y="-10.0" type="line" smooth="yes"/>
      <point x="364.0" y="-10.0"/>
      <point x="382.0" y="9.0"/>
      <point x="382.0" y="55.0" type="curve" smooth="yes"/>
      <point x="382.0" y="210.556396484375" type="line" smooth="yes"/>
      <point x="382.0" y="235.996396484375"/>
      <point x="398.93862318852916" y="273.4572905675172"/>
      <point x="418.0396238053812" y="290.26042644850736" type="curve" smooth="yes"/>
      <point x="526.3594850813375" y="385.5493269694614" type="line" smooth="yes"/>
      <point x="545.4604856981896" y="402.35246285045156"/>
      <point x="577.5526578574704" y="400.54038132806403"/>
      <point x="594.6407024415096" y="381.69383436863694" type="curve" smooth="yes"/>
      <point x="938.0" y="3.0" type="line" smooth="yes"/>
      <point x="962.0" y="-24.0"/>
      <point x="991.0" y="-22.0"/>
      <point x="1038.0" y="5.0" type="curve" smooth="yes"/>
      <point x="1087.0" y="33.0"/>
      <point x="1091.0" y="61.0"/>
      <point x="1060.0" y="95.0" type="curve" smooth="yes"/>
      <point x="707.3177297029456" y="480.82018260015843" type="line" smooth="yes"/>
      <point x="690.1533936293297" y="499.5972741521526"/>
      <point x="691.8708140399606" y="531.1495502752315"/>
      <point x="710.9718156830112" y="547.9526849896881" type="curve" smooth="yes"/>
      <point x="1035.0" y="833.0" type="line" smooth="yes"/>
      <point x="1070.0" y="863.0"/>
      <point x="1061.0" y="896.0"/>
      <point x="1014.0" y="924.0" type="curve" smooth="yes"/>
      <point x="972.0" y="949.0"/>
      <point x="936.0" y="946.0"/>
    </contour>
  </outline>
</glyph>
<glyph name="p" format="2">
  <advance width="1228"/>
  <unicode hex="0070"/>
  <outline>
    <contour>
      <point x="355.7592527758523" y="807.0029274026366" type="curve" smooth="yes"/>
      <point x="343.16684880465056" y="790.5713758792392"/>
      <point x="332.0" y="794.3582"/>
      <point x="332.0" y="815.06" type="curve" smooth="yes"/>
      <point x="332.0" y="869.0" type="line" smooth="yes"/>
      <point x="332.0" y="915.0"/>
      <point x="316.0" y="934.0"/>
      <point x="263.0" y="934.0" type="curve" smooth="yes"/>
      <point x="261.0" y="934.0" type="line" smooth="yes"/>
      <point x="208.0" y="934.0"/>
      <point x="192.0" y="915.0"/>
      <point x="192.0" y="869.0" type="curve" smooth="yes"/>
      <point x="192.0" y="-333.0" type="line" smooth="yes"/>
      <point x="192.0" y="-379.0"/>
      <point x="210.0" y="-398.0"/>
      <point x="266.0" y="-398.0" type="curve" smooth="yes"/>
      <point x="268.0" y="-398.0" type="line" smooth="yes"/>
      <point x="324.0" y="-398.0"/>
      <point x="342.0" y="-379.0"/>
      <point x="342.0" y="-333.0" type="curve" smooth="yes"/>
      <point x="342.0" y="95.0" type="line" smooth="yes"/>
      <point x="342.0" y="120.44"/>
      <point x="355.92267693768565" y="125.24858690445079"/>
      <point x="371.6227168886929" y="105.23103596691658" type="curve" smooth="yes"/>
      <point x="422.0" y="41.0"/>
      <point x="526.0" y="-22.0"/>
      <point x="659.0" y="-22.0" type="curve" smooth="yes"/>
      <point x="906.0" y="-22.0"/>
      <point x="1089.0" y="160.0"/>
      <point x="1089.0" y="462.0" type="curve" smooth="yes"/>
      <point x="1089.0" y="764.0"/>
      <point x="906.0" y="946.0"/>
      <point x="659.0" y="946.0" type="curve" smooth="yes"/>
      <point x="526.0" y="946.0"/>
      <point x="414.0" y="883.0"/>
    </contour>
    <contour>
      <point x="935.0" y="462.0" type="curve" smooth="yes"/>
      <point x="935.0" y="266.0"/>
      <point x="830.0" y="126.0"/>
      <point x="649.0" y="126.0" type="curve" smooth="yes"/>
      <point x="472.0" y="126.0"/>
      <point x="342.0" y="250.0"/>
      <point x="342.0" y="462.0" type="curve" smooth="yes"/>
      <point x="342.0" y="674.0"/>
      <point x="472.0" y="798.0"/>
      <point x="649.0" y="798.0" type="curve" smooth="yes"/>
      <point x="830.0" y="798.0"/>
      <point x="935.0" y="658.0"/>
    </contour>
  </outline>
</glyph>
<glyph name="section" format="2">
  <advance width="1228"/>
  <unicode hex="00A7"/>
  <outline>
    <contour>
      <point x="569.0" y="1187.0" type="line" smooth="yes"/>
      <point x="389.0" y="1187.0"/>
      <point x="294.0" y="1087.0"/>
      <point x="294.0" y="947.0" type="curve" smooth="yes"/>
      <point x="294.0" y="904.222412109375"/>
      <point x="301.2615966796875" y="867.0927124023438"/>
      <point x="308.89064636230466" y="848.1977893066406" type="curve" smooth="yes"/>
      <point x="311.81862301635744" y="840.9460481323242"/>
      <point x="308.8316741245404" y="830.4016330276493"/>
      <point x="302.5354359541834" y="825.7628635520132" type="curve" smooth="yes"/>
      <point x="238.3590850830078" y="778.4807739257812"/>
      <point x="193.0" y="715.64013671875"/>
      <point x="193.0" y="624.0" type="curve" smooth="yes"/>
      <point x="193.0" y="505.0"/>
      <point x="245.0" y="422.0"/>
      <point x="356.0" y="353.0" type="curve" smooth="yes"/>
      <point x="689.0" y="147.0" type="line" smooth="yes"/>
      <point x="752.0" y="108.0"/>
      <point x="780.0" y="72.0"/>
      <point x="780.0" y="14.0" type="curve" smooth="yes"/>
      <point x="780.0" y="-50.0"/>
      <point x="734.0" y="-86.0"/>
      <point x="639.0" y="-86.0" type="curve" smooth="yes"/>
      <point x="333.0" y="-86.0" type="line" smooth="yes"/>
      <point x="288.0" y="-86.0"/>
      <point x="270.0" y="-106.0"/>
      <point x="270.0" y="-158.0" type="curve" smooth="yes"/>
      <point x="270.0" y="-210.0"/>
      <point x="288.0" y="-230.0"/>
      <point x="333.0" y="-230.0" type="curve" smooth="yes"/>
      <point x="659.0" y="-230.0" type="line" smooth="yes"/>
      <point x="839.0" y="-230.0"/>
      <point x="934.0" y="-130.0"/>
      <point x="934.0" y="10.0" type="curve" smooth="yes"/>
      <point x="934.0" y="52.7775764465332"/>
      <point x="926.7384033203125" y="89.9072494506836"/>
      <point x="919.1093359375" y="108.8021858215332" type="curve" smooth="yes"/>
      <point x="916.1813524902343" y="116.05393209075928"/>
      <point x="919.1683012223987" y="126.59835461918786"/>
      <point x="925.4645460059346" y="131.23712737138126" type="curve" smooth="yes"/>
      <point x="989.640869140625" y="178.51918029785156"/>
      <point x="1035.0" y="241.35987854003906"/>
      <point x="1035.0" y="333.0" type="curve" smooth="yes"/>
      <point x="1035.0" y="452.0"/>
      <point x="983.0" y="535.0"/>
      <point x="872.0" y="604.0" type="curve" smooth="yes"/>
      <point x="539.0" y="810.0" type="line" smooth="yes"/>
      <point x="476.0" y="849.0"/>
      <point x="448.0" y="885.0"/>
      <point x="448.0" y="943.0" type="curve" smooth="yes"/>
      <point x="448.0" y="1007.0"/>
      <point x="494.0" y="1043.0"/>
      <point x="589.0" y="1043.0" type="curve" smooth="yes"/>
      <point x="895.0" y="1043.0" type="line" smooth="yes"/>
      <point x="940.0" y="1043.0"/>
      <point x="958.0" y="1063.0"/>
      <point x="958.0" y="1115.0" type="curve" smooth="yes"/>
      <point x="958.0" y="1167.0"/>
      <point x="940.0" y="1187.0"/>
      <point x="895.0" y="1187.0" type="curve" smooth="yes"/>
    </contour>
    <contour>
      <point x="836.227674920643" y="238.84594112555848" type="curve" smooth="yes"/>
      <point x="832.7075864363351" y="236.17084992788944"/>
      <point x="826.5653592529297" y="236.29812373046875"/>
      <point x="823.1591064453125" y="239.1167364501953" type="curve" smooth="yes"/>
      <point x="814.2838745117188" y="246.46083068847656"/>
      <point x="797.6697387695312" y="258.1263122558594"/>
      <point x="780.0" y="269.0" type="curve" smooth="yes"/>
      <point x="447.0" y="475.0" type="line" smooth="yes"/>
      <point x="380.0" y="517.0"/>
      <point x="347.0" y="564.0"/>
      <point x="347.0" y="624.0" type="curve" smooth="yes"/>
      <point x="347.0" y="668.7813720703125"/>
      <point x="365.9396057128906" y="698.5224609375"/>
      <point x="391.7723210054518" y="718.154063173325" type="curve" smooth="yes"/>
      <point x="395.29241164892954" y="720.829160179744"/>
      <point x="401.43464677124024" y="720.7018915283203"/>
      <point x="404.8409063720703" y="717.8832788085938" type="curve" smooth="yes"/>
      <point x="413.7161560058594" y="710.5391845703125"/>
      <point x="430.3302307128906" y="698.8737182617188"/>
      <point x="448.0" y="688.0" type="curve" smooth="yes"/>
      <point x="781.0" y="482.0" type="line" smooth="yes"/>
      <point x="848.0" y="440.0"/>
      <point x="881.0" y="393.0"/>
      <point x="881.0" y="333.0" type="curve" smooth="yes"/>
      <point x="881.0" y="288.2186279296875"/>
      <point x="862.0604248046875" y="258.4775390625"/>
    </contour>
  </outline>
</glyph>
<glyph name="registered" format="2">
  <advance width="1228"/>
  <unicode hex="00AE"/>
  <outline>
    <contour>
      <point x="36.0" y="594.0" type="curve" smooth="yes"/>
      <point x="36.0" y="251.0"/>
      <point x="274.0" y="-22.0"/>
      <point x="614.0" y="-22.0" type="curve" smooth="yes"/>
      <point x="954.0" y="-22.0"/>
      <point x="1192.0" y="251.0"/>
      <point x="1192.0" y="594.0" type="curve" smooth="yes"/>
      <point x="1192.0" y="937.0"/>
      <point x="954.0" y="1209.0"/>
      <point x="614.0" y="1209.0" type="curve" smooth="yes"/>
      <point x="274.0" y="1209.0"/>
      <point x="36.0" y="937.0"/>
    </contour>
    <contour>
      <point x="1070.0" y="594.0" type="curve" smooth="yes"/>
      <point x="1070.0" y="308.0"/>
      <point x="885.0" y="98.0"/>
      <point x="614.0" y="98.0" type="curve" smooth="yes"/>
      <point x="343.0" y="98.0"/>
      <point x="158.0" y="308.0"/>
      <point x="158.0" y="594.0" type="curve" smooth="yes"/>
      <point x="158.0" y="880.0"/>
      <point x="343.0" y="1089.0"/>
      <point x="614.0" y="1089.0" type="curve" smooth="yes"/>
      <point x="885.0" y="1089.0"/>
      <point x="1070.0" y="880.0"/>
    </contour>
    <contour>
      <point x="450.0" y="917.0" type="line" smooth="yes"/>
      <point x="405.0" y="917.0"/>
      <point x="385.0" y="899.0"/>
      <point x="385.0" y="854.0" type="curve" smooth="yes"/>
      <point x="385.0" y="335.0" type="line" smooth="yes"/>
      <point x="385.0" y="289.0"/>
      <point x="400.0" y="270.0"/>
      <point x="446.0" y="270.0" type="curve" smooth="yes"/>
      <point x="492.0" y="270.0"/>
      <point x="509.0" y="289.0"/>
      <point x="509.0" y="335.0" type="curve" smooth="yes"/>
      <point x="509.0" y="432.62" type="line" smooth="yes"/>
      <point x="509.0" y="452.4314"/>
      <point x="526.5686" y="470.0"/>
      <point x="546.38" y="470.0" type="curve" smooth="yes"/>
      <point x="560.62" y="470.0" type="line" smooth="yes"/>
      <point x="580.4314" y="470.0"/>
      <point x="609.5173092996324" y="456.73322599662595"/>
      <point x="622.5049134034732" y="441.77282126941697" type="curve" smooth="yes"/>
      <point x="756.0" y="288.0" type="line" smooth="yes"/>
      <point x="779.0" y="261.0"/>
      <point x="813.0" y="255.0"/>
      <point x="845.0" y="284.0" type="curve" smooth="yes"/>
      <point x="879.0" y="315.0"/>
      <point x="871.0" y="345.0"/>
      <point x="841.0" y="378.0" type="curve" smooth="yes"/>
      <point x="761.6458835585951" y="464.02876174956054" type="line" smooth="yes"/>
      <point x="746.9935652725396" y="479.91351802229343"/>
      <point x="752.1608" y="500.1194"/>
      <point x="772.64" y="507.02" type="curve" smooth="yes"/>
      <point x="826.0" y="525.0"/>
      <point x="879.0" y="596.0"/>
      <point x="879.0" y="695.0" type="curve" smooth="yes"/>
      <point x="879.0" y="825.0"/>
      <point x="785.0" y="917.0"/>
      <point x="637.0" y="917.0" type="curve" smooth="yes"/>
    </contour>
    <contour>
      <point x="749.0" y="695.0" type="curve" smooth="yes"/>
      <point x="749.0" y="627.0"/>
      <point x="705.0" y="587.0"/>
      <point x="615.0" y="587.0" type="curve" smooth="yes"/>
      <point x="553.52" y="587.0" type="line" smooth="yes"/>
      <point x="529.9244" y="587.0"/>
      <point x="509.0" y="607.9244"/>
      <point x="509.0" y="631.52" type="curve" smooth="yes"/>
      <point x="509.0" y="752.0" type="line" smooth="yes"/>
      <point x="509.0" y="777.44"/>
      <point x="531.56" y="800.0"/>
      <point x="557.0" y="800.0" type="curve" smooth="yes"/>
      <point x="624.0" y="800.0" type="line" smooth="yes"/>
      <point x="707.0" y="800.0"/>
      <point x="749.0" y="760.0"/>
    </contour>
  </outline>
</glyph>
<glyph name="cedilla" format="2">
  <advance width="1228"/>
  <unicode hex="00B8"/>
  <outline>
    <contour>
      <point x="579.0" y="28.0" type="line" smooth="yes"/>
      <point x="553.56" y="28.0"/>
      <point x="531.0" y="5.440000000000001"/>
      <point x="531.0" y="-20.0" type="curve" smooth="yes"/>
      <point x="531.0" y="-177.0" type="line" smooth="yes"/>
      <point x="531.0" y="-212.0"/>
      <point x="549.0" y="-222.0"/>
      <point x="567.0" y="-221.0" type="curve" smooth="yes"/>
      <point x="680.0" y="-214.0"/>
      <point x="720.0" y="-237.0"/>
      <point x="720.0" y="-285.0" type="curve" smooth="yes"/>
      <point x="720.0" y="-327.0"/>
      <point x="677.0" y="-349.0"/>
      <point x="611.0" y="-349.0" type="curve" smooth="yes"/>
      <point x="544.0" y="-349.0"/>
      <point x="470.0" y="-331.0"/>
      <point x="418.0" y="-311.0" type="curve" smooth="yes"/>
      <point x="393.0" y="-302.0"/>
      <point x="373.0" y="-318.0"/>
      <point x="359.0" y="-354.0" type="curve" smooth="yes"/>
      <point x="345.0" y="-389.0"/>
      <point x="349.0" y="-412.0"/>
      <point x="374.0" y="-424.0" type="curve" smooth="yes"/>
      <point x="443.0" y="-456.0"/>
      <point x="532.0" y="-472.0"/>
      <point x="621.0" y="-472.0" type="curve" smooth="yes"/>
      <point x="788.0" y="-472.0"/>
      <point x="866.0" y="-393.0"/>
      <point x="866.0" y="-281.0" type="curve" smooth="yes"/>
      <point x="866.0" y="-187.0"/>
      <point x="805.0" y="-111.0"/>
      <point x="710.9952397480916" y="-112.32401070777335" type="curve" smooth="yes"/>
      <point x="685.5577626816031" y="-112.68228503265348"/>
      <point x="663.0" y="-90.44"/>
      <point x="663.0" y="-65.0" type="curve" smooth="yes"/>
      <point x="663.0" y="-20.0" type="line" smooth="yes"/>
      <point x="663.0" y="5.440000000000001"/>
      <point x="640.44" y="28.0"/>
      <point x="615.0" y="28.0" type="curve" smooth="yes"/>
    </contour>
  </outline>
</glyph>
<glyph name="multiply" format="2">
  <advance width="1228"/>
  <unicode hex="00D7"/>
  <outline>
    <contour>
      <point x="254.0" y="840.0" type="curve" smooth="yes"/>
      <point x="478.05887450304573" y="615.9411254969543" type="line" smooth="yes"/>
      <point x="496.0476710164315" y="597.9523289835686"/>
      <point x="496.0476710164315" y="566.0476710164314"/>
      <point x="478.05887450304573" y="548.0588745030457" type="curve" smooth="yes"/>
      <point x="254.0" y="324.0" type="line" smooth="yes"/>
      <point x="222.0" y="292.0"/>
      <point x="223.0" y="265.0"/>
      <point x="260.0" y="228.0" type="curve" smooth="yes"/>
      <point x="297.0" y="191.0"/>
      <point x="324.0" y="190.0"/>
      <point x="356.0" y="222.0" type="curve" smooth="yes"/>
      <point x="580.0588745030457" y="446.05887450304573" type="line" smooth="yes"/>
      <point x="598.0476710164314" y="464.0476710164315"/>
      <point x="629.9523289835686" y="464.0476710164315"/>
      <point x="647.9411254969543" y="446.05887450304573" type="curve" smooth="yes"/>
      <point x="872.0" y="222.0" type="line" smooth="yes"/>
      <point x="904.0" y="190.0"/>
      <point x="931.0" y="191.0"/>
      <point x="968.0" y="228.0" type="curve" smooth="yes"/>
      <point x="1005.0" y="265.0"/>
      <point x="1006.0" y="292.0"/>
      <point x="974.0" y="324.0" type="curve" smooth="yes"/>
      <point x="749.9411254969543" y="548.0588745030457" type="line" smooth="yes"/>
      <point x="731.9523289835686" y="566.0476710164314"/>
      <point x="731.9523289835686" y="597.9523289835686"/>
      <point x="749.9411254969543" y="615.9411254969543" type="curve" smooth="yes"/>
      <point x="974.0" y="840.0" type="line" smooth="yes"/>
      <point x="1006.0" y="872.0"/>
      <point x="1005.0" y="899.0"/>
      <point x="968.0" y="936.0" type="curve" smooth="yes"/>
      <point x="931.0" y="973.0"/>
      <point x="904.0" y="974.0"/>
      <point x="872.0" y="942.0" type="curve" smooth="yes"/>
      <point x="647.9411254969543" y="717.9411254969543" type="line" smooth="yes"/>
      <point x="629.9523289835686" y="699.9523289835686"/>
      <point x="598.0476710164314" y="699.9523289835686"/>
      <point x="580.0588745030457" y="717.9411254969543" type="curve" smooth="yes"/>
      <point x="356.0" y="942.0" type="line" smooth="yes"/>
      <point x="324.0" y="974.0"/>
      <point x="297.0" y="973.0"/>
      <point x="260.0" y="936.0" type="curve" smooth="yes"/>
      <point x="223.0" y="899.0"/>
      <point x="222.0" y="872.0"/>
    </contour>
  </outline>
</glyph>
<glyph name="dcaron" format="2">
  <advance width="1228"/>
  <unicode hex="010F"/>
  <outline>
    <contour>
      <point x="858.0" y="1322.0" type="line" smooth="yes"/>
      <point x="802.0" y="1322.0"/>
      <point x="784.0" y="1303.0"/>
      <point x="784.0" y="1257.0" type="curve" smooth="yes"/>
      <point x="784.0" y="839.0" type="line" smooth="yes"/>
      <point x="784.0" y="813.56"/>
      <point x="771.0499112302319" y="809.4729207451103"/>
      <point x="756.4466196387914" y="830.3040866917241" type="curve" smooth="yes"/>
      <point x="716.0" y="888.0"/>
      <point x="640.0" y="946.0"/>
      <point x="517.0" y="946.0" type="curve" smooth="yes"/>
      <point x="290.0" y="946.0"/>
      <point x="137.0" y="764.0"/>
      <point x="137.0" y="462.0" type="curve" smooth="yes"/>
      <point x="137.0" y="160.0"/>
      <point x="290.0" y="-22.0"/>
      <point x="517.0" y="-22.0" type="curve" smooth="yes"/>
      <point x="640.0" y="-22.0"/>
      <point x="723.0" y="35.0"/>
      <point x="774.2153414008484" y="109.29831217306175" type="curve" smooth="yes"/>
      <point x="784.7012104583987" y="124.51020672133902"/>
      <point x="794.0" y="121.61580000000001"/>
      <point x="794.0" y="103.14" type="curve" smooth="yes"/>
      <point x="794.0" y="55.0" type="line" smooth="yes"/>
      <point x="794.0" y="9.0"/>
      <point x="810.0" y="-10.0"/>
      <point x="863.0" y="-10.0" type="curve" smooth="yes"/>
      <point x="865.0" y="-10.0" type="line" smooth="yes"/>
      <point x="918.0" y="-10.0"/>
      <point x="934.0" y="9.0"/>
      <point x="934.0" y="55.0" type="curve" smooth="yes"/>
      <point x="934.0" y="1257.0" type="line" smooth="yes"/>
      <point x="934.0" y="1303.0"/>
      <point x="916.0" y="1322.0"/>
      <point x="860.0" y="1322.0" type="curve" smooth="yes"/>
    </contour>
    <contour>
      <point x="784.0" y="462.0" type="curve" smooth="yes"/>
      <point x="784.0" y="250.0"/>
      <point x="684.0" y="126.0"/>
      <point x="527.0" y="126.0" type="curve" smooth="yes"/>
      <point x="366.0" y="126.0"/>
      <point x="291.0" y="266.0"/>
      <point x="291.0" y="462.0" type="curve" smooth="yes"/>
      <point x="291.0" y="658.0"/>
      <point x="366.0" y="798.0"/>
      <point x="527.0" y="798.0" type="curve" smooth="yes"/>
      <point x="684.0" y="798.0"/>
      <point x="784.0" y="674.0"/>
    </contour>
    <component base="caron.alt" xOffset="800"/>
  </outline>
</glyph>
<glyph name="uni037E" format="2">
  <advance width="1228"/>
  <unicode hex="037E"/>
  <outline>
    <contour>
      <point x="369.0" y="-215.0" type="curve" smooth="yes"/>
      <point x="369.0" y="-252.0"/>
      <point x="395.0" y="-283.0"/>
      <point x="434.0" y="-283.0" type="curve" smooth="yes"/>
      <point x="483.0" y="-283.0"/>
      <point x="676.0" y="-168.0"/>
      <point x="676.0" y="57.0" type="curve" smooth="yes"/>
      <point x="676.0" y="137.0"/>
      <point x="647.0" y="258.0"/>
      <point x="535.0" y="258.0" type="curve" smooth="yes"/>
      <point x="471.0" y="258.0"/>
      <point x="408.0" y="209.0"/>
      <point x="408.0" y="129.0" type="curve" smooth="yes"/>
      <point x="408.0" y="18.0"/>
      <point x="508.0" y="0.0"/>
      <point x="532.0" y="0.0" type="curve" smooth="yes"/>
      <point x="538.38" y="0.0" type="line" smooth="yes"/>
      <point x="540.8286" y="0.0"/>
      <point x="542.3696299891196" y="-2.07788633216128"/>
      <point x="541.6587872108928" y="-4.42103474927932" type="curve" smooth="yes"/>
      <point x="489.0" y="-178.0"/>
      <point x="369.0" y="-143.0"/>
    </contour>
    <contour>
      <point x="664.0" y="752.0" type="curve" smooth="yes"/>
      <point x="664.0" y="854.0"/>
      <point x="569.0" y="883.0"/>
      <point x="543.0" y="883.0" type="curve" smooth="yes"/>
      <point x="479.0" y="883.0"/>
      <point x="408.0" y="821.0"/>
      <point x="408.0" y="748.0" type="curve"/>
      <point x="424.0" y="637.0"/>
      <point x="516.0" y="608.0"/>
      <point x="528.18" y="617.86" type="curve" smooth="yes"/>
      <point x="532.8546" y="621.6442"/>
      <point x="541.3522292799175" y="621.9171709267251"/>
      <point x="546.2600622976968" y="618.4407892057981" type="curve" smooth="yes"/>
      <point x="561.0" y="608.0"/>
      <point x="664.0" y="631.0"/>
    </contour>
  </outline>
</glyph>
<glyph name="Alpha" format="2">
  <advance width="1228"/>
  <unicode hex="0391"/>
  <outline>
    <contour>
      <point x="931.44" y="125.0" type="curve" smooth="yes"/>
      <point x="913.1868000000001" y="125.0"/>
      <point x="893.3204838602874" y="140.76304714252908"/>
      <point x="889.1712422559305" y="158.53839817559378" type="curve" smooth="yes"/>
      <point x="647.0" y="1196.0" type="line" smooth="yes"/>
      <point x="631.0" y="1274.0"/>
      <point x="602.0" y="1276.0"/>
      <point x="537.0" y="1276.0" type="curve" smooth="yes"/>
      <point x="479.0" y="1276.0"/>
      <point x="446.0" y="1276.0"/>
      <point x="426.0" y="1198.0" type="curve" smooth="yes"/>
      <point x="180.0" y="125.0" type="line"/>
      <point x="174.75137329101562" y="125.0"/>
      <point x="168.72972106933594" y="125.07027435302734"/>
      <point x="162.33023071289062" y="125.14495849609375" type="curve" smooth="yes"/>
      <point x="134.5901641845703" y="125.46870422363281"/>
      <point x="99.7505874633789" y="125.87529754638672"/>
      <point x="90.0" y="121.0" type="curve" smooth="yes"/>
      <point x="70.0" y="111.0"/>
      <point x="57.0" y="88.0"/>
      <point x="57.0" y="61.0" type="curve" smooth="yes"/>
      <point x="57.0" y="0.0"/>
      <point x="111.0" y="0.0"/>
      <point x="143.0" y="0.0" type="curve" smooth="yes"/>
      <point x="352.0" y="0.0" type="line" smooth="yes"/>
      <point x="389.0" y="0.0"/>
      <point x="438.0" y="0.0"/>
      <point x="438.0" y="61.0" type="curve" smooth="yes"/>
      <point x="438.0" y="125.0"/>
      <point x="397.0" y="125.0"/>
      <point x="354.66" y="125.0" type="curve" smooth="yes"/>
      <point x="338.41020000000003" y="125.0"/>
      <point x="327.2306392700772" y="139.04339111278452"/>
      <point x="330.8737005746323" y="154.879555559116" type="curve" smooth="yes"/>
      <point x="362.2388249320825" y="291.2218308272157" type="line" smooth="yes"/>
      <point x="367.94224771807876" y="316.01426048879136"/>
      <point x="395.56" y="338.0"/>
      <point x="421.0" y="338.0" type="curve" smooth="yes"/>
      <point x="657.0" y="338.0" type="line" smooth="yes"/>
      <point x="682.44" y="338.0"/>
      <point x="709.663263186577" y="315.9272209168688"/>
      <point x="714.9218365671851" y="291.03664024865697" type="curve" smooth="yes"/>
      <point x="743.5756108227476" y="155.4087754389946" type="line" smooth="yes"/>
      <point x="746.9805370866914" y="139.29212445632746"/>
      <point x="735.3924" y="125.0"/>
      <point x="718.92" y="125.0" type="curve" smooth="yes"/>
      <point x="676.0" y="125.0"/>
      <point x="635.0" y="125.0"/>
      <point x="635.0" y="61.0" type="curve" smooth="yes"/>
      <point x="635.0" y="0.0"/>
      <point x="684.0" y="0.0"/>
      <point x="721.0" y="0.0" type="curve" smooth="yes"/>
      <point x="930.0" y="0.0" type="line" smooth="yes"/>
      <point x="967.0" y="0.0"/>
      <point x="1020.0" y="0.0"/>
      <point x="1020.0" y="61.0" type="curve" smooth="yes"/>
      <point x="1020.0" y="125.0"/>
      <point x="979.0" y="125.0"/>
    </contour>
    <contour>
      <point x="662.1372719091579" y="509.9758086104552" type="line" smooth="yes"/>
      <point x="667.3645177973042" y="485.07863004691393"/>
      <point x="649.44" y="463.0"/>
      <point x="624.0" y="463.0" type="curve" smooth="yes"/>
      <point x="449.0" y="463.0" type="line" smooth="yes"/>
      <point x="423.56" y="463.0"/>
      <point x="405.6683539682005" y="485.07170295259493"/>
      <point x="410.93266801744784" y="509.96107011190406" type="curve" smooth="yes"/>
      <point x="537.0" y="1106.0" type="line"/>
    </contour>
  </outline>
</glyph>
<glyph name="Mu" format="2">
  <advance width="1228"/>
  <unicode hex="039C"/>
  <outline>
    <contour>
      <point x="1040.0" y="61.0" type="curve" smooth="yes"/>
      <point x="1040.0" y="125.0"/>
      <point x="995.0" y="125.0"/>
      <point x="957.3" y="125.0" type="curve" smooth="yes"/>
      <point x="942.831" y="125.0"/>
      <point x="930.0" y="137.83100000000002"/>
      <point x="930.0" y="152.3" type="curve" smooth="yes"/>
      <point x="930.0" y="1098.7" type="line" smooth="yes"/>
      <point x="930.0" y="1113.169"/>
      <point x="942.831" y="1126.0"/>
      <point x="957.3" y="1126.0" type="curve" smooth="yes"/>
      <point x="995.0" y="1126.0"/>
      <point x="1040.0" y="1126.0"/>
      <point x="1040.0" y="1190.0" type="curve" smooth="yes"/>
      <point x="1040.0" y="1251.0"/>
      <point x="987.0" y="1251.0"/>
      <point x="958.0" y="1251.0" type="curve" smooth="yes"/>
      <point x="844.0" y="1251.0" type="line" smooth="yes"/>
      <point x="758.0" y="1251.0"/>
      <point x="750.0" y="1223.0"/>
      <point x="733.0" y="1169.0" type="curve" smooth="yes"/>
      <point x="709.0" y="1096.0"/>
      <point x="553.0" y="623.0"/>
      <point x="541.0" y="563.0" type="curve"/>
      <point x="520.0" y="659.0"/>
      <point x="336.0" y="1190.0"/>
      <point x="332.0" y="1202.0" type="curve"/>
      <point x="311.0" y="1251.0"/>
      <point x="262.0" y="1251.0"/>
      <point x="233.0" y="1251.0" type="curve" smooth="yes"/>
      <point x="119.0" y="1251.0" type="line" smooth="yes"/>
      <point x="86.0" y="1251.0"/>
      <point x="37.0" y="1251.0"/>
      <point x="37.0" y="1190.0" type="curve" smooth="yes"/>
      <point x="37.0" y="1126.0"/>
      <point x="78.0" y="1126.0"/>
      <point x="115.7" y="1126.0" type="curve" smooth="yes"/>
      <point x="130.169" y="1126.0"/>
      <point x="143.0" y="1113.169"/>
      <point x="143.0" y="1098.7" type="curve" smooth="yes"/>
      <point x="143.0" y="152.3" type="line" smooth="yes"/>
      <point x="143.0" y="137.83100000000002"/>
      <point x="130.169" y="125.0"/>
      <point x="115.7" y="125.0" type="curve" smooth="yes"/>
      <point x="78.0" y="125.0"/>
      <point x="37.0" y="125.0"/>
      <point x="37.0" y="61.0" type="curve" smooth="yes"/>
      <point x="37.0" y="0.0"/>
      <point x="86.0" y="0.0"/>
      <point x="119.0" y="0.0" type="curve" smooth="yes"/>
      <point x="287.0" y="0.0" type="line" smooth="yes"/>
      <point x="315.0" y="0.0"/>
      <point x="369.0" y="0.0"/>
      <point x="369.0" y="61.0" type="curve" smooth="yes"/>
      <point x="369.0" y="125.0"/>
      <point x="324.0" y="125.0"/>
      <point x="285.72" y="125.0" type="curve" smooth="yes"/>
      <point x="271.02840000000003" y="125.0"/>
      <point x="258.0" y="138.0284"/>
      <point x="258.0" y="152.72" type="curve" smooth="yes"/>
      <point x="258.0" y="1102.0" type="line"/>
      <point x="262.0" y="1102.0" type="line"/>
      <point x="475.0" y="449.0" type="line"/>
      <point x="487.0" y="432.0"/>
      <point x="512.0" y="418.0"/>
      <point x="537.0" y="418.0" type="curve" smooth="yes"/>
      <point x="565.0" y="418.0"/>
      <point x="594.0" y="434.0"/>
      <point x="610.0" y="463.0" type="curve"/>
      <point x="614.0" y="475.0"/>
      <point x="791.0" y="993.0"/>
      <point x="815.0" y="1102.0" type="curve"/>
      <point x="815.0" y="152.3" type="line" smooth="yes"/>
      <point x="815.0" y="137.83100000000002"/>
      <point x="802.169" y="125.0"/>
      <point x="787.7" y="125.0" type="curve" smooth="yes"/>
      <point x="750.0" y="125.0"/>
      <point x="709.0" y="125.0"/>
      <point x="709.0" y="61.0" type="curve" smooth="yes"/>
      <point x="709.0" y="0.0"/>
      <point x="758.0" y="0.0"/>
      <point x="791.0" y="0.0" type="curve" smooth="yes"/>
      <point x="958.0" y="0.0" type="line" smooth="yes"/>
      <point x="987.0" y="0.0"/>
      <point x="1040.0" y="0.0"/>
    </contour>
  </outline>
</glyph>
<glyph name="uni043C" format="2">
  <advance width="1228"/>
  <unicode hex="043C"/>
  <outline>
    <contour>
      <point x="688.0" y="225.0" type="curve" smooth="yes"/>
      <point x="895.0858828584765" y="652.7958369576422" type="line" smooth="yes"/>
      <point x="906.170364943484" y="675.6940433700919"/>
      <point x="916.0" y="673.44"/>
      <point x="916.0" y="648.0" type="curve" smooth="yes"/>
      <point x="916.0" y="174.64" type="line" smooth="yes"/>
      <point x="916.0" y="154.1608"/>
      <point x="897.8392" y="136.0"/>
      <point x="877.36" y="136.0" type="curve" smooth="yes"/>
      <point x="824.0" y="136.0" type="line" smooth="yes"/>
      <point x="801.3330078125" y="136.0"/>
      <point x="785.1669921875" y="131.0"/>
      <point x="775.5" y="121.0" type="curve" smooth="yes"/>
      <point x="765.8330078125" y="111.0"/>
      <point x="761.0" y="93.33329772949219"/>
      <point x="761.0" y="68.0" type="curve" smooth="yes"/>
      <point x="761.0" y="42.66669845581055"/>
      <point x="765.8330078125" y="25.0"/>
      <point x="775.5" y="15.0" type="curve" smooth="yes"/>
      <point x="785.1669921875" y="5.0"/>
      <point x="801.3330078125" y="0.0"/>
      <point x="824.0" y="0.0" type="curve" smooth="yes"/>
      <point x="1158.0" y="0.0" type="line" smooth="yes"/>
      <point x="1180.6700439453125" y="0.0"/>
      <point x="1196.8299560546875" y="5.0"/>
      <point x="1206.5" y="15.0" type="curve" smooth="yes"/>
      <point x="1216.1700439453125" y="25.0"/>
      <point x="1221.0" y="42.66669845581055"/>
      <point x="1221.0" y="68.0" type="curve" smooth="yes"/>
      <point x="1221.0" y="93.33329772949219"/>
      <point x="1216.1700439453125" y="111.0"/>
      <point x="1206.5" y="121.0" type="curve" smooth="yes"/>
      <point x="1196.8299560546875" y="131.0"/>
      <point x="1180.6700439453125" y="136.0"/>
      <point x="1158.0" y="136.0" type="curve" smooth="yes"/>
      <point x="1104.64" y="136.0" type="line" smooth="yes"/>
      <point x="1084.1608" y="136.0"/>
      <point x="1066.0" y="154.1608"/>
      <point x="1066.0" y="174.64" type="curve" smooth="yes"/>
      <point x="1066.0" y="753.56" type="line" smooth="yes"/>
      <point x="1066.0" y="771.8131999999999"/>
      <point x="1082.1868" y="788.0"/>
      <point x="1100.44" y="788.0" type="curve" smooth="yes"/>
      <point x="1148.0" y="788.0" type="line" smooth="yes"/>
      <point x="1170.6700439453125" y="788.0"/>
      <point x="1186.8299560546875" y="793.0"/>
      <point x="1196.5" y="803.0" type="curve" smooth="yes"/>
      <point x="1206.1700439453125" y="813.0"/>
      <point x="1211.0" y="830.6669921875"/>
      <point x="1211.0" y="856.0" type="curve" smooth="yes"/>
      <point x="1211.0" y="881.3330078125"/>
      <point x="1206.1700439453125" y="899.0"/>
      <point x="1196.5" y="909.0" type="curve" smooth="yes"/>
      <point x="1186.8299560546875" y="919.0"/>
      <point x="1170.6700439453125" y="924.0"/>
      <point x="1148.0" y="924.0" type="curve" smooth="yes"/>
      <point x="938.0" y="924.0" type="line" smooth="yes"/>
      <point x="909.3330078124999" y="924.0"/>
      <point x="887.3330078124999" y="918.5"/>
      <point x="872.0" y="907.5" type="curve" smooth="yes"/>
      <point x="856.6669921875" y="896.5"/>
      <point x="844.0" y="880.3330078125"/>
      <point x="834.0" y="859.0" type="curve" smooth="yes"/>
      <point x="636.411199403917" y="438.4440207496215" type="line" smooth="yes"/>
      <point x="625.5932637198409" y="415.4186897523221"/>
      <point x="606.334818696576" y="415.38474602176694"/>
      <point x="595.4357844608" y="438.37180004631267" type="curve" smooth="yes"/>
      <point x="396.0" y="859.0" type="line" smooth="yes"/>
      <point x="385.3330078125" y="881.6669921875"/>
      <point x="372.1669921875" y="898.1669921875"/>
      <point x="356.5" y="908.5" type="curve" smooth="yes"/>
      <point x="340.8330078125" y="918.8330078125"/>
      <point x="318.6669921875" y="924.0"/>
      <point x="290.0" y="924.0" type="curve" smooth="yes"/>
      <point x="80.0" y="924.0" type="line" smooth="yes"/>
      <point x="57.33330154418945" y="924.0"/>
      <point x="41.16669845581055" y="919.0"/>
      <point x="31.5" y="909.0" type="curve" smooth="yes"/>
      <point x="21.83329963684082" y="899.0"/>
      <point x="17.0" y="881.3330078125"/>
      <point x="17.0" y="856.0" type="curve" smooth="yes"/>
      <point x="17.0" y="830.6669921875"/>
      <point x="21.83329963684082" y="813.0"/>
      <point x="31.5" y="803.0" type="curve" smooth="yes"/>
      <point x="41.16669845581055" y="793.0"/>
      <point x="57.33330154418945" y="788.0"/>
      <point x="80.0" y="788.0" type="curve" smooth="yes"/>
      <point x="127.56" y="788.0" type="line" smooth="yes"/>
      <point x="145.8132" y="788.0"/>
      <point x="162.0" y="771.8131999999999"/>
      <point x="162.0" y="753.56" type="curve" smooth="yes"/>
      <point x="162.0" y="174.64" type="line" smooth="yes"/>
      <point x="162.0" y="154.1608"/>
      <point x="143.8392" y="136.0"/>
      <point x="123.36" y="136.0" type="curve" smooth="yes"/>
      <point x="70.0" y="136.0" type="line" smooth="yes"/>
      <point x="47.33330154418945" y="136.0"/>
      <point x="31.16670036315918" y="131.0"/>
      <point x="21.5" y="121.0" type="curve" smooth="yes"/>
      <point x="11.83329963684082" y="111.0"/>
      <point x="7.0" y="93.33329772949219"/>
      <point x="7.0" y="68.0" type="curve" smooth="yes"/>
      <point x="7.0" y="42.66669845581055"/>
      <point x="11.83329963684082" y="25.0"/>
      <point x="21.5" y="15.0" type="curve" smooth="yes"/>
      <point x="31.16670036315918" y="5.0"/>
      <point x="47.33330154418945" y="0.0"/>
      <point x="70.0" y="0.0" type="curve" smooth="yes"/>
      <point x="404.0" y="0.0" type="line" smooth="yes"/>
      <point x="426.6669921875" y="0.0"/>
      <point x="442.8330078125" y="5.0"/>
      <point x="452.5" y="15.0" type="curve" smooth="yes"/>
      <point x="462.1669921875" y="25.0"/>
      <point x="467.0" y="42.66669845581055"/>
      <point x="467.0" y="68.0" type="curve" smooth="yes"/>
      <point x="467.0" y="93.33329772949219"/>
      <point x="462.1669921875" y="111.0"/>
      <point x="452.5" y="121.0" type="curve" smooth="yes"/>
      <point x="442.8330078125" y="131.0"/>
      <point x="426.6669921875" y="136.0"/>
      <point x="404.0" y="136.0" type="curve" smooth="yes"/>
      <point x="350.64" y="136.0" type="line" smooth="yes"/>
      <point x="330.1608" y="136.0"/>
      <point x="312.0" y="154.1608"/>
      <point x="312.0" y="174.64" type="curve" smooth="yes"/>
      <point x="312.0" y="648.0" type="line" smooth="yes"/>
      <point x="312.0" y="673.44"/>
      <point x="321.77238428778" y="675.666429105247"/>
      <point x="332.7923069952767" y="652.737083202653" type="curve" smooth="yes"/>
      <point x="535.0" y="232.0" type="line" smooth="yes"/>
      <point x="541.0" y="219.33299255371094"/>
      <point x="550.3330078125" y="208.33299255371094"/>
      <point x="563.0" y="199.0" type="curve" smooth="yes"/>
      <point x="575.6669921875" y="189.66700744628906"/>
      <point x="593.0" y="185.0"/>
      <point x="615.0" y="185.0" type="curve" smooth="yes"/>
      <point x="635.6669921875" y="185.0"/>
      <point x="651.5" y="188.5"/>
      <point x="662.5" y="195.5" type="curve" smooth="yes"/>
      <point x="673.5" y="202.5"/>
      <point x="682.0" y="212.33299255371094"/>
    </contour>
  </outline>
</glyph>
<glyph name="uni046F" format="2">
  <advance width="1228"/>
  <unicode hex="046F"/>
  <outline>
    <contour>
      <point x="84.0" y="748.0" type="curve" smooth="yes"/>
      <point x="84.0" y="694.0"/>
      <point x="125.0" y="655.0"/>
      <point x="174.0" y="655.0" type="curve" smooth="yes"/>
      <point x="225.0" y="655.0"/>
      <point x="266.0" y="692.0"/>
      <point x="266.0" y="726.8" type="curve" smooth="yes"/>
      <point x="266.0" y="740.156"/>
      <point x="277.61399752288327" y="754.3227995045767"/>
      <point x="290.7106330274112" y="756.9421266054823" type="curve" smooth="yes"/>
      <point x="336.0" y="766.0"/>
      <point x="440.0" y="766.0"/>
      <point x="502.0" y="766.0" type="curve" smooth="yes"/>
      <point x="508.0" y="766.0" type="line" smooth="yes"/>
      <point x="569.0" y="766.0"/>
      <point x="709.0" y="766.0"/>
      <point x="737.0" y="676.0" type="curve" smooth="yes"/>
      <point x="758.0" y="608.0"/>
      <point x="655.0" y="547.0"/>
      <point x="467.0" y="547.0" type="curve" smooth="yes"/>
      <point x="360.0" y="547.0" type="line" smooth="yes"/>
      <point x="315.0" y="547.0"/>
      <point x="295.0" y="516.0"/>
      <point x="295.0" y="485.0" type="curve" smooth="yes"/>
      <point x="295.0" y="432.0"/>
      <point x="332.0" y="424.0"/>
      <point x="375.0" y="424.0" type="curve" smooth="yes"/>
      <point x="500.0" y="424.0" type="line" smooth="yes"/>
      <point x="668.0" y="424.0"/>
      <point x="799.0" y="403.0"/>
      <point x="799.0" y="272.0" type="curve" smooth="yes"/>
      <point x="799.0" y="172.0"/>
      <point x="690.0" y="152.0"/>
      <point x="621.0" y="133.0" type="curve" smooth="yes"/>
      <point x="512.0" y="104.0"/>
      <point x="336.0" y="66.0"/>
      <point x="295.0" y="51.0" type="curve" smooth="yes"/>
      <point x="193.0" y="16.0"/>
      <point x="100.0" y="-74.0"/>
      <point x="100.0" y="-211.0" type="curve" smooth="yes"/>
      <point x="100.0" y="-346.0"/>
      <point x="197.0" y="-465.0"/>
      <point x="340.0" y="-465.0" type="curve" smooth="yes"/>
      <point x="406.0" y="-465.0"/>
      <point x="535.0" y="-422.0"/>
      <point x="535.0" y="-356.0" type="curve" smooth="yes"/>
      <point x="535.0" y="-319.0"/>
      <point x="498.0" y="-291.0"/>
      <point x="469.0" y="-291.0" type="curve" smooth="yes"/>
      <point x="432.0" y="-291.0"/>
      <point x="403.0" y="-338.0"/>
      <point x="340.0" y="-338.0" type="curve" smooth="yes"/>
      <point x="274.0" y="-338.0"/>
      <point x="238.0" y="-279.0"/>
      <point x="238.0" y="-221.0" type="curve" smooth="yes"/>
      <point x="238.0" y="-143.0"/>
      <point x="295.0" y="-104.0"/>
      <point x="326.0" y="-90.0" type="curve" smooth="yes"/>
      <point x="354.0" y="-78.0"/>
      <point x="600.0" y="-18.0"/>
      <point x="633.0" y="-12.0" type="curve"/>
      <point x="791.0" y="27.0"/>
      <point x="934.0" y="86.0"/>
      <point x="934.0" y="262.0" type="curve" smooth="yes"/>
      <point x="934.0" y="379.0"/>
      <point x="877.0" y="455.0"/>
      <point x="800.6055810677279" y="490.44070981394066" type="curve" smooth="yes"/>
      <point x="789.6846231018321" y="495.5071336125521"/>
      <point x="788.883" y="505.922"/>
      <point x="798.9" y="512.6" type="curve" smooth="yes"/>
      <point x="825.0" y="530.0"/>
      <point x="885.0" y="580.0"/>
      <point x="885.0" y="659.0" type="curve" smooth="yes"/>
      <point x="885.0" y="754.0"/>
      <point x="831.0" y="872.0"/>
      <point x="620.8703666009128" y="887.4746629247389" type="curve" smooth="yes"/>
      <point x="595.499072302429" y="889.3430915746274"/>
      <point x="588.5294085992161" y="907.3643230400342"/>
      <point x="606.0412948919492" y="925.8177085958174" type="curve" smooth="yes"/>
      <point x="666.0" y="989.0"/>
      <point x="733.0" y="1051.0"/>
      <point x="796.22" y="1053.32" type="curve" smooth="yes"/>
      <point x="820.4834" y="1054.2104"/>
      <point x="829.0813500806315" y="1072.224866559158"/>
      <point x="814.5135108098542" y="1091.6486522535276" type="curve" smooth="yes"/>
      <point x="770.0" y="1151.0"/>
      <point x="766.0" y="1157.0"/>
      <point x="748.0" y="1157.0" type="curve" smooth="yes"/>
      <point x="662.0" y="1157.0"/>
      <point x="586.0" y="1038.0"/>
      <point x="546.56" y="990.44" type="curve" smooth="yes"/>
      <point x="531.4232" y="972.1868000000001"/>
      <point x="501.19806616818096" y="968.6447543270391"/>
      <point x="482.25120461315095" y="982.9037326107215" type="curve" smooth="yes"/>
      <point x="324.0" y="1102.0"/>
      <point x="322.0" y="1106.0"/>
      <point x="297.0" y="1106.0" type="curve" smooth="yes"/>
      <point x="198.0" y="1106.0" type="line" smooth="yes"/>
      <point x="172.56" y="1106.0"/>
      <point x="167.98701674401656" y="1092.3830683099875"/>
      <point x="188.2702483915246" y="1077.027804914867" type="curve" smooth="yes"/>
      <point x="434.0" y="891.0" type="line"/>
      <point x="432.7377624511719" y="891.0"/>
      <point x="431.4482116699219" y="891.0003662109375"/>
      <point x="430.1322937011719" y="891.0006713867188" type="curve" smooth="yes"/>
      <point x="331.3645935058594" y="891.0271606445312"/>
      <point x="84.0" y="891.093505859375"/>
    </contour>
  </outline>
</glyph>
<glyph name="uni048C" format="2">
  <advance width="1228"/>
  <unicode hex="048C"/>
  <outline>
    <contour>
      <point x="47.0" y="999.0" type="curve" smooth="yes"/>
      <point x="47.0" y="971.0"/>
      <point x="63.0" y="936.0"/>
      <point x="117.0" y="936.0" type="curve" smooth="yes"/>
      <point x="119.0" y="936.0"/>
      <point x="119.0" y="936.0"/>
      <point x="121.0" y="938.0" type="curve"/>
      <point x="249.0" y="938.0" type="line" smooth="yes"/>
      <point x="274.44" y="938.0"/>
      <point x="297.0" y="915.44"/>
      <point x="297.0" y="890.0" type="curve" smooth="yes"/>
      <point x="297.0" y="145.9" type="line" smooth="yes"/>
      <point x="297.0" y="135.883"/>
      <point x="288.117" y="127.0"/>
      <point x="278.1" y="127.0" type="curve" smooth="yes"/>
      <point x="252.0" y="127.0" type="line" smooth="yes"/>
      <point x="186.0" y="127.0"/>
      <point x="178.0" y="88.0"/>
      <point x="178.0" y="63.0" type="curve" smooth="yes"/>
      <point x="178.0" y="41.0"/>
      <point x="186.0" y="0.0"/>
      <point x="250.0" y="0.0" type="curve" smooth="yes"/>
      <point x="680.0" y="0.0" type="line" smooth="yes"/>
      <point x="934.0" y="0.0"/>
      <point x="999.0" y="236.0"/>
      <point x="999.0" y="356.0" type="curve" smooth="yes"/>
      <point x="999.0" y="518.0"/>
      <point x="903.0" y="713.0"/>
      <point x="684.0" y="713.0" type="curve" smooth="yes"/>
      <point x="488.0" y="713.0" type="line" smooth="yes"/>
      <point x="462.56" y="713.0"/>
      <point x="440.0" y="735.56"/>
      <point x="440.0" y="761.0" type="curve" smooth="yes"/>
      <point x="440.0" y="890.0" type="line" smooth="yes"/>
      <point x="440.0" y="915.44"/>
      <point x="462.56" y="938.0"/>
      <point x="488.0" y="938.0" type="curve" smooth="yes"/>
      <point x="860.0" y="938.0" type="line" smooth="yes"/>
      <point x="913.0" y="938.0"/>
      <point x="934.0" y="963.0"/>
      <point x="934.0" y="999.0" type="curve" smooth="yes"/>
      <point x="934.0" y="1051.0"/>
      <point x="897.0" y="1063.0"/>
      <point x="860.0" y="1063.0" type="curve" smooth="yes"/>
      <point x="465.62" y="1063.0" type="line" smooth="yes"/>
      <point x="452.0414" y="1063.0"/>
      <point x="440.0" y="1075.0413999999998"/>
      <point x="440.0" y="1088.62" type="curve" smooth="yes"/>
      <point x="440.0" y="1105.1" type="line" smooth="yes"/>
      <point x="440.0" y="1115.117"/>
      <point x="448.883" y="1124.0"/>
      <point x="458.9" y="1124.0" type="curve" smooth="yes"/>
      <point x="485.0" y="1124.0" type="line" smooth="yes"/>
      <point x="551.0" y="1124.0"/>
      <point x="561.0" y="1163.0"/>
      <point x="561.0" y="1188.0" type="curve" smooth="yes"/>
      <point x="561.0" y="1214.0"/>
      <point x="549.0" y="1251.0"/>
      <point x="487.0" y="1251.0" type="curve" smooth="yes"/>
      <point x="252.0" y="1251.0" type="line" smooth="yes"/>
      <point x="193.0" y="1251.0"/>
      <point x="178.0" y="1219.0"/>
      <point x="178.0" y="1188.0" type="curve" smooth="yes"/>
      <point x="178.0" y="1126.0"/>
      <point x="229.0" y="1124.0"/>
      <point x="252.0" y="1124.0" type="curve" smooth="yes"/>
      <point x="278.1" y="1124.0" type="line" smooth="yes"/>
      <point x="288.117" y="1124.0"/>
      <point x="297.0" y="1115.117"/>
      <point x="297.0" y="1105.1" type="curve" smooth="yes"/>
      <point x="297.0" y="1088.62" type="line" smooth="yes"/>
      <point x="297.0" y="1075.0413999999998"/>
      <point x="284.9586" y="1063.0"/>
      <point x="271.38" y="1063.0" type="curve" smooth="yes"/>
      <point x="119.0" y="1063.0" type="line" smooth="yes"/>
      <point x="61.0" y="1063.0"/>
      <point x="47.0" y="1030.0"/>
    </contour>
    <contour>
      <point x="488.0" y="127.0" type="line" smooth="yes"/>
      <point x="462.56" y="127.0"/>
      <point x="440.0" y="149.56"/>
      <point x="440.0" y="175.0" type="curve" smooth="yes"/>
      <point x="440.0" y="540.0" type="line" smooth="yes"/>
      <point x="440.0" y="565.44"/>
      <point x="462.56" y="588.0"/>
      <point x="488.0" y="588.0" type="curve" smooth="yes"/>
      <point x="657.0" y="588.0" type="line" smooth="yes"/>
      <point x="776.0" y="588.0"/>
      <point x="856.0" y="479.0"/>
      <point x="856.0" y="356.0" type="curve" smooth="yes"/>
      <point x="856.0" y="233.0"/>
      <point x="776.0" y="127.0"/>
      <point x="657.0" y="127.0" type="curve" smooth="yes"/>
    </contour>
  </outline>
</glyph>
<glyph name="uni0494" format="2">
  <advance width="1228"/>
  <unicode hex="0494"/>
  <outline>
    <contour>
      <point x="45.0" y="63.0" type="curve" smooth="yes"/>
      <point x="45.0" y="6.0"/>
      <point x="86.0" y="0.0"/>
      <point x="125.0" y="0.0" type="curve" smooth="yes"/>
      <point x="426.0" y="0.0" type="line" smooth="yes"/>
      <point x="459.0" y="0.0"/>
      <point x="502.0" y="8.0"/>
      <point x="502.0" y="63.0" type="curve" smooth="yes"/>
      <point x="502.0" y="121.0"/>
      <point x="457.0" y="127.0"/>
      <point x="418.0" y="127.0" type="curve" smooth="yes"/>
      <point x="365.8" y="127.0" type="line" smooth="yes"/>
      <point x="345.766" y="127.0"/>
      <point x="328.0" y="144.76600000000002"/>
      <point x="328.0" y="164.8" type="curve" smooth="yes"/>
      <point x="328.0" y="540.0" type="line" smooth="yes"/>
      <point x="328.0" y="565.44"/>
      <point x="350.56" y="588.0"/>
      <point x="376.0" y="588.0" type="curve" smooth="yes"/>
      <point x="461.0" y="588.0" type="line" smooth="yes"/>
      <point x="766.0" y="588.0"/>
      <point x="844.0" y="332.0"/>
      <point x="844.0" y="102.0" type="curve" smooth="yes"/>
      <point x="844.0" y="-133.0"/>
      <point x="737.0" y="-340.0"/>
      <point x="578.0" y="-340.0" type="curve" smooth="yes"/>
      <point x="551.0" y="-340.0"/>
      <point x="522.0" y="-336.0"/>
      <point x="497.51973073490836" y="-329.4719281959756" type="curve" smooth="yes"/>
      <point x="494.59427344540694" y="-328.6918062521085"/>
      <point x="492.7896" y="-325.4338"/>
      <point x="493.68" y="-322.54" type="curve" smooth="yes"/>
      <point x="496.0" y="-315.0"/>
      <point x="496.0" y="-305.0"/>
      <point x="496.0" y="-295.0" type="curve" smooth="yes"/>
      <point x="496.0" y="-242.0"/>
      <point x="453.0" y="-205.0"/>
      <point x="406.0" y="-205.0" type="curve" smooth="yes"/>
      <point x="365.0" y="-205.0"/>
      <point x="315.0" y="-236.0"/>
      <point x="315.0" y="-297.0" type="curve" smooth="yes"/>
      <point x="315.0" y="-365.0"/>
      <point x="367.0" y="-467.0"/>
      <point x="578.0" y="-467.0" type="curve" smooth="yes"/>
      <point x="823.0" y="-467.0"/>
      <point x="987.0" y="-199.0"/>
      <point x="987.0" y="102.0" type="curve" smooth="yes"/>
      <point x="987.0" y="449.0"/>
      <point x="848.0" y="713.0"/>
      <point x="500.0" y="713.0" type="curve" smooth="yes"/>
      <point x="376.0" y="713.0" type="line" smooth="yes"/>
      <point x="350.56" y="713.0"/>
      <point x="328.0" y="735.56"/>
      <point x="328.0" y="761.0" type="curve" smooth="yes"/>
      <point x="328.0" y="1076.0" type="line" smooth="yes"/>
      <point x="328.0" y="1101.44"/>
      <point x="350.56" y="1124.0"/>
      <point x="376.0" y="1124.0" type="curve" smooth="yes"/>
      <point x="687.0" y="1124.0" type="line" smooth="yes"/>
      <point x="712.44" y="1124.0"/>
      <point x="735.0" y="1101.44"/>
      <point x="735.0" y="1076.0" type="curve" smooth="yes"/>
      <point x="735.0" y="999.0" type="line" smooth="yes"/>
      <point x="737.0" y="934.0"/>
      <point x="778.0" y="932.0"/>
      <point x="809.0" y="932.0" type="curve" smooth="yes"/>
      <point x="866.0" y="932.0"/>
      <point x="879.0" y="969.0"/>
      <point x="879.0" y="999.0" type="curve" smooth="yes"/>
      <point x="879.0" y="1174.0" type="line" smooth="yes"/>
      <point x="879.0" y="1174.6209716796875"/>
      <point x="879.0011596679688" y="1175.256103515625"/>
      <point x="879.0023193359375" y="1175.904541015625" type="curve" smooth="yes"/>
      <point x="879.0499267578125" y="1202.4068603515625"/>
      <point x="879.1371459960938" y="1251.0"/>
      <point x="803.0" y="1251.0" type="curve" smooth="yes"/>
      <point x="117.0" y="1251.0" type="line" smooth="yes"/>
      <point x="59.0" y="1251.0"/>
      <point x="45.0" y="1217.0"/>
      <point x="45.0" y="1188.0" type="curve" smooth="yes"/>
      <point x="45.0" y="1128.0"/>
      <point x="90.0" y="1124.0"/>
      <point x="125.0" y="1124.0" type="curve" smooth="yes"/>
      <point x="159.22" y="1124.0" type="line" smooth="yes"/>
      <point x="172.3534" y="1124.0"/>
      <point x="184.0" y="1112.3534"/>
      <point x="184.0" y="1099.22" type="curve" smooth="yes"/>
      <point x="184.0" y="155.14" type="line" smooth="yes"/>
      <point x="184.0" y="140.2258"/>
      <point x="170.7742" y="127.0"/>
      <point x="155.86" y="127.0" type="curve" smooth="yes"/>
      <point x="117.0" y="127.0" type="line" smooth="yes"/>
      <point x="98.0" y="127.0"/>
      <point x="45.0" y="123.0"/>
    </contour>
  </outline>
</glyph>
<glyph name="uni0498" format="2">
  <advance width="1228"/>
  <unicode hex="0498"/>
  <outline>
    <contour>
      <point x="115.0" y="344.0" type="curve" smooth="yes"/>
      <point x="115.0" y="240.0"/>
      <point x="168.0" y="4.0"/>
      <point x="475.0041154557599" y="-19.54025166433942" type="curve" smooth="yes"/>
      <point x="478.18193426420714" y="-19.783918282239526"/>
      <point x="479.8156" y="-22.566200000000002"/>
      <point x="478.48" y="-25.46" type="curve" smooth="yes"/>
      <point x="475.0" y="-33.0"/>
      <point x="467.0" y="-45.0"/>
      <point x="467.0" y="-78.0" type="curve" smooth="yes"/>
      <point x="467.0" y="-106.0"/>
      <point x="475.0" y="-141.0"/>
      <point x="512.0" y="-150.0" type="curve"/>
      <point x="516.0" y="-152.0"/>
      <point x="647.0" y="-156.0"/>
      <point x="647.0" y="-256.0" type="curve" smooth="yes"/>
      <point x="647.0" y="-349.2951965332031"/>
      <point x="473.6700134277344" y="-354.0814514160156"/>
      <point x="381.9233703613281" y="-356.6148986816406" type="curve" smooth="yes"/>
      <point x="356.6452331542969" y="-357.31292724609375"/>
      <point x="337.56024169921875" y="-357.8399353027344"/>
      <point x="330.0" y="-360.0" type="curve"/>
      <point x="305.0" y="-369.0"/>
      <point x="289.0" y="-389.0"/>
      <point x="289.0" y="-420.0" type="curve" smooth="yes"/>
      <point x="289.0" y="-444.0"/>
      <point x="301.0" y="-483.0"/>
      <point x="360.0" y="-483.0" type="curve" smooth="yes"/>
      <point x="373.0" y="-483.0" type="line" smooth="yes"/>
      <point x="449.0" y="-481.0"/>
      <point x="514.0" y="-479.0"/>
      <point x="582.0" y="-465.0" type="curve" smooth="yes"/>
      <point x="774.0" y="-426.0"/>
      <point x="791.0" y="-303.0"/>
      <point x="791.0" y="-256.0" type="curve" smooth="yes"/>
      <point x="791.0" y="-133.0"/>
      <point x="690.0" y="-59.0"/>
      <point x="614.0134162833652" y="-39.09875188373853" type="curve" smooth="yes"/>
      <point x="609.7663056531817" y="-37.98641338535711"/>
      <point x="604.026" y="-33.6442"/>
      <point x="601.8" y="-29.86" type="curve" smooth="yes"/>
      <point x="600.2" y="-27.14" type="line" smooth="yes"/>
      <point x="597.974" y="-23.3558"/>
      <point x="599.8774909300864" y="-19.64909584343109"/>
      <point x="604.2499807023116" y="-19.253395411555513" type="curve" smooth="yes"/>
      <point x="817.0" y="0.0"/>
      <point x="981.0" y="164.0"/>
      <point x="981.0" y="346.0" type="curve" smooth="yes"/>
      <point x="981.0" y="506.0"/>
      <point x="856.0" y="608.0"/>
      <point x="777.9858316357272" y="647.0070841821364" type="curve" smooth="yes"/>
      <point x="771.6333408687918" y="650.1833295656041"/>
      <point x="771.3298" y="656.3558"/>
      <point x="777.34" y="660.14" type="curve" smooth="yes"/>
      <point x="793.0" y="670.0"/>
      <point x="934.0" y="756.0"/>
      <point x="934.0" y="932.0" type="curve" smooth="yes"/>
      <point x="934.0" y="1120.0"/>
      <point x="758.0" y="1274.0"/>
      <point x="537.0" y="1274.0" type="curve" smooth="yes"/>
      <point x="430.0" y="1274.0"/>
      <point x="354.0" y="1243.0"/>
      <point x="310.629699224558" y="1213.3980486770793" type="curve" smooth="yes"/>
      <point x="300.22595863554227" y="1206.2970828782272"/>
      <point x="283.3014" y="1208.0934"/>
      <point x="274.62" y="1217.22" type="curve" smooth="yes"/>
      <point x="252.0" y="1241.0"/>
      <point x="233.0" y="1274.0"/>
      <point x="195.0" y="1274.0" type="curve" smooth="yes"/>
      <point x="170.0" y="1274.0"/>
      <point x="133.0" y="1260.0"/>
      <point x="133.0" y="1204.0" type="curve" smooth="yes"/>
      <point x="133.0" y="903.0" type="line" smooth="yes"/>
      <point x="133.0" y="901.3850708007812"/>
      <point x="132.99041748046875" y="899.72705078125"/>
      <point x="132.9806365966797" y="898.0338134765625" type="curve" smooth="yes"/>
      <point x="132.79051208496094" y="865.1257934570312"/>
      <point x="132.52345275878906" y="818.902099609375"/>
      <point x="201.0" y="817.0" type="curve" smooth="yes"/>
      <point x="203.0" y="817.0" type="line" smooth="yes"/>
      <point x="262.0" y="817.0"/>
      <point x="272.0" y="844.0"/>
      <point x="279.0" y="891.0" type="curve" smooth="yes"/>
      <point x="305.0" y="1118.0"/>
      <point x="459.0" y="1147.0"/>
      <point x="539.0" y="1147.0" type="curve" smooth="yes"/>
      <point x="684.0" y="1147.0"/>
      <point x="788.0" y="1044.0"/>
      <point x="791.0" y="930.0" type="curve"/>
      <point x="788.0" y="854.0"/>
      <point x="737.0" y="713.0"/>
      <point x="537.0" y="713.0" type="curve" smooth="yes"/>
      <point x="420.0" y="713.0" type="line" smooth="yes"/>
      <point x="379.0" y="713.0"/>
      <point x="354.0" y="682.0"/>
      <point x="354.0" y="651.0" type="curve" smooth="yes"/>
      <point x="354.0" y="618.0"/>
      <point x="377.0" y="588.0"/>
      <point x="426.0" y="588.0" type="curve" smooth="yes"/>
      <point x="516.0" y="588.0" type="line" smooth="yes"/>
      <point x="758.0" y="588.0"/>
      <point x="838.0" y="440.0"/>
      <point x="838.0" y="346.0" type="curve" smooth="yes"/>
      <point x="838.0" y="217.0"/>
      <point x="711.0" y="102.0"/>
      <point x="537.0" y="102.0" type="curve" smooth="yes"/>
      <point x="467.0" y="102.0"/>
      <point x="289.0" y="117.0"/>
      <point x="262.0" y="307.0" type="curve" smooth="yes"/>
      <point x="260.526123046875" y="316.02740478515625"/>
      <point x="259.7989807128906" y="325.3603210449219"/>
      <point x="259.0806884765625" y="334.5797119140625" type="curve" smooth="yes"/>
      <point x="255.90011596679688" y="375.40240478515625"/>
      <point x="252.8928985595703" y="414.0"/>
      <point x="186.0" y="414.0" type="curve" smooth="yes"/>
      <point x="182.0" y="414.0" type="line" smooth="yes"/>
      <point x="152.0" y="414.0"/>
      <point x="115.0" y="399.0"/>
    </contour>
  </outline>
</glyph>
<glyph name="uni049E" format="2">
  <advance width="1228"/>
  <unicode hex="049E"/>
  <outline>
    <contour>
      <point x="-31.0" y="1004.0" type="curve" smooth="yes"/>
      <point x="-31.0" y="977.0"/>
      <point x="-18.0" y="942.0"/>
      <point x="41.0" y="942.0" type="curve" smooth="yes"/>
      <point x="134.0" y="942.0" type="line" smooth="yes"/>
      <point x="159.44" y="942.0"/>
      <point x="182.0" y="919.44"/>
      <point x="182.0" y="894.0" type="curve" smooth="yes"/>
      <point x="182.0" y="151.78" type="line" smooth="yes"/>
      <point x="182.0" y="138.6466"/>
      <point x="170.3534" y="127.0"/>
      <point x="157.22" y="127.0" type="curve" smooth="yes"/>
      <point x="123.0" y="127.0" type="line" smooth="yes"/>
      <point x="104.0" y="127.0"/>
      <point x="53.0" y="123.0"/>
      <point x="53.0" y="61.0" type="curve" smooth="yes"/>
      <point x="53.0" y="41.0"/>
      <point x="61.0" y="0.0"/>
      <point x="125.0" y="0.0" type="curve" smooth="yes"/>
      <point x="352.0" y="0.0" type="line" smooth="yes"/>
      <point x="406.0" y="0.0"/>
      <point x="426.0" y="27.0"/>
      <point x="426.0" y="63.0" type="curve" smooth="yes"/>
      <point x="426.0" y="115.0"/>
      <point x="391.0" y="127.0"/>
      <point x="350.0" y="127.0" type="curve" smooth="yes"/>
      <point x="319.26" y="127.0" type="line" smooth="yes"/>
      <point x="307.4622" y="127.0"/>
      <point x="297.0" y="137.4622"/>
      <point x="297.0" y="149.26" type="curve" smooth="yes"/>
      <point x="297.0" y="360.0" type="line" smooth="yes"/>
      <point x="297.0" y="393.0"/>
      <point x="297.0" y="395.0"/>
      <point x="322.0" y="426.0" type="curve" smooth="yes"/>
      <point x="354.0" y="467.0"/>
      <point x="471.0" y="614.0"/>
      <point x="481.44" y="626.18" type="curve" smooth="yes"/>
      <point x="485.4468" y="630.8546"/>
      <point x="491.6713933224666" y="630.2383585690771"/>
      <point x="494.6838155797161" y="624.8688480193131" type="curve" smooth="yes"/>
      <point x="767.2185400627445" y="139.0876549057044" type="line" smooth="yes"/>
      <point x="770.8127138294899" y="132.68119780568108"/>
      <point x="767.4858" y="127.0"/>
      <point x="760.14" y="127.0" type="curve" smooth="yes"/>
      <point x="741.0" y="127.0"/>
      <point x="694.0" y="123.0"/>
      <point x="694.0" y="63.0" type="curve" smooth="yes"/>
      <point x="694.0" y="35.0"/>
      <point x="707.0" y="0.0"/>
      <point x="764.0" y="0.0" type="curve" smooth="yes"/>
      <point x="938.0" y="0.0" type="line" smooth="yes"/>
      <point x="965.0" y="0.0"/>
      <point x="1014.0" y="2.0"/>
      <point x="1014.0" y="63.0" type="curve" smooth="yes"/>
      <point x="1014.0" y="115.0"/>
      <point x="977.0" y="127.0"/>
      <point x="938.0" y="127.0" type="curve" smooth="yes"/>
      <point x="920.02" y="127.0" type="line" smooth="yes"/>
      <point x="913.1194" y="127.0"/>
      <point x="903.9982188384378" y="132.3325759458342"/>
      <point x="900.6132315711441" y="138.34590626773237" type="curve" smooth="yes"/>
      <point x="569.9713317490006" y="725.7215165400107" type="line" smooth="yes"/>
      <point x="568.3965259220303" y="728.5191127738051"/>
      <point x="568.5792" y="733.3688"/>
      <point x="570.36" y="736.04" type="curve" smooth="yes"/>
      <point x="575.0" y="743.0"/>
      <point x="756.0" y="969.0"/>
      <point x="850.0" y="1087.0" type="curve" smooth="yes"/>
      <point x="872.0" y="1114.0"/>
      <point x="874.0" y="1124.0"/>
      <point x="909.0" y="1124.0" type="curve" smooth="yes"/>
      <point x="920.0" y="1124.0" type="line" smooth="yes"/>
      <point x="950.0" y="1124.0"/>
      <point x="995.0" y="1128.0"/>
      <point x="995.0" y="1186.0" type="curve" smooth="yes"/>
      <point x="995.0" y="1217.0"/>
      <point x="981.0" y="1251.0"/>
      <point x="924.0" y="1251.0" type="curve" smooth="yes"/>
      <point x="717.0" y="1251.0" type="line" smooth="yes"/>
      <point x="662.0" y="1251.0"/>
      <point x="647.0" y="1214.0"/>
      <point x="647.0" y="1188.0" type="curve" smooth="yes"/>
      <point x="647.0" y="1126.0"/>
      <point x="694.0" y="1124.0"/>
      <point x="715.46" y="1124.0" type="curve" smooth="yes"/>
      <point x="723.6962" y="1124.0"/>
      <point x="726.437352311672" y="1118.29669038959"/>
      <point x="721.2922389610043" y="1111.8652987012554" type="curve" smooth="yes"/>
      <point x="313.43999324369815" y="602.0499915546227" type="line" smooth="yes"/>
      <point x="305.78679682453816" y="592.4834960306727"/>
      <point x="298.6052" y="594.857"/>
      <point x="298.16" y="607.1" type="curve" smooth="yes"/>
      <point x="297.0" y="639.0" type="line"/>
      <point x="297.0" y="905.88" type="line" smooth="yes"/>
      <point x="297.0" y="925.0236"/>
      <point x="313.9764" y="942.0"/>
      <point x="333.12" y="942.0" type="curve" smooth="yes"/>
      <point x="383.0" y="942.0" type="line" smooth="yes"/>
      <point x="414.0" y="942.0"/>
      <point x="461.0" y="944.0"/>
      <point x="461.0" y="1004.0" type="curve" smooth="yes"/>
      <point x="461.0" y="1063.0"/>
      <point x="418.0" y="1067.0"/>
      <point x="379.0" y="1067.0" type="curve" smooth="yes"/>
      <point x="320.94" y="1067.0" type="line" smooth="yes"/>
      <point x="308.2518" y="1067.0"/>
      <point x="297.0" y="1078.2518"/>
      <point x="297.0" y="1090.94" type="curve" smooth="yes"/>
      <point x="297.0" y="1101.74" type="line" smooth="yes"/>
      <point x="297.0" y="1113.5378"/>
      <point x="307.4622" y="1124.0"/>
      <point x="319.26" y="1124.0" type="curve" smooth="yes"/>
      <point x="350.0" y="1124.0" type="line" smooth="yes"/>
      <point x="373.0" y="1124.0"/>
      <point x="426.0" y="1126.0"/>
      <point x="426.0" y="1188.0" type="curve" smooth="yes"/>
      <point x="426.0" y="1210.0"/>
      <point x="418.0" y="1251.0"/>
      <point x="354.0" y="1251.0" type="curve" smooth="yes"/>
      <point x="127.0" y="1251.0" type="line" smooth="yes"/>
      <point x="96.0" y="1251.0"/>
      <point x="53.0" y="1243.0"/>
      <point x="53.0" y="1186.0" type="curve" smooth="yes"/>
      <point x="53.0" y="1137.0"/>
      <point x="88.0" y="1124.0"/>
      <point x="129.0" y="1124.0" type="curve" smooth="yes"/>
      <point x="159.74" y="1124.0" type="line" smooth="yes"/>
      <point x="171.5378" y="1124.0"/>
      <point x="182.0" y="1113.5378"/>
      <point x="182.0" y="1101.74" type="curve" smooth="yes"/>
      <point x="182.0" y="1090.94" type="line" smooth="yes"/>
      <point x="182.0" y="1078.2518"/>
      <point x="170.7482" y="1067.0"/>
      <point x="158.06" y="1067.0" type="curve" smooth="yes"/>
      <point x="39.0" y="1067.0" type="line" smooth="yes"/>
      <point x="-16.0" y="1067.0"/>
      <point x="-31.0" y="1032.0"/>
    </contour>
  </outline>
</glyph>
<glyph name="uni04AA" format="2">
  <advance width="1228"/>
  <unicode hex="04AA"/>
  <outline>
    <contour>
      <point x="82.0" y="627.0" type="curve" smooth="yes"/>
      <point x="82.0" y="279.0"/>
      <point x="276.0" y="20.0"/>
      <point x="510.94642966108205" y="-16.89241457488065" type="curve" smooth="yes"/>
      <point x="514.6848219407086" y="-17.479434850193904"/>
      <point x="516.4208" y="-20.961"/>
      <point x="514.64" y="-24.3" type="curve" smooth="yes"/>
      <point x="510.0" y="-33.0"/>
      <point x="502.0" y="-41.0"/>
      <point x="502.0" y="-76.0" type="curve" smooth="yes"/>
      <point x="502.0" y="-119.0"/>
      <point x="510.0" y="-147.0"/>
      <point x="571.0" y="-154.0" type="curve" smooth="yes"/>
      <point x="631.0" y="-160.0"/>
      <point x="682.0" y="-201.0"/>
      <point x="682.0" y="-254.0" type="curve" smooth="yes"/>
      <point x="682.0" y="-347.2929382324219"/>
      <point x="517.927490234375" y="-352.6049499511719"/>
      <point x="423.9955139160156" y="-355.6461181640625" type="curve" smooth="yes"/>
      <point x="396.0986328125" y="-356.5492858886719"/>
      <point x="374.3883361816406" y="-357.252197265625"/>
      <point x="365.0" y="-360.0" type="curve"/>
      <point x="346.0" y="-367.0"/>
      <point x="324.0" y="-385.0"/>
      <point x="324.0" y="-420.0" type="curve" smooth="yes"/>
      <point x="324.0" y="-471.0"/>
      <point x="360.0" y="-483.0"/>
      <point x="395.0" y="-483.0" type="curve" smooth="yes"/>
      <point x="410.0" y="-483.0" type="line" smooth="yes"/>
      <point x="633.0" y="-483.0"/>
      <point x="825.0" y="-438.0"/>
      <point x="825.0" y="-256.0" type="curve" smooth="yes"/>
      <point x="825.0" y="-170.0"/>
      <point x="776.0" y="-82.0"/>
      <point x="648.4861391918665" y="-39.495379730622176" type="curve" smooth="yes"/>
      <point x="644.5184854201773" y="-38.17282847339242"/>
      <point x="639.4208" y="-33.6442"/>
      <point x="637.64" y="-29.86" type="curve" smooth="yes"/>
      <point x="636.36" y="-27.14" type="line" smooth="yes"/>
      <point x="634.5792" y="-23.3558"/>
      <point x="636.6607314258354" y="-19.404759117750345"/>
      <point x="640.7887902677348" y="-18.733530037766695" type="curve" smooth="yes"/>
      <point x="879.0" y="20.0"/>
      <point x="989.0" y="201.0"/>
      <point x="989.0" y="344.0" type="curve" smooth="yes"/>
      <point x="989.0" y="387.0"/>
      <point x="971.0" y="414.0"/>
      <point x="920.0" y="414.0" type="curve" smooth="yes"/>
      <point x="848.0" y="414.0"/>
      <point x="848.0" y="360.0"/>
      <point x="846.0" y="344.0" type="curve"/>
      <point x="836.0" y="201.0"/>
      <point x="717.0" y="104.0"/>
      <point x="586.0" y="104.0" type="curve" smooth="yes"/>
      <point x="395.0" y="104.0"/>
      <point x="225.0" y="328.0"/>
      <point x="225.0" y="627.0" type="curve" smooth="yes"/>
      <point x="225.0" y="946.0"/>
      <point x="414.0" y="1147.0"/>
      <point x="584.0" y="1147.0" type="curve" smooth="yes"/>
      <point x="690.0" y="1147.0"/>
      <point x="782.0" y="1071.0"/>
      <point x="823.0" y="967.0" type="curve" smooth="yes"/>
      <point x="854.0" y="889.0"/>
      <point x="834.0" y="817.0"/>
      <point x="915.0" y="817.0" type="curve" smooth="yes"/>
      <point x="981.0" y="817.0"/>
      <point x="991.0" y="854.0"/>
      <point x="991.0" y="891.0" type="curve" smooth="yes"/>
      <point x="991.0" y="1194.0" type="line" smooth="yes"/>
      <point x="991.0" y="1194.77783203125"/>
      <point x="991.0094604492188" y="1195.6689453125"/>
      <point x="991.0199584960938" y="1196.6607666015625" type="curve" smooth="yes"/>
      <point x="991.225830078125" y="1216.071044921875"/>
      <point x="991.8402709960938" y="1274.0"/>
      <point x="930.0" y="1274.0" type="curve" smooth="yes"/>
      <point x="885.0" y="1274.0"/>
      <point x="870.0" y="1243.0"/>
      <point x="852.6" y="1202.98" type="curve" smooth="yes"/>
      <point x="845.922" y="1187.6206"/>
      <point x="828.5608999548691" y="1183.473004724874"/>
      <point x="815.6614892656789" y="1194.1553292018596" type="curve" smooth="yes"/>
      <point x="776.0" y="1227.0"/>
      <point x="692.0" y="1274.0"/>
      <point x="575.0" y="1274.0" type="curve" smooth="yes"/>
      <point x="297.0" y="1274.0"/>
      <point x="82.0" y="979.0"/>
    </contour>
  </outline>
</glyph>
<glyph name="uni04AB" format="2">
  <advance width="1228"/>
  <unicode hex="04AB"/>
  <outline>
    <contour>
      <point x="147.0" y="440.0" type="curve" smooth="yes"/>
      <point x="147.0" y="213.0"/>
      <point x="309.0" y="31.0"/>
      <point x="495.47570373512895" y="0.358452437889615" type="curve" smooth="yes"/>
      <point x="509.5335807555106" y="-1.9515273541918812"/>
      <point x="522.0" y="-16.6336"/>
      <point x="522.0" y="-30.88" type="curve" smooth="yes"/>
      <point x="522.0" y="-68.0" type="line" smooth="yes"/>
      <point x="522.0" y="-96.0"/>
      <point x="522.0" y="-137.0"/>
      <point x="567.0" y="-150.0" type="curve"/>
      <point x="571.0" y="-152.0"/>
      <point x="702.0" y="-154.0"/>
      <point x="702.0" y="-256.0" type="curve" smooth="yes"/>
      <point x="702.0" y="-343.45989990234375"/>
      <point x="560.0301513671875" y="-350.6334533691406"/>
      <point x="461.3985900878906" y="-355.6171569824219" type="curve" smooth="yes"/>
      <point x="419.0633239746094" y="-357.75628662109375"/>
      <point x="384.7124938964844" y="-359.4919738769531"/>
      <point x="373.0" y="-367.0" type="curve"/>
      <point x="354.0" y="-377.0"/>
      <point x="344.0" y="-399.0"/>
      <point x="344.0" y="-420.0" type="curve" smooth="yes"/>
      <point x="344.0" y="-471.0"/>
      <point x="381.0" y="-483.0"/>
      <point x="420.0" y="-483.0" type="curve" smooth="yes"/>
      <point x="567.0" y="-483.0"/>
      <point x="846.0" y="-471.0"/>
      <point x="846.0" y="-256.0" type="curve" smooth="yes"/>
      <point x="846.0" y="-170.0"/>
      <point x="791.0" y="-76.0"/>
      <point x="679.290013935332" y="-42.93384412485827" type="curve" smooth="yes"/>
      <point x="672.2463065496061" y="-40.84890673868338"/>
      <point x="666.0" y="-32.4858"/>
      <point x="666.0" y="-25.14" type="curve" smooth="yes"/>
      <point x="666.0" y="-19.86" type="line" smooth="yes"/>
      <point x="666.0" y="-12.514199999999999"/>
      <point x="672.4394230436492" y="-5.015808705119114"/>
      <point x="679.7009000928707" y="-3.9059759683385398" type="curve" smooth="yes"/>
      <point x="895.0" y="29.0"/>
      <point x="952.0" y="180.0"/>
      <point x="952.0" y="225.0" type="curve" smooth="yes"/>
      <point x="952.0" y="236.0"/>
      <point x="946.0" y="281.0"/>
      <point x="881.0" y="281.0" type="curve" smooth="yes"/>
      <point x="821.0" y="281.0"/>
      <point x="821.0" y="252.0"/>
      <point x="801.0" y="213.0" type="curve"/>
      <point x="768.0" y="156.0"/>
      <point x="705.0" y="117.0"/>
      <point x="614.0" y="117.0" type="curve" smooth="yes"/>
      <point x="420.0" y="117.0"/>
      <point x="291.0" y="274.0"/>
      <point x="291.0" y="442.0" type="curve" smooth="yes"/>
      <point x="291.0" y="588.0"/>
      <point x="391.0" y="772.0"/>
      <point x="610.0" y="772.0" type="curve" smooth="yes"/>
      <point x="694.0" y="772.0"/>
      <point x="721.0" y="768.0"/>
      <point x="742.1834836413592" y="764.861706127206" type="curve" smooth="yes"/>
      <point x="745.2662373114388" y="764.4050018797868"/>
      <point x="748.0" y="761.2364"/>
      <point x="748.0" y="758.12" type="curve" smooth="yes"/>
      <point x="748.0" y="750.0" type="line" smooth="yes"/>
      <point x="748.0" y="686.0"/>
      <point x="795.0" y="655.0"/>
      <point x="838.0" y="655.0" type="curve" smooth="yes"/>
      <point x="893.0" y="655.0"/>
      <point x="928.0" y="700.0"/>
      <point x="928.0" y="752.0" type="curve" smooth="yes"/>
      <point x="928.0" y="868.0"/>
      <point x="795.0" y="899.0"/>
      <point x="612.0" y="899.0" type="curve" smooth="yes"/>
      <point x="281.0" y="899.0"/>
      <point x="147.0" y="629.0"/>
    </contour>
  </outline>
</glyph>
<glyph name="uni04AF" format="2">
  <advance width="1228"/>
  <unicode hex="04AF"/>
  <outline>
    <contour>
      <point x="113.0" y="788.0" type="curve" smooth="yes"/>
      <point x="149.54" y="788.0" type="line" smooth="yes"/>
      <point x="163.5638" y="788.0"/>
      <point x="181.32565931721314" y="776.7618318540351"/>
      <point x="187.33119003662372" y="764.0890039447555" type="curve" smooth="yes"/>
      <point x="518.4445532215443" y="65.37595656280186" type="line" smooth="yes"/>
      <point x="529.3389400141258" y="42.386699584516876"/>
      <point x="539.0" y="-0.5599999999999987"/>
      <point x="539.0" y="-26.0" type="curve" smooth="yes"/>
      <point x="539.0" y="-209.0" type="line" smooth="yes"/>
      <point x="539.0" y="-234.44"/>
      <point x="516.44" y="-257.0"/>
      <point x="491.0" y="-257.0" type="curve" smooth="yes"/>
      <point x="326.0" y="-257.0" type="line" smooth="yes"/>
      <point x="303.3330078125" y="-257.0"/>
      <point x="287.1669921875" y="-262.0"/>
      <point x="277.5" y="-272.0" type="curve" smooth="yes"/>
      <point x="267.8330078125" y="-282.0"/>
      <point x="263.0" y="-299.6669921875"/>
      <point x="263.0" y="-325.0" type="curve" smooth="yes"/>
      <point x="263.0" y="-350.3330078125"/>
      <point x="267.8330078125" y="-368.0"/>
      <point x="277.5" y="-378.0" type="curve" smooth="yes"/>
      <point x="287.1669921875" y="-388.0"/>
      <point x="303.3330078125" y="-393.0"/>
      <point x="326.0" y="-393.0" type="curve" smooth="yes"/>
      <point x="902.0" y="-393.0" type="line" smooth="yes"/>
      <point x="924.6669921875" y="-393.0"/>
      <point x="940.8330078125" y="-388.0"/>
      <point x="950.5" y="-378.0" type="curve" smooth="yes"/>
      <point x="960.1669921875" y="-368.0"/>
      <point x="965.0" y="-350.3330078125"/>
      <point x="965.0" y="-325.0" type="curve" smooth="yes"/>
      <point x="965.0" y="-299.6669921875"/>
      <point x="960.1669921875" y="-282.0"/>
      <point x="950.5" y="-272.0" type="curve" smooth="yes"/>
      <point x="940.8330078125" y="-262.0"/>
      <point x="924.6669921875" y="-257.0"/>
      <point x="902.0" y="-257.0" type="curve" smooth="yes"/>
      <point x="737.0" y="-257.0" type="line" smooth="yes"/>
      <point x="711.56" y="-257.0"/>
      <point x="689.0" y="-234.44"/>
      <point x="689.0" y="-209.0" type="curve" smooth="yes"/>
      <point x="689.0" y="-26.0" type="line" smooth="yes"/>
      <point x="689.0" y="-0.5599999999999987"/>
      <point x="698.6610599858742" y="42.386699584516876"/>
      <point x="709.5554467784557" y="65.37595656280186" type="curve" smooth="yes"/>
      <point x="1040.6688099633764" y="764.0890039447555" type="line" smooth="yes"/>
      <point x="1046.6743406827868" y="776.7618318540351"/>
      <point x="1064.4362" y="788.0"/>
      <point x="1078.46" y="788.0" type="curve" smooth="yes"/>
      <point x="1115.0" y="788.0" type="line" smooth="yes"/>
      <point x="1137.6700439453125" y="788.0"/>
      <point x="1153.8299560546875" y="793.0"/>
      <point x="1163.5" y="803.0" type="curve" smooth="yes"/>
      <point x="1173.1700439453125" y="813.0"/>
      <point x="1178.0" y="830.6669921875"/>
      <point x="1178.0" y="856.0" type="curve" smooth="yes"/>
      <point x="1178.0" y="881.3330078125"/>
      <point x="1173.1700439453125" y="899.0"/>
      <point x="1163.5" y="909.0" type="curve" smooth="yes"/>
      <point x="1153.8299560546875" y="919.0"/>
      <point x="1137.6700439453125" y="924.0"/>
      <point x="1115.0" y="924.0" type="curve" smooth="yes"/>
      <point x="801.0" y="924.0" type="line" smooth="yes"/>
      <point x="778.3330078125" y="924.0"/>
      <point x="762.1669921875" y="919.0"/>
      <point x="752.5" y="909.0" type="curve" smooth="yes"/>
      <point x="742.8330078125" y="899.0"/>
      <point x="738.0" y="881.3330078125"/>
      <point x="738.0" y="856.0" type="curve" smooth="yes"/>
      <point x="738.0" y="830.6669921875"/>
      <point x="742.8330078125" y="813.0"/>
      <point x="752.5" y="803.0" type="curve" smooth="yes"/>
      <point x="762.1669921875" y="793.0"/>
      <point x="778.3330078125" y="788.0"/>
      <point x="801.0" y="788.0" type="curve" smooth="yes"/>
      <point x="851.46" y="788.0" type="line" smooth="yes"/>
      <point x="870.8262" y="788.0"/>
      <point x="881.0766740696066" y="772.2835447857494"/>
      <point x="873.2695192970355" y="754.560733586701" type="curve" smooth="yes"/>
      <point x="633.3503851598878" y="209.92678674981812" type="line" smooth="yes"/>
      <point x="623.0946810251472" y="186.64558977241452"/>
      <point x="604.9053189748528" y="186.64558977241452"/>
      <point x="594.6496148401122" y="209.92678674981812" type="curve" smooth="yes"/>
      <point x="354.73048070296454" y="754.560733586701" type="line" smooth="yes"/>
      <point x="346.92332593039333" y="772.2835447857494"/>
      <point x="357.1738" y="788.0"/>
      <point x="376.54" y="788.0" type="curve" smooth="yes"/>
      <point x="427.0" y="788.0" type="line" smooth="yes"/>
      <point x="449.6669921875" y="788.0"/>
      <point x="465.8330078125" y="793.0"/>
      <point x="475.5" y="803.0" type="curve" smooth="yes"/>
      <point x="485.1669921875" y="813.0"/>
      <point x="490.0" y="830.6669921875"/>
      <point x="490.0" y="856.0" type="curve" smooth="yes"/>
      <point x="490.0" y="881.3330078125"/>
      <point x="485.1669921875" y="899.0"/>
      <point x="475.5" y="909.0" type="curve" smooth="yes"/>
      <point x="465.8330078125" y="919.0"/>
      <point x="449.6669921875" y="924.0"/>
      <point x="427.0" y="924.0" type="curve" smooth="yes"/>
      <point x="113.0" y="924.0" type="line" smooth="yes"/>
      <point x="90.33329772949219" y="924.0"/>
      <point x="74.16670227050781" y="919.0"/>
      <point x="64.5" y="909.0" type="curve" smooth="yes"/>
      <point x="54.83330154418945" y="899.0"/>
      <point x="50.0" y="881.3330078125"/>
      <point x="50.0" y="856.0" type="curve" smooth="yes"/>
      <point x="50.0" y="830.6669921875"/>
      <point x="54.83330154418945" y="813.0"/>
      <point x="64.5" y="803.0" type="curve" smooth="yes"/>
      <point x="74.16670227050781" y="793.0"/>
      <point x="90.33329772949219" y="788.0"/>
    </contour>
  </outline>
</glyph>
<glyph name="uni04BC" format="2">
  <advance width="1228"/>
  <unicode hex="04BC"/>
  <outline>
    <contour>
      <point x="35.0" y="922.0" type="curve" smooth="yes"/>
      <point x="35.0" y="801.0"/>
      <point x="88.0" y="639.0"/>
      <point x="240.7312589020184" y="604.3690750164028" type="curve" smooth="yes"/>
      <point x="250.94369168394866" y="602.0534652577093"/>
      <point x="260.3948" y="590.7222"/>
      <point x="260.84" y="580.26" type="curve" smooth="yes"/>
      <point x="262.0" y="553.0"/>
      <point x="264.0" y="510.0"/>
      <point x="270.0" y="467.0" type="curve" smooth="yes"/>
      <point x="311.0" y="217.0"/>
      <point x="461.0" y="-23.0"/>
      <point x="690.0" y="-23.0" type="curve" smooth="yes"/>
      <point x="905.0" y="-23.0"/>
      <point x="1053.0" y="127.0"/>
      <point x="1053.0" y="225.0" type="curve" smooth="yes"/>
      <point x="1053.0" y="264.0"/>
      <point x="1026.0" y="281.0"/>
      <point x="981.0" y="281.0" type="curve" smooth="yes"/>
      <point x="922.0" y="281.0"/>
      <point x="915.0" y="242.0"/>
      <point x="905.0" y="223.0" type="curve" smooth="yes"/>
      <point x="872.0" y="152.0"/>
      <point x="791.0" y="104.0"/>
      <point x="702.0" y="104.0" type="curve" smooth="yes"/>
      <point x="688.0" y="104.0"/>
      <point x="641.0" y="104.0"/>
      <point x="586.0" y="147.0" type="curve" smooth="yes"/>
      <point x="471.0" y="236.0"/>
      <point x="408.0" y="416.0"/>
      <point x="404.3630864171055" y="544.0193581178878" type="curve" smooth="yes"/>
      <point x="403.6406506160396" y="569.4490983154072"/>
      <point x="425.56" y="592.0"/>
      <point x="451.0" y="592.0" type="curve" smooth="yes"/>
      <point x="979.0" y="592.0" type="line" smooth="yes"/>
      <point x="1016.0" y="592.0"/>
      <point x="1055.0" y="596.0"/>
      <point x="1055.0" y="668.0" type="curve" smooth="yes"/>
      <point x="1055.0" y="1155.0"/>
      <point x="823.0" y="1274.0"/>
      <point x="668.0" y="1274.0" type="curve" smooth="yes"/>
      <point x="446.0" y="1274.0"/>
      <point x="291.0" y="1016.0"/>
      <point x="266.0933457890046" y="754.941365121789" type="curve" smooth="yes"/>
      <point x="264.98387252083216" y="743.3124416072408"/>
      <point x="255.117" y="738.3298"/>
      <point x="245.1" y="744.34" type="curve" smooth="yes"/>
      <point x="219.0" y="760.0"/>
      <point x="197.0" y="797.0"/>
      <point x="184.0" y="860.0" type="curve"/>
      <point x="190.0" y="864.0"/>
      <point x="217.0" y="889.0"/>
      <point x="217.0" y="930.0" type="curve" smooth="yes"/>
      <point x="217.0" y="979.0"/>
      <point x="180.0" y="1022.0"/>
      <point x="127.0" y="1022.0" type="curve" smooth="yes"/>
      <point x="94.0" y="1022.0"/>
      <point x="35.0" y="1001.0"/>
    </contour>
    <contour>
      <point x="456.0" y="717.0" type="line" smooth="yes"/>
      <point x="430.56" y="717.0"/>
      <point x="409.46818533851666" y="739.5121751905889"/>
      <point x="411.1237985925886" y="764.8982450863593" type="curve" smooth="yes"/>
      <point x="420.0" y="901.0"/>
      <point x="516.0" y="1147.0"/>
      <point x="668.0" y="1147.0" type="curve" smooth="yes"/>
      <point x="766.0" y="1147.0"/>
      <point x="893.0" y="1067.0"/>
      <point x="908.534686669615" y="764.9366480908191" type="curve" smooth="yes"/>
      <point x="909.8413027347191" y="739.5302246026849"/>
      <point x="888.44" y="717.0"/>
      <point x="863.0" y="717.0" type="curve" smooth="yes"/>
    </contour>
  </outline>
</glyph>
<glyph name="uni04D5" format="2">
  <advance width="1228"/>
  <unicode hex="04D5"/>
  <outline>
    <contour>
      <point x="66.0" y="244.0" type="curve" smooth="yes"/>
      <point x="66.0" y="127.0"/>
      <point x="150.0" y="-10.0"/>
      <point x="301.0" y="-10.0" type="curve" smooth="yes"/>
      <point x="461.0" y="-10.0"/>
      <point x="539.0" y="90.0"/>
      <point x="555.24" y="112.62" type="curve" smooth="yes"/>
      <point x="561.4728" y="121.3014"/>
      <point x="572.1694250858137" y="121.05673706326178"/>
      <point x="577.9987767783272" y="112.09944056013143" type="curve" smooth="yes"/>
      <point x="608.0" y="66.0"/>
      <point x="688.0" y="-10.0"/>
      <point x="799.0" y="-10.0" type="curve" smooth="yes"/>
      <point x="946.0" y="-10.0"/>
      <point x="1032.0" y="152.0"/>
      <point x="1032.0" y="223.0" type="curve" smooth="yes"/>
      <point x="1032.0" y="260.0"/>
      <point x="1001.0" y="281.0"/>
      <point x="975.0" y="281.0" type="curve" smooth="yes"/>
      <point x="954.0" y="281.0"/>
      <point x="934.0" y="268.0"/>
      <point x="924.0" y="246.0" type="curve"/>
      <point x="915.0" y="229.0"/>
      <point x="893.0" y="117.0"/>
      <point x="807.0" y="117.0" type="curve" smooth="yes"/>
      <point x="737.0" y="117.0"/>
      <point x="625.0" y="190.0"/>
      <point x="604.3903647382575" y="343.4272847263052" type="curve" smooth="yes"/>
      <point x="601.003471426981" y="368.6408238213634"/>
      <point x="620.56" y="391.0"/>
      <point x="646.0" y="391.0" type="curve" smooth="yes"/>
      <point x="961.0" y="391.0" type="line" smooth="yes"/>
      <point x="989.0" y="391.0"/>
      <point x="1032.0" y="395.0"/>
      <point x="1032.0" y="467.0" type="curve" smooth="yes"/>
      <point x="1032.0" y="815.0"/>
      <point x="881.0" y="899.0"/>
      <point x="778.0" y="899.0" type="curve" smooth="yes"/>
      <point x="664.0" y="899.0"/>
      <point x="590.0" y="809.0"/>
      <point x="568.2025883938486" y="771.3499254075567" type="curve" smooth="yes"/>
      <point x="562.2652165451088" y="761.0944649415517"/>
      <point x="552.065" y="761.2778"/>
      <point x="546.5" y="771.74" type="curve" smooth="yes"/>
      <point x="532.0" y="799.0"/>
      <point x="463.0" y="899.0"/>
      <point x="324.0" y="899.0" type="curve" smooth="yes"/>
      <point x="125.0" y="899.0"/>
      <point x="84.0" y="811.0"/>
      <point x="84.0" y="754.0" type="curve" smooth="yes"/>
      <point x="84.0" y="702.0"/>
      <point x="117.0" y="655.0"/>
      <point x="174.0" y="655.0" type="curve" smooth="yes"/>
      <point x="215.0" y="655.0"/>
      <point x="264.0" y="686.0"/>
      <point x="264.0" y="750.0" type="curve" smooth="yes"/>
      <point x="264.0" y="756.0"/>
      <point x="264.0" y="762.0"/>
      <point x="262.0" y="770.0" type="curve"/>
      <point x="283.0" y="772.0"/>
      <point x="299.0" y="772.0"/>
      <point x="315.0" y="772.0" type="curve" smooth="yes"/>
      <point x="346.0" y="772.0"/>
      <point x="375.0" y="768.0"/>
      <point x="401.0" y="750.0" type="curve" smooth="yes"/>
      <point x="479.6494140625" y="696.2882080078125"/>
      <point x="479.18328857421875" y="605.7785034179688"/>
      <point x="479.0138854980469" y="572.8831787109375" type="curve" smooth="yes"/>
      <point x="479.0066833496094" y="571.4818115234375"/>
      <point x="479.0" y="570.1849365234375"/>
      <point x="479.0" y="569.0" type="curve" smooth="yes"/>
      <point x="479.0" y="523.7899618319993" type="line" smooth="yes"/>
      <point x="479.0" y="517.5412820610397"/>
      <point x="473.4728" y="511.6052"/>
      <point x="467.24" y="511.16" type="curve" smooth="yes"/>
      <point x="451.0" y="510.0"/>
      <point x="422.0" y="508.0"/>
      <point x="393.0" y="504.0" type="curve" smooth="yes"/>
      <point x="88.0" y="467.0"/>
      <point x="66.0" y="297.0"/>
    </contour>
    <contour>
      <point x="182.0" y="244.0" type="curve" smooth="yes"/>
      <point x="182.0" y="369.0"/>
      <point x="412.0" y="385.0"/>
      <point x="463.4669189673955" y="386.53632593932525" type="curve" smooth="yes"/>
      <point x="471.6994519146759" y="386.7820731914829"/>
      <point x="479.0" y="379.6962"/>
      <point x="479.0" y="371.46" type="curve" smooth="yes"/>
      <point x="479.0" y="350.0"/>
      <point x="477.0" y="303.0"/>
      <point x="477.0" y="279.0" type="curve" smooth="yes"/>
      <point x="477.0" y="260.0" type="line" smooth="yes"/>
      <point x="477.0" y="143.0"/>
      <point x="367.0" y="115.0"/>
      <point x="315.0" y="115.0" type="curve" smooth="yes"/>
      <point x="229.0" y="115.0"/>
      <point x="182.0" y="182.0"/>
    </contour>
    <contour>
      <point x="648.0" y="516.0" type="line" smooth="yes"/>
      <point x="622.56" y="516.0"/>
      <point x="603.1332396461229" y="538.3413609549634"/>
      <point x="606.6664673321765" y="563.5348105424754" type="curve" smooth="yes"/>
      <point x="623.0" y="680.0"/>
      <point x="705.0" y="772.0"/>
      <point x="776.0" y="772.0" type="curve" smooth="yes"/>
      <point x="840.0" y="772.0"/>
      <point x="905.0" y="702.0"/>
      <point x="912.4230764598109" y="563.9307778475169" type="curve" smooth="yes"/>
      <point x="913.7888459361111" y="538.5274655883329"/>
      <point x="892.44" y="516.0"/>
      <point x="867.0" y="516.0" type="curve" smooth="yes"/>
    </contour>
  </outline>
</glyph>
<glyph name="uni04E0" format="2">
  <advance width="1228"/>
  <unicode hex="04E0"/>
  <outline>
    <contour>
      <point x="80.0" y="264.0" type="curve" smooth="yes"/>
      <point x="80.0" y="150.0"/>
      <point x="152.0" y="-23.0"/>
      <point x="512.0" y="-23.0" type="curve" smooth="yes"/>
      <point x="823.0" y="-23.0"/>
      <point x="993.0" y="180.0"/>
      <point x="993.0" y="362.0" type="curve" smooth="yes"/>
      <point x="993.0" y="561.0"/>
      <point x="815.0" y="719.0"/>
      <point x="635.6882125511145" y="739.5379139809296" type="curve" smooth="yes"/>
      <point x="610.4134598990238" y="742.4328195710369"/>
      <point x="603.8863656819249" y="761.0180206461397"/>
      <point x="621.8007780466487" y="779.0808949917866" type="curve" smooth="yes"/>
      <point x="950.0" y="1110.0" type="line" smooth="yes"/>
      <point x="983.0" y="1143.0"/>
      <point x="987.0" y="1153.0"/>
      <point x="987.0" y="1182.0" type="curve" smooth="yes"/>
      <point x="987.0" y="1237.0"/>
      <point x="952.0" y="1251.0"/>
      <point x="922.0" y="1251.0" type="curve" smooth="yes"/>
      <point x="156.0" y="1251.0" type="line" smooth="yes"/>
      <point x="121.0" y="1251.0"/>
      <point x="78.0" y="1243.0"/>
      <point x="80.0" y="1178.0" type="curve" smooth="yes"/>
      <point x="80.0" y="946.0" type="line" smooth="yes"/>
      <point x="78.0" y="889.0"/>
      <point x="113.0" y="872.0"/>
      <point x="147.0" y="872.0" type="curve" smooth="yes"/>
      <point x="150.0" y="872.0" type="line" smooth="yes"/>
      <point x="223.7313232421875" y="872.0"/>
      <point x="223.19363403320312" y="928.847900390625"/>
      <point x="223.01512145996094" y="947.7219848632812" type="curve" smooth="yes"/>
      <point x="223.0072021484375" y="948.5587158203125"/>
      <point x="223.0" y="949.32080078125"/>
      <point x="223.0" y="950.0" type="curve" smooth="yes"/>
      <point x="223.0" y="1087.0" type="line" smooth="yes"/>
      <point x="223.0" y="1112.44"/>
      <point x="245.56" y="1135.0"/>
      <point x="271.0" y="1135.0" type="curve" smooth="yes"/>
      <point x="740.0" y="1135.0" type="line" smooth="yes"/>
      <point x="765.44" y="1135.0"/>
      <point x="772.0904958297247" y="1119.0049608610673"/>
      <point x="754.1499911270737" y="1100.968001832058" type="curve" smooth="yes"/>
      <point x="602.0" y="948.0" type="line" smooth="yes"/>
      <point x="356.0" y="698.0"/>
      <point x="334.0" y="698.0"/>
      <point x="334.0" y="651.0" type="curve" smooth="yes"/>
      <point x="334.0" y="623.0"/>
      <point x="350.0" y="588.0"/>
      <point x="401.0" y="588.0" type="curve" smooth="yes"/>
      <point x="403.0" y="588.0" type="line" smooth="yes"/>
      <point x="455.0" y="588.0"/>
      <point x="426.0" y="604.0"/>
      <point x="516.0" y="604.0" type="curve" smooth="yes"/>
      <point x="729.0" y="604.0"/>
      <point x="850.0" y="473.0"/>
      <point x="850.0" y="362.0" type="curve" smooth="yes"/>
      <point x="850.0" y="246.0"/>
      <point x="733.0" y="102.0"/>
      <point x="514.0" y="102.0" type="curve" smooth="yes"/>
      <point x="307.0" y="102.0"/>
      <point x="256.0" y="170.0"/>
      <point x="239.7945356475916" y="201.6006554871964" type="curve" smooth="yes"/>
      <point x="237.78343175436805" y="205.52230807898232"/>
      <point x="238.7636" y="211.7636"/>
      <point x="241.88" y="214.88" type="curve" smooth="yes"/>
      <point x="250.0" y="223.0"/>
      <point x="262.0" y="240.0"/>
      <point x="262.0" y="272.0" type="curve" smooth="yes"/>
      <point x="262.0" y="328.0"/>
      <point x="217.0" y="362.0"/>
      <point x="172.0" y="362.0" type="curve" smooth="yes"/>
      <point x="139.0" y="362.0"/>
      <point x="80.0" y="344.0"/>
    </contour>
  </outline>
</glyph>
<glyph name="uni04F6" format="2">
  <advance width="1228"/>
  <unicode hex="04F6"/>
  <outline>
    <contour>
      <point x="92.0" y="63.0" type="curve" smooth="yes"/>
      <point x="92.0" y="35.0"/>
      <point x="104.0" y="2.0"/>
      <point x="160.0" y="0.0" type="curve" smooth="yes"/>
      <point x="538.0" y="0.0" type="line" smooth="yes"/>
      <point x="563.44" y="0.0"/>
      <point x="586.0" y="-22.56"/>
      <point x="586.0" y="-48.0" type="curve" smooth="yes"/>
      <point x="586.0" y="-268.0" type="line" smooth="yes"/>
      <point x="586.0" y="-291.0"/>
      <point x="590.0" y="-338.0"/>
      <point x="643.0" y="-340.0" type="curve" smooth="yes"/>
      <point x="692.0" y="-340.0"/>
      <point x="700.0" y="-303.0"/>
      <point x="700.0" y="-264.0" type="curve" smooth="yes"/>
      <point x="700.0" y="47.0" type="line" smooth="yes"/>
      <point x="700.0" y="127.0"/>
      <point x="668.0" y="127.0"/>
      <point x="604.0" y="127.0" type="curve" smooth="yes"/>
      <point x="476.0" y="127.0" type="line" smooth="yes"/>
      <point x="450.56" y="127.0"/>
      <point x="428.0" y="149.56"/>
      <point x="428.0" y="175.0" type="curve" smooth="yes"/>
      <point x="428.0" y="1076.0" type="line" smooth="yes"/>
      <point x="428.0" y="1101.44"/>
      <point x="450.56" y="1124.0"/>
      <point x="476.0" y="1124.0" type="curve" smooth="yes"/>
      <point x="792.0" y="1124.0" type="line" smooth="yes"/>
      <point x="817.44" y="1124.0"/>
      <point x="840.0" y="1101.44"/>
      <point x="840.0" y="1076.0" type="curve" smooth="yes"/>
      <point x="840.0" y="999.0" type="line" smooth="yes"/>
      <point x="842.0" y="936.0"/>
      <point x="881.0" y="932.0"/>
      <point x="913.0" y="932.0" type="curve" smooth="yes"/>
      <point x="918.0" y="932.0" type="line" smooth="yes"/>
      <point x="948.0" y="932.0"/>
      <point x="983.0" y="944.0"/>
      <point x="983.0" y="1001.0" type="curve" smooth="yes"/>
      <point x="983.0" y="1174.0" type="line" smooth="yes"/>
      <point x="983.0" y="1174.583984375"/>
      <point x="983.0011596679688" y="1175.185302734375"/>
      <point x="983.0023803710938" y="1175.802490234375" type="curve" smooth="yes"/>
      <point x="983.0511474609375" y="1200.548095703125"/>
      <point x="983.1505126953125" y="1251.0"/>
      <point x="909.0" y="1251.0" type="curve" smooth="yes"/>
      <point x="166.0" y="1251.0" type="line" smooth="yes"/>
      <point x="129.0" y="1251.0"/>
      <point x="92.0" y="1241.0"/>
      <point x="92.0" y="1188.0" type="curve" smooth="yes"/>
      <point x="92.0" y="1126.0"/>
      <point x="141.0" y="1124.0"/>
      <point x="172.0" y="1124.0" type="curve" smooth="yes"/>
      <point x="237.54" y="1124.0" type="line" smooth="yes"/>
      <point x="262.6938" y="1124.0"/>
      <point x="285.0" y="1101.6938"/>
      <point x="285.0" y="1076.54" type="curve" smooth="yes"/>
      <point x="285.0" y="175.0" type="line" smooth="yes"/>
      <point x="285.0" y="149.56"/>
      <point x="262.44" y="127.0"/>
      <point x="237.0" y="127.0" type="curve" smooth="yes"/>
      <point x="168.0" y="127.0" type="line" smooth="yes"/>
      <point x="139.0" y="127.0"/>
      <point x="92.0" y="123.0"/>
    </contour>
  </outline>
</glyph>
<glyph name="uni04FC" format="2">
  <advance width="1228"/>
  <unicode hex="04FC"/>
  <outline>
    <contour>
      <point x="55.0" y="63.0" type="curve" smooth="yes"/>
      <point x="55.0" y="33.0"/>
      <point x="72.0" y="0.0"/>
      <point x="127.0" y="0.0" type="curve" smooth="yes"/>
      <point x="360.0" y="0.0" type="line" smooth="yes"/>
      <point x="401.0" y="0.0"/>
      <point x="436.0" y="12.0"/>
      <point x="436.0" y="63.0" type="curve" smooth="yes"/>
      <point x="436.0" y="115.0"/>
      <point x="399.0" y="127.0"/>
      <point x="365.0" y="127.0" type="curve" smooth="yes"/>
      <point x="350.5" y="127.0" type="line" smooth="yes"/>
      <point x="344.935" y="127.0"/>
      <point x="342.1199523701004" y="131.4564590145659"/>
      <point x="344.5105369576604" y="136.48182769056575" type="curve" smooth="yes"/>
      <point x="505.3804024792666" y="474.6545019859852" type="line" smooth="yes"/>
      <point x="516.3087891652553" y="497.62761593341304"/>
      <point x="536.2814555614488" y="497.9190321065454"/>
      <point x="547.8754373647846" y="475.2745363969051" type="curve" smooth="yes"/>
      <point x="782.0" y="18.0"/>
      <point x="801.0" y="-16.0"/>
      <point x="801.0" y="-59.0" type="curve" smooth="yes"/>
      <point x="801.0" y="-84.0" type="line" smooth="yes"/>
      <point x="801.0" y="-231.0"/>
      <point x="741.0" y="-340.0"/>
      <point x="651.0" y="-340.0" type="curve" smooth="yes"/>
      <point x="629.0" y="-340.0"/>
      <point x="604.0" y="-336.0"/>
      <point x="575.7775898150207" y="-329.1582035915202" type="curve" smooth="yes"/>
      <point x="573.2454672130598" y="-328.5443556880145"/>
      <point x="571.7896" y="-325.8286"/>
      <point x="572.68" y="-323.38" type="curve" smooth="yes"/>
      <point x="575.0" y="-317.0"/>
      <point x="578.0" y="-307.0"/>
      <point x="578.0" y="-295.0" type="curve" smooth="yes"/>
      <point x="578.0" y="-242.0"/>
      <point x="535.0" y="-205.0"/>
      <point x="487.0" y="-205.0" type="curve" smooth="yes"/>
      <point x="430.0" y="-205.0"/>
      <point x="395.0" y="-248.0"/>
      <point x="395.0" y="-299.0" type="curve" smooth="yes"/>
      <point x="395.0" y="-367.0"/>
      <point x="449.0" y="-465.0"/>
      <point x="659.0" y="-465.0" type="curve" smooth="yes"/>
      <point x="838.0" y="-465.0"/>
      <point x="952.0" y="-287.0"/>
      <point x="952.0" y="-98.0" type="curve" smooth="yes"/>
      <point x="952.0" y="2.0"/>
      <point x="909.0" y="86.0"/>
      <point x="872.0" y="156.0" type="curve" smooth="yes"/>
      <point x="827.0" y="238.0"/>
      <point x="610.0" y="641.0"/>
      <point x="603.04" y="656.66" type="curve" smooth="yes"/>
      <point x="600.3688" y="662.6702"/>
      <point x="600.6175105638517" y="673.212160773434"/>
      <point x="603.5691714124505" y="679.0897037732639" type="curve" smooth="yes"/>
      <point x="815.6907263267932" y="1101.4802236026974" type="line" smooth="yes"/>
      <point x="821.6846413735929" y="1113.4157050932677"/>
      <point x="838.844" y="1124.0"/>
      <point x="852.2" y="1124.0" type="curve" smooth="yes"/>
      <point x="887.0" y="1124.0" type="line" smooth="yes"/>
      <point x="905.0" y="1124.0"/>
      <point x="956.0" y="1128.0"/>
      <point x="956.0" y="1188.0" type="curve" smooth="yes"/>
      <point x="956.0" y="1219.0"/>
      <point x="942.0" y="1251.0"/>
      <point x="885.0" y="1251.0" type="curve" smooth="yes"/>
      <point x="653.0" y="1251.0" type="line" smooth="yes"/>
      <point x="586.0" y="1251.0"/>
      <point x="575.0" y="1210.0"/>
      <point x="575.0" y="1188.0" type="curve" smooth="yes"/>
      <point x="575.0" y="1165.0"/>
      <point x="586.0" y="1126.0"/>
      <point x="647.0" y="1124.0" type="curve" smooth="yes"/>
      <point x="660.34" y="1124.0" type="line" smooth="yes"/>
      <point x="665.4598" y="1124.0"/>
      <point x="668.008379123391" y="1119.919943343058"/>
      <point x="665.7625087731725" y="1115.3190283894853" type="curve" smooth="yes"/>
      <point x="547.0558570277141" y="872.1352626609421" type="line" smooth="yes"/>
      <point x="535.8962528030256" y="849.2735734506427"/>
      <point x="515.5067139494496" y="848.9710928058863"/>
      <point x="503.673859466914" y="871.4916868210347" type="curve" smooth="yes"/>
      <point x="373.73495221530305" y="1118.7947683644234" type="line" smooth="yes"/>
      <point x="372.28542754119246" y="1121.553541131279"/>
      <point x="373.7636" y="1124.0"/>
      <point x="376.88" y="1124.0" type="curve" smooth="yes"/>
      <point x="385.0" y="1124.0" type="line" smooth="yes"/>
      <point x="442.0" y="1124.0"/>
      <point x="459.0" y="1157.0"/>
      <point x="459.0" y="1188.0" type="curve" smooth="yes"/>
      <point x="459.0" y="1221.0"/>
      <point x="442.0" y="1251.0"/>
      <point x="385.0" y="1251.0" type="curve" smooth="yes"/>
      <point x="154.0" y="1251.0" type="line" smooth="yes"/>
      <point x="90.0" y="1251.0"/>
      <point x="78.0" y="1212.0"/>
      <point x="78.0" y="1188.0" type="curve" smooth="yes"/>
      <point x="78.0" y="1163.0"/>
      <point x="88.0" y="1126.0"/>
      <point x="150.0" y="1124.0" type="curve" smooth="yes"/>
      <point x="176.0" y="1124.0" type="line" smooth="yes"/>
      <point x="203.0" y="1124.0"/>
      <point x="207.0" y="1124.0"/>
      <point x="219.0" y="1104.0" type="curve" smooth="yes"/>
      <point x="395.0" y="776.0" type="line" smooth="yes"/>
      <point x="432.0" y="702.0"/>
      <point x="449.0" y="684.0"/>
      <point x="449.0" y="666.0" type="curve" smooth="yes"/>
      <point x="449.0" y="659.0"/>
      <point x="446.0" y="653.0"/>
      <point x="442.0" y="645.0" type="curve" smooth="yes"/>
      <point x="193.54969232471973" y="146.1734132721117" type="line" smooth="yes"/>
      <point x="188.48835539261827" y="136.0115042378925"/>
      <point x="173.9326" y="127.0"/>
      <point x="162.58" y="127.0" type="curve" smooth="yes"/>
      <point x="133.0" y="127.0" type="line" smooth="yes"/>
      <point x="98.0" y="127.0"/>
      <point x="55.0" y="119.0"/>
    </contour>
  </outline>
</glyph>
<glyph name="uni04FD" format="2">
  <advance width="1228"/>
  <unicode hex="04FD"/>
  <outline>
    <contour>
      <point x="55.0" y="63.0" type="curve" smooth="yes"/>
      <point x="55.0" y="12.0"/>
      <point x="92.0" y="0.0"/>
      <point x="127.0" y="0.0" type="curve" smooth="yes"/>
      <point x="383.0" y="0.0" type="line" smooth="yes"/>
      <point x="401.0" y="0.0"/>
      <point x="420.0" y="0.0"/>
      <point x="434.0" y="10.0" type="curve" smooth="yes"/>
      <point x="451.0" y="23.0"/>
      <point x="461.0" y="45.0"/>
      <point x="461.0" y="66.0" type="curve" smooth="yes"/>
      <point x="461.0" y="96.0"/>
      <point x="440.0" y="127.0"/>
      <point x="389.0" y="127.0" type="curve" smooth="yes"/>
      <point x="369.86" y="127.0" type="line" smooth="yes"/>
      <point x="362.5142" y="127.0"/>
      <point x="359.72128141876595" y="132.3466687051235"/>
      <point x="363.9176200399276" y="138.37589086196493" type="curve" smooth="yes"/>
      <point x="502.57967085739364" y="337.60297536981847" type="line" smooth="yes"/>
      <point x="517.1124453029751" y="358.48339842381466"/>
      <point x="542.9970746477825" y="358.5601070881643"/>
      <point x="557.6533503144308" y="337.7661852939665" type="curve" smooth="yes"/>
      <point x="807.0" y="-16.0"/>
      <point x="817.0" y="-6.0"/>
      <point x="817.0" y="-86.0" type="curve" smooth="yes"/>
      <point x="817.0" y="-227.0"/>
      <point x="770.0" y="-338.0"/>
      <point x="723.0" y="-338.0" type="curve" smooth="yes"/>
      <point x="715.0" y="-338.0"/>
      <point x="705.0" y="-336.0"/>
      <point x="696.0937700855707" y="-333.25962156479096" type="curve" smooth="yes"/>
      <point x="693.9240719402183" y="-332.59202213545177"/>
      <point x="692.3948" y="-330.026"/>
      <point x="692.84" y="-327.8" type="curve" smooth="yes"/>
      <point x="694.0" y="-322.0"/>
      <point x="696.0" y="-311.0"/>
      <point x="696.0" y="-297.0" type="curve" smooth="yes"/>
      <point x="696.0" y="-248.0"/>
      <point x="657.0" y="-209.0"/>
      <point x="610.0" y="-209.0" type="curve" smooth="yes"/>
      <point x="565.0" y="-209.0"/>
      <point x="520.0" y="-240.0"/>
      <point x="520.0" y="-301.0" type="curve" smooth="yes"/>
      <point x="520.0" y="-406.0"/>
      <point x="629.0" y="-465.0"/>
      <point x="721.0" y="-465.0" type="curve" smooth="yes"/>
      <point x="858.0" y="-465.0"/>
      <point x="948.0" y="-307.0"/>
      <point x="948.0" y="-76.0" type="curve" smooth="yes"/>
      <point x="948.0" y="18.0"/>
      <point x="948.0" y="10.0"/>
      <point x="606.366085307935" y="432.2974778832471" type="curve" smooth="yes"/>
      <point x="596.6320600947295" y="444.32981460512616"/>
      <point x="596.883" y="465.4622"/>
      <point x="606.9" y="477.26" type="curve" smooth="yes"/>
      <point x="633.0" y="508.0"/>
      <point x="797.0" y="731.0"/>
      <point x="817.0" y="748.0" type="curve" smooth="yes"/>
      <point x="827.3170166015625" y="756.5975341796875"/>
      <point x="841.3298950195312" y="756.324951171875"/>
      <point x="853.9546508789062" y="756.0794067382812" type="curve" smooth="yes"/>
      <point x="856.0140380859375" y="756.0393676757812"/>
      <point x="858.0364990234375" y="756.0"/>
      <point x="860.0" y="756.0" type="curve" smooth="yes"/>
      <point x="909.0" y="756.0" type="line" smooth="yes"/>
      <point x="936.0" y="756.0"/>
      <point x="985.0" y="758.0"/>
      <point x="985.0" y="819.0" type="curve" smooth="yes"/>
      <point x="985.0" y="850.0"/>
      <point x="969.0" y="881.0"/>
      <point x="911.0" y="881.0" type="curve" smooth="yes"/>
      <point x="647.0" y="881.0" type="line" smooth="yes"/>
      <point x="604.0" y="881.0"/>
      <point x="580.0" y="854.0"/>
      <point x="580.0" y="817.0" type="curve" smooth="yes"/>
      <point x="580.0" y="786.0"/>
      <point x="596.0" y="756.0"/>
      <point x="649.0" y="756.0" type="curve" smooth="yes"/>
      <point x="666.98" y="756.0" type="line" smooth="yes"/>
      <point x="673.8806" y="756.0"/>
      <point x="676.3633650595126" y="751.0784207138738"/>
      <point x="672.2624788500269" y="745.5285547103698" type="curve" smooth="yes"/>
      <point x="558.5254235943707" y="591.6044065977152" type="line" smooth="yes"/>
      <point x="543.4069490893543" y="571.1440711009261"/>
      <point x="516.3090435550606" y="570.9307365053077"/>
      <point x="500.87030543629925" y="591.1505032027823" type="curve" smooth="yes"/>
      <point x="381.6270055132419" y="747.320760521367" type="line" smooth="yes"/>
      <point x="378.1146925912237" y="751.9207574450425"/>
      <point x="380.1324" y="756.0"/>
      <point x="385.92" y="756.0" type="curve" smooth="yes"/>
      <point x="401.0" y="756.0" type="line" smooth="yes"/>
      <point x="463.0" y="756.0"/>
      <point x="473.0" y="795.0"/>
      <point x="473.0" y="817.0" type="curve" smooth="yes"/>
      <point x="473.0" y="850.0"/>
      <point x="457.0" y="881.0"/>
      <point x="399.0" y="881.0" type="curve" smooth="yes"/>
      <point x="139.0" y="881.0" type="line" smooth="yes"/>
      <point x="82.0" y="881.0"/>
      <point x="68.0" y="848.0"/>
      <point x="68.0" y="817.0" type="curve" smooth="yes"/>
      <point x="68.0" y="760.0"/>
      <point x="113.0" y="756.0"/>
      <point x="152.0" y="756.0" type="curve" smooth="yes"/>
      <point x="198.98000000000002" y="756.0" type="line" smooth="yes"/>
      <point x="217.0106" y="756.0"/>
      <point x="242.96822522209547" y="743.498184200622"/>
      <point x="254.2089898342457" y="729.4003919162169" type="curve" smooth="yes"/>
      <point x="443.0754993520343" y="492.5303112293237" type="line" smooth="yes"/>
      <point x="458.9354846954561" y="472.63924627778215"/>
      <point x="459.18717922485" y="437.16297159744414"/>
      <point x="443.61101962734045" y="417.0488757392428" type="curve" smooth="yes"/>
      <point x="240.0865934173832" y="154.2299316570933" type="line" smooth="yes"/>
      <point x="228.9106989061701" y="139.79806787883385"/>
      <point x="202.8132" y="127.0"/>
      <point x="184.56" y="127.0" type="curve" smooth="yes"/>
      <point x="137.0" y="127.0" type="line" smooth="yes"/>
      <point x="104.0" y="127.0"/>
      <point x="55.0" y="125.0"/>
    </contour>
  </outline>
</glyph>
<glyph name="uni061C" format="2">
  <advance width="1228"/>
  <unicode hex="061C"/>
  <outline>
    <contour>
      <point x="520.0" y="1450.0" type="line" smooth="yes"/>
      <point x="444.0" y="1450.0"/>
      <point x="434.0" y="1341.0"/>
      <point x="434.0" y="1290.0" type="curve" smooth="yes"/>
      <point x="434.0" y="1245.0"/>
      <point x="442.0" y="1233.0"/>
      <point x="473.0" y="1233.0" type="curve" smooth="yes"/>
      <point x="506.0" y="1233.0"/>
      <point x="514.0" y="1245.0"/>
      <point x="514.0" y="1290.0" type="curve" smooth="yes"/>
      <point x="514.0" y="1311.0"/>
      <point x="518.0" y="1329.0"/>
      <point x="521.48" y="1340.02" type="curve" smooth="yes"/>
      <point x="522.8156" y="1344.2494"/>
      <point x="527.9331671360368" y="1348.0"/>
      <point x="532.3684407149719" y="1348.0" type="curve" smooth="yes"/>
      <point x="599.0" y="1348.0" type="line" smooth="yes"/>
      <point x="624.44" y="1348.0"/>
      <point x="630.538051145331" y="1332.574117856464"/>
      <point x="611.9745769049596" y="1315.1789741626894" type="curve" smooth="yes"/>
      <point x="504.0" y="1214.0"/>
      <point x="473.0" y="1061.0"/>
      <point x="473.0" y="930.0" type="curve" smooth="yes"/>
      <point x="473.0" y="911.0"/>
      <point x="473.0" y="874.0"/>
      <point x="512.0" y="874.0" type="curve" smooth="yes"/>
      <point x="535.0" y="874.0"/>
      <point x="553.0" y="887.0"/>
      <point x="553.0" y="930.0" type="curve" smooth="yes"/>
      <point x="553.0" y="1171.0"/>
      <point x="676.0" y="1270.0"/>
      <point x="750.0" y="1325.0" type="curve"/>
      <point x="762.0" y="1333.0"/>
      <point x="770.0" y="1341.0"/>
      <point x="774.64" y="1345.06" type="curve" smooth="yes"/>
      <point x="776.4208" y="1346.6182"/>
      <point x="780.0983907834338" y="1348.0"/>
      <point x="782.4646612413486" y="1348.0" type="curve" smooth="yes"/>
      <point x="872.0" y="1348.0" type="line" smooth="yes"/>
      <point x="905.0" y="1348.0"/>
      <point x="918.0" y="1356.0"/>
      <point x="918.0" y="1399.0" type="curve" smooth="yes"/>
      <point x="918.0" y="1436.0"/>
      <point x="905.0" y="1450.0"/>
      <point x="872.0" y="1450.0" type="curve" smooth="yes"/>
    </contour>
    <contour>
      <point x="967.0" y="879.0" type="line"/>
      <point x="969.0" y="881.0"/>
      <point x="975.0" y="887.0"/>
      <point x="975.0" y="895.0" type="curve" smooth="yes"/>
      <point x="975.0" y="918.0"/>
      <point x="956.0" y="963.0"/>
      <point x="942.0" y="963.0" type="curve" smooth="yes"/>
      <point x="932.0" y="963.0"/>
      <point x="874.0" y="924.0"/>
      <point x="846.0" y="903.0" type="curve"/>
      <point x="825.0" y="893.0"/>
      <point x="801.0" y="885.0"/>
      <point x="782.0" y="885.0" type="curve" smooth="yes"/>
      <point x="735.0" y="885.0"/>
      <point x="696.0" y="915.0"/>
      <point x="696.0" y="993.0" type="curve" smooth="yes"/>
      <point x="696.0" y="1063.0"/>
      <point x="735.0" y="1102.0"/>
      <point x="752.0" y="1102.0" type="curve" smooth="yes"/>
      <point x="793.0" y="1102.0"/>
      <point x="803.0" y="1087.0"/>
      <point x="815.0" y="1075.0" type="curve"/>
      <point x="823.0" y="1065.0"/>
      <point x="829.0" y="1059.0"/>
      <point x="842.0" y="1059.0" type="curve" smooth="yes"/>
      <point x="868.0" y="1059.0"/>
      <point x="891.0" y="1085.0"/>
      <point x="891.0" y="1122.0" type="curve" smooth="yes"/>
      <point x="891.0" y="1178.0"/>
      <point x="852.0" y="1200.0"/>
      <point x="805.0" y="1200.0" type="curve" smooth="yes"/>
      <point x="727.0" y="1200.0"/>
      <point x="625.0" y="1130.0"/>
      <point x="625.0" y="993.0" type="curve" smooth="yes"/>
      <point x="625.0" y="881.0"/>
      <point x="666.0" y="817.0"/>
      <point x="703.7" y="806.56" type="curve" smooth="yes"/>
      <point x="718.169" y="802.5532"/>
      <point x="722.7333799139983" y="788.5633921414229"/>
      <point x="713.4114466255284" y="776.7944513647295" type="curve" smooth="yes"/>
      <point x="651.0" y="698.0"/>
      <point x="618.0" y="602.0"/>
      <point x="618.0" y="504.0" type="curve" smooth="yes"/>
      <point x="618.0" y="481.0"/>
      <point x="618.0" y="442.0"/>
      <point x="659.0" y="442.0" type="curve" smooth="yes"/>
      <point x="680.0" y="442.0"/>
      <point x="698.0" y="455.0"/>
      <point x="698.0" y="504.0" type="curve" smooth="yes"/>
      <point x="698.0" y="596.0"/>
      <point x="745.0" y="680.0"/>
      <point x="801.0" y="752.0" type="curve" smooth="yes"/>
      <point x="834.0" y="799.0"/>
      <point x="893.0" y="834.0"/>
      <point x="936.0" y="858.0" type="curve" smooth="yes"/>
      <point x="948.0" y="864.0"/>
      <point x="958.0" y="870.0"/>
      <point x="967.0" y="877.0" type="curve"/>
    </contour>
    <contour>
      <point x="442.0" y="879.0" type="line"/>
      <point x="444.0" y="881.0"/>
      <point x="451.0" y="887.0"/>
      <point x="451.0" y="895.0" type="curve" smooth="yes"/>
      <point x="451.0" y="918.0"/>
      <point x="432.0" y="963.0"/>
      <point x="418.0" y="963.0" type="curve" smooth="yes"/>
      <point x="408.0" y="963.0"/>
      <point x="352.0" y="924.0"/>
      <point x="324.0" y="903.0" type="curve"/>
      <point x="303.0" y="893.0"/>
      <point x="276.0" y="885.0"/>
      <point x="258.0" y="885.0" type="curve" smooth="yes"/>
      <point x="211.0" y="885.0"/>
      <point x="172.0" y="915.0"/>
      <point x="172.0" y="993.0" type="curve" smooth="yes"/>
      <point x="172.0" y="1063.0"/>
      <point x="211.0" y="1102.0"/>
      <point x="227.0" y="1102.0" type="curve" smooth="yes"/>
      <point x="268.0" y="1102.0"/>
      <point x="279.0" y="1087.0"/>
      <point x="291.0" y="1075.0" type="curve" smooth="yes"/>
      <point x="301.0" y="1065.0"/>
      <point x="307.0" y="1059.0"/>
      <point x="319.0" y="1059.0" type="curve" smooth="yes"/>
      <point x="346.0" y="1059.0"/>
      <point x="369.0" y="1085.0"/>
      <point x="369.0" y="1122.0" type="curve" smooth="yes"/>
      <point x="369.0" y="1178.0"/>
      <point x="330.0" y="1200.0"/>
      <point x="281.0" y="1200.0" type="curve" smooth="yes"/>
      <point x="203.0" y="1200.0"/>
      <point x="102.0" y="1130.0"/>
      <point x="102.0" y="993.0" type="curve" smooth="yes"/>
      <point x="102.0" y="881.0"/>
      <point x="143.0" y="817.0"/>
      <point x="180.12" y="806.56" type="curve" smooth="yes"/>
      <point x="194.3664" y="802.5532"/>
      <point x="198.97843689799197" y="788.6131041884255"/>
      <point x="189.93284446381273" y="776.9002216775011" type="curve" smooth="yes"/>
      <point x="129.0" y="698.0"/>
      <point x="96.0" y="602.0"/>
      <point x="96.0" y="504.0" type="curve" smooth="yes"/>
      <point x="96.0" y="481.0"/>
      <point x="96.0" y="442.0"/>
      <point x="137.0" y="442.0" type="curve" smooth="yes"/>
      <point x="158.0" y="442.0"/>
      <point x="174.0" y="455.0"/>
      <point x="174.0" y="504.0" type="curve" smooth="yes"/>
      <point x="174.0" y="596.0"/>
      <point x="221.0" y="680.0"/>
      <point x="276.0" y="752.0" type="curve" smooth="yes"/>
      <point x="311.0" y="799.0"/>
      <point x="371.0" y="834.0"/>
      <point x="412.0" y="858.0" type="curve"/>
      <point x="424.0" y="864.0"/>
      <point x="434.0" y="870.0"/>
      <point x="442.0" y="877.0" type="curve"/>
    </contour>
    <contour>
      <point x="1039.62" y="920.0" type="line" smooth="yes"/>
      <point x="1026.0413999999998" y="920.0"/>
      <point x="1014.0" y="907.9586"/>
      <point x="1014.0" y="894.38" type="curve" smooth="yes"/>
      <point x="1014.0" y="734.62" type="line" smooth="yes"/>
      <point x="1014.0" y="721.0414"/>
      <point x="1026.0413999999998" y="709.0"/>
      <point x="1039.62" y="709.0" type="curve" smooth="yes"/>
      <point x="1049.38" y="709.0" type="line" smooth="yes"/>
      <point x="1062.9586000000002" y="709.0"/>
      <point x="1075.0" y="721.0414"/>
      <point x="1075.0" y="734.62" type="curve" smooth="yes"/>
      <point x="1075.0" y="894.38" type="line" smooth="yes"/>
      <point x="1075.0" y="907.9586"/>
      <point x="1062.9586000000002" y="920.0"/>
      <point x="1049.38" y="920.0" type="curve" smooth="yes"/>
    </contour>
    <contour>
      <point x="1039.62" y="1196.0" type="line" smooth="yes"/>
      <point x="1026.0413999999998" y="1196.0"/>
      <point x="1014.0" y="1183.9586000000002"/>
      <point x="1014.0" y="1170.38" type="curve" smooth="yes"/>
      <point x="1014.0" y="1010.62" type="line" smooth="yes"/>
      <point x="1014.0" y="997.0414"/>
      <point x="1026.0413999999998" y="985.0"/>
      <point x="1039.62" y="985.0" type="curve" smooth="yes"/>
      <point x="1049.38" y="985.0" type="line" smooth="yes"/>
      <point x="1062.9586000000002" y="985.0"/>
      <point x="1075.0" y="997.0414"/>
      <point x="1075.0" y="1010.62" type="curve" smooth="yes"/>
      <point x="1075.0" y="1170.38" type="line" smooth="yes"/>
      <point x="1075.0" y="1183.9586000000002"/>
      <point x="1062.9586000000002" y="1196.0"/>
      <point x="1049.38" y="1196.0" type="curve" smooth="yes"/>
    </contour>
    <contour>
      <point x="1039.62" y="643.0" type="line" smooth="yes"/>
      <point x="1026.0413999999998" y="643.0"/>
      <point x="1014.0" y="630.9586"/>
      <point x="1014.0" y="617.38" type="curve" smooth="yes"/>
      <point x="1014.0" y="461.62" type="line" smooth="yes"/>
      <point x="1014.0" y="448.0414"/>
      <point x="1026.0413999999998" y="436.0"/>
      <point x="1039.62" y="436.0" type="curve" smooth="yes"/>
      <point x="1049.38" y="436.0" type="line" smooth="yes"/>
      <point x="1062.9586000000002" y="436.0"/>
      <point x="1075.0" y="448.0414"/>
      <point x="1075.0" y="461.62" type="curve" smooth="yes"/>
      <point x="1075.0" y="617.38" type="line" smooth="yes"/>
      <point x="1075.0" y="630.9586"/>
      <point x="1062.9586000000002" y="643.0"/>
      <point x="1049.38" y="643.0" type="curve" smooth="yes"/>
    </contour>
    <contour>
      <point x="1039.62" y="1468.0" type="line" smooth="yes"/>
      <point x="1026.0413999999998" y="1468.0"/>
      <point x="1014.0" y="1455.9586000000002"/>
      <point x="1014.0" y="1442.38" type="curve" smooth="yes"/>
      <point x="1014.0" y="1287.62" type="line" smooth="yes"/>
      <point x="1014.0" y="1274.0413999999998"/>
      <point x="1026.0413999999998" y="1262.0"/>
      <point x="1039.62" y="1262.0" type="curve" smooth="yes"/>
      <point x="1049.38" y="1262.0" type="line" smooth="yes"/>
      <point x="1062.9586000000002" y="1262.0"/>
      <point x="1075.0" y="1274.0413999999998"/>
      <point x="1075.0" y="1287.62" type="curve" smooth="yes"/>
      <point x="1075.0" y="1442.38" type="line" smooth="yes"/>
      <point x="1075.0" y="1455.9586000000002"/>
      <point x="1062.9586000000002" y="1468.0"/>
      <point x="1049.38" y="1468.0" type="curve" smooth="yes"/>
    </contour>
    <contour>
      <point x="0.0" y="920.0" type="line"/>
      <point x="0.0" y="709.0" type="line"/>
      <point x="34.22" y="709.0" type="line" smooth="yes"/>
      <point x="47.3534" y="709.0"/>
      <point x="59.0" y="720.6466"/>
      <point x="59.0" y="733.78" type="curve" smooth="yes"/>
      <point x="59.0" y="895.22" type="line" smooth="yes"/>
      <point x="59.0" y="908.3534"/>
      <point x="47.3534" y="920.0"/>
      <point x="34.22" y="920.0" type="curve" smooth="yes"/>
    </contour>
    <contour>
      <point x="0.0" y="1196.0" type="line"/>
      <point x="0.0" y="985.0" type="line"/>
      <point x="34.22" y="985.0" type="line" smooth="yes"/>
      <point x="47.3534" y="985.0"/>
      <point x="59.0" y="996.6466"/>
      <point x="59.0" y="1009.78" type="curve" smooth="yes"/>
      <point x="59.0" y="1171.22" type="line" smooth="yes"/>
      <point x="59.0" y="1184.3534"/>
      <point x="47.3534" y="1196.0"/>
      <point x="34.22" y="1196.0" type="curve" smooth="yes"/>
    </contour>
    <contour>
      <point x="0.0" y="643.0" type="line"/>
      <point x="0.0" y="436.0" type="line"/>
      <point x="34.22" y="436.0" type="line" smooth="yes"/>
      <point x="47.3534" y="436.0"/>
      <point x="59.0" y="447.6466"/>
      <point x="59.0" y="460.78" type="curve" smooth="yes"/>
      <point x="59.0" y="618.22" type="line" smooth="yes"/>
      <point x="59.0" y="631.3534"/>
      <point x="47.3534" y="643.0"/>
      <point x="34.22" y="643.0" type="curve" smooth="yes"/>
    </contour>
    <contour>
      <point x="0.0" y="1468.0" type="line"/>
      <point x="0.0" y="1262.0" type="line"/>
      <point x="34.22" y="1262.0" type="line" smooth="yes"/>
      <point x="47.3534" y="1262.0"/>
      <point x="59.0" y="1273.6466"/>
      <point x="59.0" y="1286.78" type="curve" smooth="yes"/>
      <point x="59.0" y="1443.22" type="line" smooth="yes"/>
      <point x="59.0" y="1456.3534"/>
      <point x="47.3534" y="1468.0"/>
      <point x="34.22" y="1468.0" type="curve" smooth="yes"/>
    </contour>
    <contour>
      <point x="1031.32" y="225.0" type="line" smooth="yes"/>
      <point x="1054.4704" y="225.0"/>
      <point x="1075.0" y="245.52960000000002"/>
      <point x="1075.0" y="268.68" type="curve" smooth="yes"/>
      <point x="1075.0" y="341.38" type="line" smooth="yes"/>
      <point x="1075.0" y="354.9586"/>
      <point x="1062.9586000000002" y="367.0"/>
      <point x="1049.38" y="367.0" type="curve" smooth="yes"/>
      <point x="1039.62" y="367.0" type="line" smooth="yes"/>
      <point x="1026.0413999999998" y="367.0"/>
      <point x="1014.0" y="354.9586"/>
      <point x="1014.0" y="341.38" type="curve" smooth="yes"/>
      <point x="1014.0" y="307.06" type="line" smooth="yes"/>
      <point x="1014.0" y="297.4882"/>
      <point x="1005.5118" y="289.0"/>
      <point x="995.94" y="289.0" type="curve" smooth="yes"/>
      <point x="989.06" y="289.0" type="line" smooth="yes"/>
      <point x="979.4882" y="289.0"/>
      <point x="971.0" y="280.5118"/>
      <point x="971.0" y="270.94" type="curve" smooth="yes"/>
      <point x="971.0" y="251.88" type="line" smooth="yes"/>
      <point x="971.0" y="237.6336"/>
      <point x="983.6336" y="225.0"/>
      <point x="997.88" y="225.0" type="curve" smooth="yes"/>
    </contour>
    <contour>
      <point x="1075.0" y="1635.32" type="line" smooth="yes"/>
      <point x="1075.0" y="1658.4704"/>
      <point x="1054.4704" y="1679.0"/>
      <point x="1031.32" y="1679.0" type="curve" smooth="yes"/>
      <point x="997.46" y="1679.0" type="line" smooth="yes"/>
      <point x="983.4362" y="1679.0"/>
      <point x="971.0" y="1666.5638"/>
      <point x="971.0" y="1652.54" type="curve" smooth="yes"/>
      <point x="971.0" y="1634.06" type="line" smooth="yes"/>
      <point x="971.0" y="1624.4882"/>
      <point x="979.4882" y="1616.0"/>
      <point x="989.06" y="1616.0" type="curve" smooth="yes"/>
      <point x="995.94" y="1616.0" type="line" smooth="yes"/>
      <point x="1005.5118" y="1616.0"/>
      <point x="1014.0" y="1607.5118"/>
      <point x="1014.0" y="1597.94" type="curve" smooth="yes"/>
      <point x="1014.0" y="1563.62" type="line" smooth="yes"/>
      <point x="1014.0" y="1550.0413999999998"/>
      <point x="1026.0413999999998" y="1538.0"/>
      <point x="1039.62" y="1538.0" type="curve" smooth="yes"/>
      <point x="1049.38" y="1538.0" type="line" smooth="yes"/>
      <point x="1062.9586000000002" y="1538.0"/>
      <point x="1075.0" y="1550.0413999999998"/>
      <point x="1075.0" y="1563.62" type="curve" smooth="yes"/>
    </contour>
    <contour>
      <point x="0.0" y="225.0" type="line"/>
      <point x="75.12" y="225.0" type="line" smooth="yes"/>
      <point x="89.3664" y="225.0"/>
      <point x="102.0" y="237.6336"/>
      <point x="102.0" y="251.88" type="curve" smooth="yes"/>
      <point x="102.0" y="270.94" type="line" smooth="yes"/>
      <point x="102.0" y="280.5118"/>
      <point x="93.5118" y="289.0"/>
      <point x="83.94" y="289.0" type="curve" smooth="yes"/>
      <point x="77.06" y="289.0" type="line" smooth="yes"/>
      <point x="67.4882" y="289.0"/>
      <point x="59.0" y="297.4882"/>
      <point x="59.0" y="307.06" type="curve" smooth="yes"/>
      <point x="59.0" y="342.22" type="line" smooth="yes"/>
      <point x="59.0" y="355.3534"/>
      <point x="47.3534" y="367.0"/>
      <point x="34.22" y="367.0" type="curve" smooth="yes"/>
      <point x="0.0" y="367.0" type="line"/>
    </contour>
    <contour>
      <point x="0.0" y="1679.0" type="line"/>
      <point x="0.0" y="1538.0" type="line"/>
      <point x="34.22" y="1538.0" type="line" smooth="yes"/>
      <point x="47.3534" y="1538.0"/>
      <point x="59.0" y="1549.6466"/>
      <point x="59.0" y="1562.78" type="curve" smooth="yes"/>
      <point x="59.0" y="1597.94" type="line" smooth="yes"/>
      <point x="59.0" y="1607.5118"/>
      <point x="67.4882" y="1616.0"/>
      <point x="77.06" y="1616.0" type="curve" smooth="yes"/>
      <point x="83.94" y="1616.0" type="line" smooth="yes"/>
      <point x="93.5118" y="1616.0"/>
      <point x="102.0" y="1624.4882"/>
      <point x="102.0" y="1634.06" type="curve" smooth="yes"/>
      <point x="102.0" y="1652.54" type="line" smooth="yes"/>
      <point x="102.0" y="1666.5638"/>
      <point x="89.5638" y="1679.0"/>
      <point x="75.54" y="1679.0" type="curve" smooth="yes"/>
    </contour>
    <contour>
      <point x="510.0" y="262.12" type="line" smooth="yes"/>
      <point x="510.0" y="276.3664"/>
      <point x="497.3664" y="289.0"/>
      <point x="483.12" y="289.0" type="curve" smooth="yes"/>
      <point x="382.88" y="289.0" type="line" smooth="yes"/>
      <point x="368.6336" y="289.0"/>
      <point x="356.0" y="276.3664"/>
      <point x="356.0" y="262.12" type="curve" smooth="yes"/>
      <point x="356.0" y="251.88" type="line" smooth="yes"/>
      <point x="356.0" y="237.6336"/>
      <point x="368.6336" y="225.0"/>
      <point x="382.88" y="225.0" type="curve" smooth="yes"/>
      <point x="483.12" y="225.0" type="line" smooth="yes"/>
      <point x="497.3664" y="225.0"/>
      <point x="510.0" y="237.6336"/>
      <point x="510.0" y="251.88" type="curve" smooth="yes"/>
    </contour>
    <contour>
      <point x="715.0" y="262.12" type="line" smooth="yes"/>
      <point x="715.0" y="276.3664"/>
      <point x="702.3664" y="289.0"/>
      <point x="688.12" y="289.0" type="curve" smooth="yes"/>
      <point x="587.88" y="289.0" type="line" smooth="yes"/>
      <point x="573.6336" y="289.0"/>
      <point x="561.0" y="276.3664"/>
      <point x="561.0" y="262.12" type="curve" smooth="yes"/>
      <point x="561.0" y="251.88" type="line" smooth="yes"/>
      <point x="561.0" y="237.6336"/>
      <point x="573.6336" y="225.0"/>
      <point x="587.88" y="225.0" type="curve" smooth="yes"/>
      <point x="688.12" y="225.0" type="line" smooth="yes"/>
      <point x="702.3664" y="225.0"/>
      <point x="715.0" y="237.6336"/>
      <point x="715.0" y="251.88" type="curve" smooth="yes"/>
    </contour>
    <contour>
      <point x="918.0" y="262.12" type="line" smooth="yes"/>
      <point x="918.0" y="276.3664"/>
      <point x="905.3664" y="289.0"/>
      <point x="891.12" y="289.0" type="curve" smooth="yes"/>
      <point x="792.88" y="289.0" type="line" smooth="yes"/>
      <point x="778.6336" y="289.0"/>
      <point x="766.0" y="276.3664"/>
      <point x="766.0" y="262.12" type="curve" smooth="yes"/>
      <point x="766.0" y="251.88" type="line" smooth="yes"/>
      <point x="766.0" y="237.6336"/>
      <point x="778.6336" y="225.0"/>
      <point x="792.88" y="225.0" type="curve" smooth="yes"/>
      <point x="891.12" y="225.0" type="line" smooth="yes"/>
      <point x="905.3664" y="225.0"/>
      <point x="918.0" y="237.6336"/>
      <point x="918.0" y="251.88" type="curve" smooth="yes"/>
    </contour>
    <contour>
      <point x="356.0" y="1642.46" type="line" smooth="yes"/>
      <point x="356.0" y="1628.4362"/>
      <point x="368.4362" y="1616.0"/>
      <point x="382.46" y="1616.0" type="curve" smooth="yes"/>
      <point x="483.54" y="1616.0" type="line" smooth="yes"/>
      <point x="497.5638" y="1616.0"/>
      <point x="510.0" y="1628.4362"/>
      <point x="510.0" y="1642.46" type="curve" smooth="yes"/>
      <point x="510.0" y="1652.54" type="line" smooth="yes"/>
      <point x="510.0" y="1666.5638"/>
      <point x="497.5638" y="1679.0"/>
      <point x="483.54" y="1679.0" type="curve" smooth="yes"/>
      <point x="382.46" y="1679.0" type="line" smooth="yes"/>
      <point x="368.4362" y="1679.0"/>
      <point x="356.0" y="1666.5638"/>
      <point x="356.0" y="1652.54" type="curve" smooth="yes"/>
    </contour>
    <contour>
      <point x="561.0" y="1642.46" type="line" smooth="yes"/>
      <point x="561.0" y="1628.4362"/>
      <point x="573.4362" y="1616.0"/>
      <point x="587.46" y="1616.0" type="curve" smooth="yes"/>
      <point x="688.54" y="1616.0" type="line" smooth="yes"/>
      <point x="702.5638" y="1616.0"/>
      <point x="715.0" y="1628.4362"/>
      <point x="715.0" y="1642.46" type="curve" smooth="yes"/>
      <point x="715.0" y="1652.54" type="line" smooth="yes"/>
      <point x="715.0" y="1666.5638"/>
      <point x="702.5638" y="1679.0"/>
      <point x="688.54" y="1679.0" type="curve" smooth="yes"/>
      <point x="587.46" y="1679.0" type="line" smooth="yes"/>
      <point x="573.4362" y="1679.0"/>
      <point x="561.0" y="1666.5638"/>
      <point x="561.0" y="1652.54" type="curve" smooth="yes"/>
    </contour>
    <contour>
      <point x="305.0" y="262.12" type="line" smooth="yes"/>
      <point x="305.0" y="276.3664"/>
      <point x="292.3664" y="289.0"/>
      <point x="278.12" y="289.0" type="curve" smooth="yes"/>
      <point x="180.88" y="289.0" type="line" smooth="yes"/>
      <point x="166.6336" y="289.0"/>
      <point x="154.0" y="276.3664"/>
      <point x="154.0" y="262.12" type="curve" smooth="yes"/>
      <point x="154.0" y="251.88" type="line" smooth="yes"/>
      <point x="154.0" y="237.6336"/>
      <point x="166.6336" y="225.0"/>
      <point x="180.88" y="225.0" type="curve" smooth="yes"/>
      <point x="278.12" y="225.0" type="line" smooth="yes"/>
      <point x="292.3664" y="225.0"/>
      <point x="305.0" y="237.6336"/>
      <point x="305.0" y="251.88" type="curve" smooth="yes"/>
    </contour>
    <contour>
      <point x="766.0" y="1642.46" type="line" smooth="yes"/>
      <point x="766.0" y="1628.4362"/>
      <point x="778.4362" y="1616.0"/>
      <point x="792.46" y="1616.0" type="curve" smooth="yes"/>
      <point x="891.54" y="1616.0" type="line" smooth="yes"/>
      <point x="905.5638" y="1616.0"/>
      <point x="918.0" y="1628.4362"/>
      <point x="918.0" y="1642.46" type="curve" smooth="yes"/>
      <point x="918.0" y="1652.54" type="line" smooth="yes"/>
      <point x="918.0" y="1666.5638"/>
      <point x="905.5638" y="1679.0"/>
      <point x="891.54" y="1679.0" type="curve" smooth="yes"/>
      <point x="792.46" y="1679.0" type="line" smooth="yes"/>
      <point x="778.4362" y="1679.0"/>
      <point x="766.0" y="1666.5638"/>
      <point x="766.0" y="1652.54" type="curve" smooth="yes"/>
    </contour>
    <contour>
      <point x="154.0" y="1642.46" type="line" smooth="yes"/>
      <point x="154.0" y="1628.4362"/>
      <point x="166.4362" y="1616.0"/>
      <point x="180.46" y="1616.0" type="curve" smooth="yes"/>
      <point x="278.54" y="1616.0" type="line" smooth="yes"/>
      <point x="292.5638" y="1616.0"/>
      <point x="305.0" y="1628.4362"/>
      <point x="305.0" y="1642.46" type="curve" smooth="yes"/>
      <point x="305.0" y="1652.54" type="line" smooth="yes"/>
      <point x="305.0" y="1666.5638"/>
      <point x="292.5638" y="1679.0"/>
      <point x="278.54" y="1679.0" type="curve" smooth="yes"/>
      <point x="180.46" y="1679.0" type="line" smooth="yes"/>
      <point x="166.4362" y="1679.0"/>
      <point x="154.0" y="1666.5638"/>
      <point x="154.0" y="1652.54" type="curve" smooth="yes"/>
    </contour>
  </outline>
</glyph>
<glyph name="uni0671" format="2">
  <advance width="1228"/>
  <unicode hex="0671"/>
  <unicode hex="FB50"/>
  <outline>
    <contour>
      <point x="414.0" y="1655.0" type="curve" smooth="yes"/>
      <point x="295.0" y="1655.0"/>
      <point x="203.0" y="1558.0"/>
      <point x="203.0" y="1528.0" type="curve" smooth="yes"/>
      <point x="203.0" y="1505.0"/>
      <point x="225.0" y="1458.0"/>
      <point x="248.0" y="1458.0" type="curve" smooth="yes"/>
      <point x="264.0" y="1458.0"/>
      <point x="272.0" y="1464.0"/>
      <point x="283.0" y="1472.0" type="curve"/>
      <point x="326.0" y="1513.0"/>
      <point x="362.0" y="1540.0"/>
      <point x="412.0" y="1540.0" type="curve" smooth="yes"/>
      <point x="455.0" y="1540.0"/>
      <point x="467.0" y="1517.0"/>
      <point x="485.0" y="1499.0" type="curve"/>
      <point x="537.0" y="1452.0"/>
      <point x="627.0" y="1399.0"/>
      <point x="715.0" y="1399.0" type="curve" smooth="yes"/>
      <point x="920.0" y="1399.0"/>
      <point x="1044.0" y="1511.0"/>
      <point x="1044.0" y="1657.0" type="curve" smooth="yes"/>
      <point x="1044.0" y="1718.0"/>
      <point x="1010.0" y="1816.0"/>
      <point x="922.0" y="1816.0" type="curve" smooth="yes"/>
      <point x="727.0" y="1816.0"/>
      <point x="629.0" y="1712.0"/>
      <point x="587.2905784430851" y="1584.3180972747505" type="curve" smooth="yes"/>
      <point x="583.42657186825" y="1572.4895057191327"/>
      <point x="570.13" y="1566.935"/>
      <point x="559.0" y="1572.5" type="curve" smooth="yes"/>
      <point x="530.0" y="1587.0"/>
      <point x="520.0" y="1655.0"/>
    </contour>
    <contour>
      <point x="625.0" y="1319.0" type="curve" smooth="yes"/>
      <point x="567.0" y="1319.0"/>
      <point x="553.0" y="1298.0"/>
      <point x="553.0" y="1235.0" type="curve" smooth="yes"/>
      <point x="553.0" y="309.0" type="line" smooth="yes"/>
      <point x="553.0" y="246.0"/>
      <point x="565.0" y="225.0"/>
      <point x="623.0" y="225.0" type="curve" smooth="yes"/>
      <point x="680.0" y="225.0"/>
      <point x="694.0" y="246.0"/>
      <point x="694.0" y="309.0" type="curve" smooth="yes"/>
      <point x="694.0" y="1235.0" type="line" smooth="yes"/>
      <point x="694.0" y="1298.0"/>
      <point x="682.0" y="1319.0"/>
    </contour>
    <contour>
      <point x="679.24" y="1517.64" type="curve" smooth="yes"/>
      <point x="674.3428" y="1519.4208"/>
      <point x="671.1651635268735" y="1525.4717086707033"/>
      <point x="672.4790713337733" y="1530.514273767454" type="curve" smooth="yes"/>
      <point x="707.0" y="1663.0"/>
      <point x="776.0" y="1706.0"/>
      <point x="903.0" y="1706.0" type="curve" smooth="yes"/>
      <point x="942.0" y="1706.0"/>
      <point x="946.0" y="1653.0"/>
      <point x="946.0" y="1628.0" type="curve" smooth="yes"/>
      <point x="946.0" y="1558.0"/>
      <point x="850.0" y="1511.0"/>
      <point x="743.0" y="1511.0" type="curve" smooth="yes"/>
      <point x="721.0" y="1511.0"/>
      <point x="692.0" y="1513.0"/>
    </contour>
  </outline>
</glyph>
<glyph name="uni06C2" format="2">
  <advance width="1228"/>
  <unicode hex="06C2"/>
  <outline>
    <contour>
      <point x="236.0" y="1034.0" type="curve" smooth="yes"/>
      <point x="236.0" y="979.0"/>
      <point x="276.0" y="946.0"/>
      <point x="322.0" y="946.0" type="curve" smooth="yes"/>
      <point x="367.0" y="946.0"/>
      <point x="383.0" y="977.0"/>
      <point x="420.0" y="977.0" type="curve" smooth="yes"/>
      <point x="472.8033142089844" y="977.0"/>
      <point x="497.13275146484375" y="966.5096435546875"/>
      <point x="512.0343334960937" y="956.9742297363281" type="curve" smooth="yes"/>
      <point x="517.7534579101563" y="953.3146036743163"/>
      <point x="518.0935179729587" y="946.345584909909"/>
      <point x="512.7578655446096" y="942.1465302375889" type="curve" smooth="yes"/>
      <point x="485.7637023925781" y="920.9026489257812"/>
      <point x="447.8059387207031" y="887.3746948242188"/>
      <point x="418.0" y="856.0" type="curve" smooth="yes"/>
      <point x="315.0" y="750.0"/>
      <point x="205.0" y="600.0"/>
      <point x="205.0" y="455.0" type="curve" smooth="yes"/>
      <point x="205.0" y="248.0"/>
      <point x="352.0" y="186.0"/>
      <point x="500.0" y="186.0" type="curve" smooth="yes"/>
      <point x="846.0" y="186.0"/>
      <point x="870.0" y="424.0"/>
      <point x="870.0" y="512.0" type="curve" smooth="yes"/>
      <point x="870.0" y="709.919921875"/>
      <point x="804.4603881835938" y="857.5928955078125"/>
      <point x="752.826273215433" y="932.0070124997028" type="curve" smooth="yes"/>
      <point x="748.5651605450425" y="938.1480480721259"/>
      <point x="750.9031030151367" y="946.1477225219727"/>
      <point x="757.8006188964844" y="949.0275964355469" type="curve" smooth="yes"/>
      <point x="775.7725830078125" y="956.5313110351562"/>
      <point x="797.696533203125" y="963.0"/>
      <point x="815.0" y="963.0" type="curve" smooth="yes"/>
      <point x="862.0" y="963.0"/>
      <point x="877.0" y="928.0"/>
      <point x="924.0" y="928.0" type="curve" smooth="yes"/>
      <point x="969.0" y="928.0"/>
      <point x="1010.0" y="961.0"/>
      <point x="1010.0" y="1016.0" type="curve" smooth="yes"/>
      <point x="1010.0" y="1094.0"/>
      <point x="936.0" y="1130.0"/>
      <point x="844.0" y="1130.0" type="curve" smooth="yes"/>
      <point x="782.0" y="1130.0"/>
      <point x="713.0" y="1085.0"/>
      <point x="678.2" y="1058.9" type="curve" smooth="yes"/>
      <point x="664.844" y="1048.883"/>
      <point x="641.4083187043972" y="1049.2098289745886"/>
      <point x="628.336848307228" y="1059.595380796997" type="curve" smooth="yes"/>
      <point x="580.0" y="1098.0"/>
      <point x="508.0" y="1149.0"/>
      <point x="401.0" y="1149.0" type="curve" smooth="yes"/>
      <point x="309.0" y="1149.0"/>
      <point x="236.0" y="1112.0"/>
    </contour>
    <contour>
      <point x="578.8738951637963" y="833.8813404176086" type="curve" smooth="yes"/>
      <point x="596.4307307269843" y="847.724229996276"/>
      <point x="623.4492" y="843.8131999999999"/>
      <point x="636.36" y="825.56" type="curve" smooth="yes"/>
      <point x="670.0" y="778.0"/>
      <point x="729.0" y="672.0"/>
      <point x="729.0" y="512.0" type="curve" smooth="yes"/>
      <point x="729.0" y="416.0"/>
      <point x="680.0" y="330.0"/>
      <point x="500.0" y="330.0" type="curve" smooth="yes"/>
      <point x="383.0" y="330.0"/>
      <point x="330.0" y="371.0"/>
      <point x="330.0" y="455.0" type="curve" smooth="yes"/>
      <point x="330.0" y="633.0"/>
      <point x="508.0" y="778.0"/>
    </contour>
    <contour>
      <point x="662.0" y="1815.0" type="curve" smooth="yes"/>
      <point x="539.0" y="1815.0"/>
      <point x="457.0" y="1688.0"/>
      <point x="457.0" y="1587.0" type="curve" smooth="yes"/>
      <point x="457.0" y="1505.0"/>
      <point x="508.0" y="1438.0"/>
      <point x="555.56" y="1423.5" type="curve" smooth="yes"/>
      <point x="573.8131999999999" y="1417.935"/>
      <point x="574.9332740343823" y="1405.2954242221274"/>
      <point x="557.9431362433667" y="1396.6072855789944" type="curve" smooth="yes"/>
      <point x="502.0" y="1368.0"/>
      <point x="430.0" y="1344.0"/>
      <point x="430.0" y="1290.0" type="curve" smooth="yes"/>
      <point x="430.0" y="1252.0"/>
      <point x="455.0" y="1227.0"/>
      <point x="481.0" y="1227.0" type="curve" smooth="yes"/>
      <point x="516.0" y="1227.0"/>
      <point x="662.0" y="1305.0"/>
      <point x="709.0" y="1331.0" type="curve" smooth="yes"/>
      <point x="807.0" y="1387.0"/>
      <point x="897.0" y="1432.0"/>
      <point x="897.0" y="1454.0" type="curve" smooth="yes"/>
      <point x="897.0" y="1479.0"/>
      <point x="868.0" y="1536.0"/>
      <point x="850.0" y="1536.0" type="curve" smooth="yes"/>
      <point x="805.0" y="1536.0"/>
      <point x="778.0" y="1493.0"/>
      <point x="702.0" y="1493.0" type="curve" smooth="yes"/>
      <point x="633.0" y="1493.0"/>
      <point x="571.0" y="1538.0"/>
      <point x="571.0" y="1587.0" type="curve" smooth="yes"/>
      <point x="571.0" y="1651.0"/>
      <point x="602.0" y="1688.0"/>
      <point x="662.0" y="1688.0" type="curve" smooth="yes"/>
      <point x="727.0" y="1688.0"/>
      <point x="684.0" y="1630.0"/>
      <point x="760.0" y="1630.0" type="curve" smooth="yes"/>
      <point x="799.0" y="1630.0"/>
      <point x="832.0" y="1657.0"/>
      <point x="832.0" y="1702.0" type="curve" smooth="yes"/>
      <point x="832.0" y="1807.0"/>
      <point x="725.0" y="1815.0"/>
    </contour>
  </outline>
</glyph>
<glyph name="uni06D8" format="2">
  <unicode hex="06D8"/>
  <outline>
    <contour>
      <point x="588.0" y="1487.0" type="curve" smooth="yes"/>
      <point x="526.0" y="1391.0"/>
      <point x="430.0" y="1350.0"/>
      <point x="322.0" y="1350.0" type="curve" smooth="yes"/>
      <point x="219.0" y="1350.0"/>
      <point x="254.0" y="1409.0"/>
      <point x="182.0" y="1409.0" type="curve" smooth="yes"/>
      <point x="154.0" y="1409.0"/>
      <point x="125.0" y="1382.0"/>
      <point x="125.0" y="1339.0" type="curve" smooth="yes"/>
      <point x="125.0" y="1288.0"/>
      <point x="205.0" y="1239.0"/>
      <point x="322.0" y="1239.0" type="curve" smooth="yes"/>
      <point x="432.0" y="1239.0"/>
      <point x="545.0" y="1280.0"/>
      <point x="603.9864176617014" y="1346.548778900381" type="curve" smooth="yes"/>
      <point x="614.0636163009997" y="1357.917926083179"/>
      <point x="631.4882" y="1357.5378"/>
      <point x="641.06" y="1345.74" type="curve" smooth="yes"/>
      <point x="666.0" y="1315.0"/>
      <point x="741.0" y="1280.0"/>
      <point x="788.0" y="1280.0" type="curve" smooth="yes"/>
      <point x="858.0" y="1280.0"/>
      <point x="948.0" y="1346.0"/>
      <point x="948.0" y="1477.0" type="curve" smooth="yes"/>
      <point x="948.0" y="1616.0"/>
      <point x="866.0" y="1677.0"/>
      <point x="788.0" y="1677.0" type="curve" smooth="yes"/>
      <point x="692.0" y="1677.0"/>
      <point x="633.0" y="1559.0"/>
    </contour>
    <contour>
      <point x="788.0" y="1559.0" type="curve" smooth="yes"/>
      <point x="819.0" y="1559.0"/>
      <point x="854.0" y="1546.0"/>
      <point x="854.0" y="1477.0" type="curve" smooth="yes"/>
      <point x="854.0" y="1407.0"/>
      <point x="817.0" y="1399.0"/>
      <point x="788.0" y="1399.0" type="curve" smooth="yes"/>
      <point x="758.0" y="1399.0"/>
      <point x="686.0" y="1444.0"/>
      <point x="682.52" y="1459.08" type="curve" smooth="yes"/>
      <point x="681.1844" y="1464.8676"/>
      <point x="682.3042583567492" y="1474.7365310666512"/>
      <point x="684.9026773547855" y="1480.0777256737258" type="curve" smooth="yes"/>
      <point x="698.0" y="1507.0"/>
      <point x="727.0" y="1559.0"/>
    </contour>
  </outline>
</glyph>
<glyph name="uni06DE" format="2">
  <advance width="1228"/>
  <unicode hex="06DE"/>
  <outline>
    <contour>
      <point x="589.074462890625" y="964.925537109375" type="line"/>
      <point x="504.4670654383605" y="880.3181396571106" type="line" smooth="yes"/>
      <point x="486.47826892497477" y="862.3293431437248"/>
      <point x="447.96593994140625" y="846.3770141601562"/>
      <point x="422.52593994140625" y="846.3770141601562" type="curve" smooth="yes"/>
      <point x="315.6230163574219" y="846.3770141601562" type="line" smooth="yes"/>
      <point x="290.1830163574219" y="846.3770141601562"/>
      <point x="267.6230163574219" y="823.8170141601563"/>
      <point x="267.6230163574219" y="798.3770141601562" type="curve" smooth="yes"/>
      <point x="267.6230163574219" y="691.4740600585938" type="line" smooth="yes"/>
      <point x="267.6230163574219" y="666.0340600585937"/>
      <point x="251.67068822213648" y="627.5217302267422"/>
      <point x="233.68189266532528" y="609.5329327567819" type="curve" smooth="yes"/>
      <point x="158.09009524971378" y="533.9411273018119" type="line" smooth="yes"/>
      <point x="140.1012996929026" y="515.9523298318516"/>
      <point x="140.1012996929026" y="484.04767016814844"/>
      <point x="158.09009524971378" y="466.0588726981881" type="curve" smooth="yes"/>
      <point x="233.68189266532528" y="390.46706724321814" type="line" smooth="yes"/>
      <point x="251.67068822213648" y="372.4782697732578"/>
      <point x="267.6230163574219" y="333.96593994140625"/>
      <point x="267.6230163574219" y="308.52593994140625" type="curve" smooth="yes"/>
      <point x="267.6230163574219" y="201.62301635742188" type="line" smooth="yes"/>
      <point x="267.6230163574219" y="176.18301635742188"/>
      <point x="290.1830163574219" y="153.62301635742188"/>
      <point x="315.6230163574219" y="153.62301635742188" type="curve" smooth="yes"/>
      <point x="422.52593994140625" y="153.62301635742188" type="line" smooth="yes"/>
      <point x="447.96593994140625" y="153.62301635742188"/>
      <point x="486.4782697732578" y="137.67068822213648"/>
      <point x="504.46706724321814" y="119.68189266532526" type="curve" smooth="yes"/>
      <point x="580.0588726981881" y="44.0900952497138" type="line" smooth="yes"/>
      <point x="598.0476701681484" y="26.101299692902593"/>
      <point x="629.9523298318516" y="26.101299692902593"/>
      <point x="647.9411273018119" y="44.0900952497138" type="curve" smooth="yes"/>
      <point x="723.5329327567819" y="119.68189266532526" type="line" smooth="yes"/>
      <point x="741.5217302267422" y="137.67068822213648"/>
      <point x="780.0340600585937" y="153.62301635742188"/>
      <point x="805.4740600585938" y="153.62301635742188" type="curve" smooth="yes"/>
      <point x="912.3770141601562" y="153.62301635742188" type="line" smooth="yes"/>
      <point x="937.8170141601563" y="153.62301635742188"/>
      <point x="960.3770141601562" y="176.18301635742188"/>
      <point x="960.3770141601562" y="201.62301635742188" type="curve" smooth="yes"/>
      <point x="960.3770141601562" y="308.52593994140625" type="line" smooth="yes"/>
      <point x="960.3770141601562" y="333.96593994140625"/>
      <point x="976.3293431437248" y="372.47826892497477"/>
      <point x="994.3181396571106" y="390.4670654383605" type="curve" smooth="yes"/>
      <point x="1069.9099487217957" y="466.05887450304573" type="line" smooth="yes"/>
      <point x="1087.8987452351814" y="484.0476710164315"/>
      <point x="1087.8987452351814" y="515.9523289835686"/>
      <point x="1069.9099487217957" y="533.9411254969543" type="curve" smooth="yes"/>
      <point x="994.3181396571106" y="609.5329345616394" type="line" smooth="yes"/>
      <point x="976.3293431437248" y="627.5217310750252"/>
      <point x="960.3770141601562" y="666.0340600585937"/>
      <point x="960.3770141601562" y="691.4740600585938" type="curve" smooth="yes"/>
      <point x="960.3770141601562" y="798.3770141601562" type="line" smooth="yes"/>
      <point x="960.3770141601562" y="823.8170141601563"/>
      <point x="937.8170141601563" y="846.3770141601562"/>
      <point x="912.3770141601562" y="846.3770141601562" type="curve" smooth="yes"/>
      <point x="805.4739990234375" y="846.3770141601562" type="line" smooth="yes"/>
      <point x="780.0339990234374" y="846.3770141601562"/>
      <point x="741.5216700398689" y="862.3293431437248"/>
      <point x="723.5328735264832" y="880.3181396571106" type="curve" smooth="yes"/>
      <point x="624.4687127685626" y="979.3823004150312" type="line" smooth="yes"/>
      <point x="618.9202950012244" y="984.9307181823693"/>
      <point x="609.0796989746094" y="984.930724206543"/>
      <point x="603.5312744140625" y="979.3823132324219" type="curve" smooth="yes"/>
    </contour>
    <contour>
      <point x="680.2719116210938" y="775.8770141601562" type="line" smooth="yes"/>
      <point x="705.7119116210938" y="775.8770141601562"/>
      <point x="744.2242406046623" y="759.9246851765877"/>
      <point x="762.2130371180481" y="741.9358886632019" type="curve" smooth="yes"/>
      <point x="855.9358886632019" y="648.2130371180481" type="line" smooth="yes"/>
      <point x="873.9246851765877" y="630.2242406046623"/>
      <point x="889.8770141601562" y="591.7119116210938"/>
      <point x="889.8770141601562" y="566.2719116210938" type="curve" smooth="yes"/>
      <point x="889.8770141601562" y="433.72808837890625" type="line" smooth="yes"/>
      <point x="889.8770141601562" y="408.28808837890625"/>
      <point x="873.9246866828106" y="369.775757889115"/>
      <point x="855.9358918679316" y="351.78695967722274" type="curve" smooth="yes"/>
      <point x="762.2130949484747" y="258.0641450591054" type="line" smooth="yes"/>
      <point x="744.2243001335956" y="240.07534684721313"/>
      <point x="705.71197265625" y="224.12301635742188"/>
      <point x="680.27197265625" y="224.12301635742188" type="curve" smooth="yes"/>
      <point x="547.72802734375" y="224.12301635742188" type="line" smooth="yes"/>
      <point x="522.28802734375" y="224.12301635742188"/>
      <point x="483.7756983601815" y="240.0753453409904"/>
      <point x="465.78690184679573" y="258.06414185437615" type="curve" smooth="yes"/>
      <point x="372.06414185437615" y="351.78690184679573" type="line" smooth="yes"/>
      <point x="354.0753453409904" y="369.7756983601815"/>
      <point x="338.1230163574219" y="408.28802734375"/>
      <point x="338.1230163574219" y="433.72802734375" type="curve" smooth="yes"/>
      <point x="338.1230163574219" y="566.27197265625" type="line" smooth="yes"/>
      <point x="338.1230163574219" y="591.71197265625"/>
      <point x="354.0753468472131" y="630.2243001335956"/>
      <point x="372.0641450591054" y="648.2130949484747" type="curve" smooth="yes"/>
      <point x="465.78695967722274" y="741.9358918679316" type="line" smooth="yes"/>
      <point x="483.775757889115" y="759.9246866828106"/>
      <point x="522.2880883789062" y="775.8770141601562"/>
      <point x="547.7280883789062" y="775.8770141601562" type="curve" smooth="yes"/>
    </contour>
    <contour>
      <point x="846.3582656339063" y="757.492765676213" type="line" smooth="yes"/>
      <point x="836.6146043303578" y="767.2364173727029"/>
      <point x="840.1936542114258" y="775.8770141601562"/>
      <point x="853.9732653808594" y="775.8770141601562" type="curve" smooth="yes"/>
      <point x="863.8777734375" y="775.8770141601562" type="line" smooth="yes"/>
      <point x="877.6573710205078" y="775.8770141601562"/>
      <point x="889.8770141601562" y="763.6573710205078"/>
      <point x="889.8770141601562" y="749.8777734375" type="curve" smooth="yes"/>
      <point x="889.8770141601562" y="739.97330078125" type="line" smooth="yes"/>
      <point x="889.8770141601562" y="726.1937031982422"/>
      <point x="881.2364173727029" y="722.6146483265885"/>
      <point x="871.492765676213" y="732.3582904160294" type="curve" smooth="yes"/>
    </contour>
    <contour>
      <point x="356.5072557781135" y="732.3582994792854" type="line" smooth="yes"/>
      <point x="346.76360888514694" y="722.6146525863188"/>
      <point x="338.1230163574219" y="726.1937031982422"/>
      <point x="338.1230163574219" y="739.97330078125" type="curve" smooth="yes"/>
      <point x="338.1230163574219" y="749.8777734375" type="line" smooth="yes"/>
      <point x="338.1230163574219" y="763.6573710205078"/>
      <point x="350.3426594970703" y="775.8770141601562"/>
      <point x="364.1222570800781" y="775.8770141601562" type="curve" smooth="yes"/>
      <point x="374.02672973632815" y="775.8770141601562" type="line" smooth="yes"/>
      <point x="387.80632731933594" y="775.8770141601562"/>
      <point x="391.3853779312593" y="767.2364216324312"/>
      <point x="381.64173103829273" y="757.4927747394646" type="curve" smooth="yes"/>
    </contour>
    <contour>
      <point x="871.4927747394646" y="267.64173103829273" type="line" smooth="yes"/>
      <point x="881.2364216324312" y="277.3853779312593"/>
      <point x="889.8770141601562" y="273.80632731933594"/>
      <point x="889.8770141601562" y="260.02672973632815" type="curve" smooth="yes"/>
      <point x="889.8770141601562" y="250.12225708007813" type="line" smooth="yes"/>
      <point x="889.8770141601562" y="236.34265949707031"/>
      <point x="877.6573710205078" y="224.12301635742188"/>
      <point x="863.8777734375" y="224.12301635742188" type="curve" smooth="yes"/>
      <point x="853.97330078125" y="224.12301635742188" type="line" smooth="yes"/>
      <point x="840.1937031982422" y="224.12301635742188"/>
      <point x="836.6146525863188" y="232.76360888514697"/>
      <point x="846.3582994792854" y="242.50725577811355" type="curve" smooth="yes"/>
    </contour>
    <contour>
      <point x="267.6230163574219" y="482.2272571759426" type="line" smooth="yes"/>
      <point x="267.6230163574219" y="468.44766536488055"/>
      <point x="258.98242594299313" y="464.8686147460937"/>
      <point x="249.23878143310546" y="474.612255859375" type="curve" smooth="yes"/>
      <point x="242.23526336669923" y="481.615771484375" type="line" smooth="yes"/>
      <point x="232.49161885681153" y="491.3594125976563"/>
      <point x="232.49161885681153" y="508.6405874023437"/>
      <point x="242.23526336669923" y="518.384228515625" type="curve" smooth="yes"/>
      <point x="249.23878143310546" y="525.387744140625" type="line" smooth="yes"/>
      <point x="258.98242594299313" y="535.1313852539063"/>
      <point x="267.6230163574219" y="531.5523346351195"/>
      <point x="267.6230163574219" y="517.7727428240573" type="curve" smooth="yes"/>
    </contour>
    <contour>
      <point x="631.7727496215014" y="153.62301635742188" type="line" smooth="yes"/>
      <point x="645.5523378299181" y="153.62301635742188"/>
      <point x="649.1313852539063" y="144.9824304611206"/>
      <point x="639.387744140625" y="135.23879104614258" type="curve" smooth="yes"/>
      <point x="632.384228515625" y="128.2352766418457" type="line" smooth="yes"/>
      <point x="622.6405874023437" y="118.49163722686768"/>
      <point x="605.3594125976563" y="118.49163722686768"/>
      <point x="595.615771484375" y="128.2352766418457" type="curve" smooth="yes"/>
      <point x="588.612255859375" y="135.23879104614258" type="line" smooth="yes"/>
      <point x="578.8686147460937" y="144.9824304611206"/>
      <point x="582.4476621700819" y="153.62301635742188"/>
      <point x="596.2272503784986" y="153.62301635742188" type="curve" smooth="yes"/>
    </contour>
    <contour>
      <point x="364.1222442626953" y="224.12301635742188" type="line" smooth="yes"/>
      <point x="350.3426534729004" y="224.12301635742188"/>
      <point x="338.1230163574219" y="236.3426534729004"/>
      <point x="338.1230163574219" y="250.12224426269532" type="curve" smooth="yes"/>
      <point x="338.1230163574219" y="260.02671203613284" type="line" smooth="yes"/>
      <point x="338.1230163574219" y="273.80630282592773"/>
      <point x="346.76360462541555" y="277.3853516734126"/>
      <point x="356.5072467148552" y="267.6417095839729" type="curve" smooth="yes"/>
      <point x="381.6417095839729" y="242.50724671485523" type="line" smooth="yes"/>
      <point x="391.3853516734126" y="232.76360462541555"/>
      <point x="387.80630282592773" y="224.12301635742188"/>
      <point x="374.02671203613284" y="224.12301635742188" type="curve" smooth="yes"/>
    </contour>
    <contour>
      <point x="960.3770141601562" y="517.7727225735639" type="line" smooth="yes"/>
      <point x="960.3770141601562" y="531.5522927687547"/>
      <point x="969.0175895141601" y="535.1313362670899"/>
      <point x="978.7612170410156" y="525.3877087402344" type="curve" smooth="yes"/>
      <point x="985.7647229003907" y="518.3842028808593" type="line" smooth="yes"/>
      <point x="995.5083504272461" y="508.6405753540039"/>
      <point x="995.5083504272461" y="491.3594246459961"/>
      <point x="985.7647229003907" y="481.6157971191406" type="curve" smooth="yes"/>
      <point x="978.7612170410156" y="474.61229125976564" type="line" smooth="yes"/>
      <point x="969.0175895141601" y="464.86866373291014"/>
      <point x="960.3770141601562" y="468.44770723124526"/>
      <point x="960.3770141601562" y="482.2272774264361" type="curve" smooth="yes"/>
    </contour>
    <contour>
      <point x="595.6157971191407" y="871.7647229003907" type="line" smooth="yes"/>
      <point x="605.3594246459961" y="881.5083504272461"/>
      <point x="622.6405753540039" y="881.5083504272461"/>
      <point x="632.3842028808593" y="871.7647229003907" type="curve" smooth="yes"/>
      <point x="639.3877087402344" y="864.7612170410156" type="line" smooth="yes"/>
      <point x="649.1313362670899" y="855.0175895141601"/>
      <point x="645.5522927687547" y="846.3770141601562"/>
      <point x="631.7727225735639" y="846.3770141601562" type="curve" smooth="yes"/>
      <point x="596.2272774264361" y="846.3770141601562" type="line" smooth="yes"/>
      <point x="582.4477072312453" y="846.3770141601562"/>
      <point x="578.8686637329101" y="855.0175895141601"/>
      <point x="588.6122912597656" y="864.7612170410156" type="curve" smooth="yes"/>
    </contour>
  </outline>
</glyph>
<glyph name="uni06EB" format="2">
  <unicode hex="06EB"/>
  <outline>
    <contour>
      <point x="566.0307977490521" y="1789.1487842971171" type="line" smooth="yes"/>
      <point x="547.9944749420545" y="1807.089928619645"/>
      <point x="516.1111831861455" y="1806.9844107115669"/>
      <point x="498.194006779033" y="1788.9242781097169" type="curve" smooth="yes"/>
      <point x="189.80599322096703" y="1478.0757218902831" type="line" smooth="yes"/>
      <point x="171.8888168138545" y="1460.0155892884331"/>
      <point x="171.93112990333157" y="1428.0265000703298"/>
      <point x="189.89602107091824" y="1410.0138299368718" type="curve" smooth="yes"/>
      <point x="498.1039789290818" y="1100.9861700631282" type="line" smooth="yes"/>
      <point x="516.0688700966684" y="1082.9734999296702"/>
      <point x="547.9523289835686" y="1082.9523289835686"/>
      <point x="565.9411254969543" y="1100.9411254969543" type="curve" smooth="yes"/>
      <point x="877.0588745030457" y="1412.0588745030457" type="line" smooth="yes"/>
      <point x="895.0476710164314" y="1430.0476710164314"/>
      <point x="895.0055250579455" y="1461.910071380355"/>
      <point x="876.9692022509479" y="1479.8512157028829" type="curve" smooth="yes"/>
    </contour>
    <contour>
      <point x="498.2149231901907" y="1628.903539993787" type="line" smooth="yes"/>
      <point x="516.1210138993896" y="1646.97466379708"/>
      <point x="548.0614630711177" y="1647.157556879852"/>
      <point x="566.1733256832292" y="1629.2926742124512" type="curve" smooth="yes"/>
      <point x="717.8266743167708" y="1479.7073257875488" type="line" smooth="yes"/>
      <point x="735.9385369288823" y="1461.842443120148"/>
      <point x="736.0113746184185" y="1430.0840501883347"/>
      <point x="717.9816481242947" y="1412.136276996457" type="curve" smooth="yes"/>
      <point x="566.0183518757053" y="1260.863723003543" type="line" smooth="yes"/>
      <point x="547.9886253815815" y="1242.9159498116653"/>
      <point x="516.0476710164315" y="1242.9523289835686"/>
      <point x="498.05887450304573" y="1260.9411254969543" type="curve" smooth="yes"/>
      <point x="348.94112549695427" y="1410.0588745030457" type="line" smooth="yes"/>
      <point x="330.9523289835685" y="1428.0476710164314"/>
      <point x="330.8789861006104" y="1460.02533620292"/>
      <point x="348.7850768098093" y="1478.096460006213" type="curve" smooth="yes"/>
    </contour>
  </outline>
</glyph>
<glyph name="uni06F6" format="2">
  <advance width="1228"/>
  <unicode hex="06F6"/>
  <outline>
    <contour>
      <point x="805.0" y="1137.0" type="curve" smooth="yes"/>
      <point x="805.0" y="1214.0"/>
      <point x="731.0" y="1251.0"/>
      <point x="639.0" y="1251.0" type="curve" smooth="yes"/>
      <point x="442.0" y="1251.0"/>
      <point x="260.0" y="1133.0"/>
      <point x="260.0" y="874.0" type="curve" smooth="yes"/>
      <point x="260.0" y="743.0"/>
      <point x="334.0" y="647.0"/>
      <point x="419.6352996706539" y="619.7524046502465" type="curve" smooth="yes"/>
      <point x="432.54859084520734" y="615.6436301856158"/>
      <point x="435.90659999999997" y="603.117"/>
      <point x="426.78" y="593.1" type="curve" smooth="yes"/>
      <point x="403.0" y="567.0"/>
      <point x="362.0" y="508.0"/>
      <point x="289.0" y="387.0" type="curve" smooth="yes"/>
      <point x="221.0" y="274.0"/>
      <point x="147.0" y="111.0"/>
      <point x="147.0" y="74.0" type="curve" smooth="yes"/>
      <point x="147.0" y="31.0"/>
      <point x="174.0" y="-2.0"/>
      <point x="211.0" y="-2.0" type="curve" smooth="yes"/>
      <point x="229.0" y="-2.0"/>
      <point x="248.0" y="6.0"/>
      <point x="264.0" y="25.0" type="curve"/>
      <point x="279.0" y="41.0"/>
      <point x="324.0" y="170.0"/>
      <point x="406.0" y="309.0" type="curve" smooth="yes"/>
      <point x="518.0" y="500.0"/>
      <point x="594.0" y="590.0"/>
      <point x="797.0" y="659.0" type="curve" smooth="yes"/>
      <point x="840.0" y="674.0"/>
      <point x="862.0" y="692.0"/>
      <point x="862.0" y="739.0" type="curve" smooth="yes"/>
      <point x="862.0" y="780.0"/>
      <point x="836.0" y="817.0"/>
      <point x="793.0" y="817.0" type="curve" smooth="yes"/>
      <point x="727.0" y="817.0"/>
      <point x="641.0" y="780.0"/>
      <point x="589.8722778813342" y="741.3569542126363" type="curve" smooth="yes"/>
      <point x="571.3899706042271" y="727.387768479939"/>
      <point x="534.4704" y="715.7896"/>
      <point x="511.32" y="716.68" type="curve" smooth="yes"/>
      <point x="451.0" y="719.0"/>
      <point x="385.0" y="780.0"/>
      <point x="385.0" y="874.0" type="curve" smooth="yes"/>
      <point x="385.0" y="1061.0"/>
      <point x="500.0" y="1098.0"/>
      <point x="547.0" y="1098.0" type="curve" smooth="yes"/>
      <point x="682.0" y="1098.0"/>
      <point x="653.0" y="1049.0"/>
      <point x="719.0" y="1049.0" type="curve" smooth="yes"/>
      <point x="764.0" y="1049.0"/>
      <point x="805.0" y="1081.0"/>
    </contour>
  </outline>
</glyph>
<glyph name="uni08AC" format="2">
  <advance width="1228"/>
  <unicode hex="08AC"/>
  <outline>
    <contour>
      <point x="726.72" y="225.0" type="curve" smooth="yes"/>
      <point x="745.4184" y="225.0"/>
      <point x="761.0802183226272" y="241.55607019271088"/>
      <point x="760.0430177077174" y="260.22568126108695" type="curve" smooth="yes"/>
      <point x="754.6290300225194" y="357.6774595946506" type="line" smooth="yes"/>
      <point x="754.2956441105841" y="363.6784060094858"/>
      <point x="748.6702" y="369.0"/>
      <point x="742.66" y="369.0" type="curve" smooth="yes"/>
      <point x="727.0" y="369.0"/>
      <point x="672.0" y="377.0"/>
      <point x="655.18" y="387.44" type="curve" smooth="yes"/>
      <point x="648.7246" y="391.4468"/>
      <point x="647.8257227746673" y="399.7019862932656"/>
      <point x="653.2674952652495" y="405.0042261558842" type="curve" smooth="yes"/>
      <point x="721.0" y="471.0"/>
      <point x="786.0" y="565.0"/>
      <point x="786.0" y="653.0" type="curve" smooth="yes"/>
      <point x="786.0" y="836.0"/>
      <point x="680.0" y="928.0"/>
      <point x="539.0" y="928.0" type="curve" smooth="yes"/>
      <point x="397.0" y="928.0"/>
      <point x="291.0" y="836.0"/>
      <point x="291.0" y="653.0" type="curve" smooth="yes"/>
      <point x="291.0" y="565.0"/>
      <point x="340.0" y="471.0"/>
      <point x="402.2969214949343" y="410.30043546647426" type="curve" smooth="yes"/>
      <point x="410.61955310261914" y="402.1912046692429"/>
      <point x="408.3274" y="391.4468"/>
      <point x="397.42" y="387.44" type="curve" smooth="yes"/>
      <point x="369.0" y="377.0"/>
      <point x="311.0" y="367.0"/>
      <point x="256.0" y="367.0" type="curve" smooth="yes"/>
      <point x="227.0" y="367.0" type="line" smooth="yes"/>
      <point x="86.0" y="367.0"/>
      <point x="66.0" y="211.0"/>
      <point x="66.0" y="139.0" type="curve" smooth="yes"/>
      <point x="66.0" y="76.0"/>
      <point x="78.0" y="55.0"/>
      <point x="135.0" y="55.0" type="curve" smooth="yes"/>
      <point x="193.0" y="55.0"/>
      <point x="207.0" y="76.0"/>
      <point x="207.0" y="139.0" type="curve" smooth="yes"/>
      <point x="207.0" y="170.0"/>
      <point x="213.0" y="195.0"/>
      <point x="221.8492550322669" y="213.96268935485767" type="curve" smooth="yes"/>
      <point x="224.57914986516545" y="219.8124639967831"/>
      <point x="232.7246" y="225.0"/>
      <point x="239.18" y="225.0" type="curve" smooth="yes"/>
      <point x="256.0" y="225.0" type="line" smooth="yes"/>
      <point x="354.0" y="225.0"/>
      <point x="453.0" y="256.0"/>
      <point x="513.5232544222333" y="290.4841798452259" type="curve" smooth="yes"/>
      <point x="527.0259295784497" y="298.1775645272562"/>
      <point x="549.857" y="296.5118"/>
      <point x="562.1" y="286.94" type="curve" smooth="yes"/>
      <point x="594.0" y="262.0"/>
      <point x="678.0" y="225.0"/>
    </contour>
    <contour>
      <point x="416.0" y="653.0" type="curve" smooth="yes"/>
      <point x="416.0" y="739.0"/>
      <point x="461.0" y="803.0"/>
      <point x="539.0" y="803.0" type="curve" smooth="yes"/>
      <point x="616.0" y="803.0"/>
      <point x="662.0" y="739.0"/>
      <point x="662.0" y="653.0" type="curve" smooth="yes"/>
      <point x="662.0" y="588.0"/>
      <point x="612.0" y="516.0"/>
      <point x="569.66" y="484.1" type="curve" smooth="yes"/>
      <point x="553.4102" y="471.857"/>
      <point x="524.38354797027" y="471.5776955478309"/>
      <point x="507.9011658941915" y="483.5057352081509" type="curve" smooth="yes"/>
      <point x="463.0" y="516.0"/>
      <point x="416.0" y="588.0"/>
    </contour>
    <contour>
      <point x="239.0" y="-189.0" type="curve" smooth="yes"/>
      <point x="239.0" y="-230.0"/>
      <point x="338.0" y="-332.0"/>
      <point x="375.0" y="-332.0" type="curve" smooth="yes"/>
      <point x="407.0" y="-332.0"/>
      <point x="510.0" y="-234.0"/>
      <point x="510.0" y="-189.0" type="curve" smooth="yes"/>
      <point x="510.0" y="-150.0"/>
      <point x="409.0" y="-43.0"/>
      <point x="375.0" y="-43.0" type="curve" smooth="yes"/>
      <point x="340.0" y="-43.0"/>
      <point x="239.0" y="-146.0"/>
    </contour>
    <contour>
      <point x="561.0" y="-146.0" type="curve" smooth="yes"/>
      <point x="561.0" y="-187.0"/>
      <point x="660.0" y="-289.0"/>
      <point x="697.0" y="-289.0" type="curve" smooth="yes"/>
      <point x="729.0" y="-289.0"/>
      <point x="832.0" y="-191.0"/>
      <point x="832.0" y="-146.0" type="curve" smooth="yes"/>
      <point x="832.0" y="-107.0"/>
      <point x="731.0" y="0.0"/>
      <point x="697.0" y="0.0" type="curve" smooth="yes"/>
      <point x="662.0" y="0.0"/>
      <point x="561.0" y="-103.0"/>
    </contour>
    <contour>
      <point x="759.40918761528" y="272.9300291173204" type="line" smooth="yes"/>
      <point x="760.7823181791816" y="247.52711368514056"/>
      <point x="784.56" y="225.0"/>
      <point x="810.0" y="225.0" type="curve" smooth="yes"/>
      <point x="895.0" y="225.0"/>
      <point x="1026.0" y="287.0"/>
      <point x="1026.0" y="373.0" type="curve" smooth="yes"/>
      <point x="1026.0" y="428.0"/>
      <point x="985.0" y="461.0"/>
      <point x="940.0" y="461.0" type="curve" smooth="yes"/>
      <point x="897.0" y="461.0"/>
      <point x="862.0" y="373.0"/>
      <point x="799.36" y="373.0" type="curve" smooth="yes"/>
      <point x="775.3192" y="373.0"/>
      <point x="755.1507093206734" y="351.71187756754216"/>
      <point x="756.4483177035604" y="327.7061224841322" type="curve" smooth="yes"/>
    </contour>
  </outline>
</glyph>
<glyph name="uni08C1" format="2">
  <advance width="1228"/>
  <unicode hex="08C1"/>
  <outline>
    <contour>
      <point x="211.0" y="768.0" type="line" smooth="yes"/>
      <point x="70.0" y="768.0"/>
      <point x="49.0" y="608.0"/>
      <point x="49.0" y="537.0" type="curve" smooth="yes"/>
      <point x="49.0" y="473.0"/>
      <point x="61.0" y="453.0"/>
      <point x="119.0" y="453.0" type="curve" smooth="yes"/>
      <point x="176.0" y="453.0"/>
      <point x="190.0" y="473.0"/>
      <point x="190.0" y="537.0" type="curve" smooth="yes"/>
      <point x="190.0" y="565.0"/>
      <point x="197.0" y="592.0"/>
      <point x="205.12" y="608.82" type="curve" smooth="yes"/>
      <point x="208.2364" y="615.2754"/>
      <point x="217.3567704158637" y="621.0"/>
      <point x="224.52504343800788" y="621.0" type="curve" smooth="yes"/>
      <point x="464.0" y="621.0" type="line" smooth="yes"/>
      <point x="489.44" y="621.0"/>
      <point x="494.24634072726207" y="607.0801874140659"/>
      <point x="474.2262568665151" y="591.3833774767361" type="curve" smooth="yes"/>
      <point x="211.0" y="385.0"/>
      <point x="57.0" y="201.0"/>
      <point x="57.0" y="-4.0" type="curve" smooth="yes"/>
      <point x="57.0" y="-317.0"/>
      <point x="248.0" y="-485.0"/>
      <point x="539.0" y="-485.0" type="curve" smooth="yes"/>
      <point x="860.0" y="-485.0"/>
      <point x="1038.0" y="-332.0"/>
      <point x="1038.0" y="-221.0" type="curve" smooth="yes"/>
      <point x="1038.0" y="-166.0"/>
      <point x="997.0" y="-133.0"/>
      <point x="952.0" y="-133.0" type="curve" smooth="yes"/>
      <point x="918.0" y="-133.0"/>
      <point x="897.0" y="-152.0"/>
      <point x="872.0" y="-184.0" type="curve" smooth="yes"/>
      <point x="823.0" y="-252.0"/>
      <point x="760.0" y="-342.0"/>
      <point x="539.0" y="-342.0" type="curve" smooth="yes"/>
      <point x="279.0" y="-342.0"/>
      <point x="199.0" y="-174.0"/>
      <point x="199.0" y="-4.0" type="curve" smooth="yes"/>
      <point x="199.0" y="285.0"/>
      <point x="606.0" y="514.0"/>
      <point x="687.5789249474201" y="588.6063672596064" type="curve" smooth="yes"/>
      <point x="706.3520947252874" y="605.774992612015"/>
      <point x="745.56" y="621.0"/>
      <point x="771.0" y="621.0" type="curve" smooth="yes"/>
      <point x="918.0" y="621.0" type="line" smooth="yes"/>
      <point x="981.0" y="621.0"/>
      <point x="1001.0" y="637.0"/>
      <point x="1001.0" y="694.0" type="curve" smooth="yes"/>
      <point x="1001.0" y="752.0"/>
      <point x="981.0" y="768.0"/>
      <point x="918.0" y="768.0" type="curve" smooth="yes"/>
    </contour>
    <contour>
      <point x="750.0" y="1198.0" type="curve"/>
      <point x="580.2112710235978" y="1096.6095741657502" type="line" smooth="yes"/>
      <point x="558.369297381091" y="1083.5664998579027"/>
      <point x="519.630702618909" y="1083.5664998579027"/>
      <point x="497.7887289764022" y="1096.6095741657502" type="curve" smooth="yes"/>
      <point x="328.0" y="1198.0" type="line" smooth="yes"/>
      <point x="315.0" y="1205.0"/>
      <point x="305.0" y="1209.0"/>
      <point x="295.0" y="1209.0" type="curve" smooth="yes"/>
      <point x="262.0" y="1209.0"/>
      <point x="236.0" y="1178.0"/>
      <point x="236.0" y="1147.0" type="curve" smooth="yes"/>
      <point x="236.0" y="1129.0"/>
      <point x="244.0" y="1110.0"/>
      <point x="264.0" y="1098.0" type="curve" smooth="yes"/>
      <point x="510.0" y="942.0" type="line"/>
      <point x="518.0" y="936.0"/>
      <point x="530.0" y="932.0"/>
      <point x="541.0" y="932.0" type="curve" smooth="yes"/>
      <point x="551.0" y="932.0"/>
      <point x="561.0" y="936.0"/>
      <point x="571.0" y="942.0" type="curve" smooth="yes"/>
      <point x="813.0" y="1096.0" type="line" smooth="yes"/>
      <point x="834.0" y="1110.0"/>
      <point x="842.0" y="1129.0"/>
      <point x="842.0" y="1147.0" type="curve" smooth="yes"/>
      <point x="842.0" y="1180.0"/>
      <point x="817.0" y="1209.0"/>
      <point x="782.0" y="1209.0" type="curve" smooth="yes"/>
      <point x="772.0" y="1209.0"/>
      <point x="760.0" y="1205.0"/>
    </contour>
    <contour>
      <point x="469.0" y="-166.0" type="curve" smooth="yes"/>
      <point x="469.0" y="-207.0"/>
      <point x="568.0" y="-309.0"/>
      <point x="605.0" y="-309.0" type="curve" smooth="yes"/>
      <point x="637.0" y="-309.0"/>
      <point x="740.0" y="-211.0"/>
      <point x="740.0" y="-166.0" type="curve" smooth="yes"/>
      <point x="740.0" y="-127.0"/>
      <point x="639.0" y="-20.0"/>
      <point x="605.0" y="-20.0" type="curve" smooth="yes"/>
      <point x="570.0" y="-20.0"/>
      <point x="469.0" y="-123.0"/>
    </contour>
    <contour>
      <point x="280.0" y="110.0" type="curve" smooth="yes"/>
      <point x="280.0" y="69.0"/>
      <point x="379.0" y="-33.0"/>
      <point x="416.0" y="-33.0" type="curve" smooth="yes"/>
      <point x="448.0" y="-33.0"/>
      <point x="551.0" y="65.0"/>
      <point x="551.0" y="110.0" type="curve" smooth="yes"/>
      <point x="551.0" y="149.0"/>
      <point x="450.0" y="256.0"/>
      <point x="416.0" y="256.0" type="curve" smooth="yes"/>
      <point x="381.0" y="256.0"/>
      <point x="280.0" y="153.0"/>
    </contour>
    <contour>
      <point x="602.0" y="155.0" type="curve" smooth="yes"/>
      <point x="602.0" y="114.0"/>
      <point x="701.0" y="12.0"/>
      <point x="738.0" y="12.0" type="curve" smooth="yes"/>
      <point x="770.0" y="12.0"/>
      <point x="873.0" y="110.0"/>
      <point x="873.0" y="155.0" type="curve" smooth="yes"/>
      <point x="873.0" y="194.0"/>
      <point x="772.0" y="301.0"/>
      <point x="738.0" y="301.0" type="curve" smooth="yes"/>
      <point x="703.0" y="301.0"/>
      <point x="602.0" y="198.0"/>
    </contour>
  </outline>
</glyph>
<glyph name="uni08E1" format="2">
  <unicode hex="08E1"/>
  <outline>
    <contour>
      <point x="444.0" y="1581.9000244140625" type="curve" smooth="yes"/>
      <point x="401.0" y="1581.9000244140625"/>
      <point x="391.0" y="1567.199951171875"/>
      <point x="391.0" y="1523.0999755859375" type="curve" smooth="yes"/>
      <point x="391.0" y="1388.0"/>
      <point x="389.0" y="1341.0999755859375"/>
      <point x="334.0" y="1299.0999755859375" type="curve" smooth="yes"/>
      <point x="299.0" y="1273.199951171875"/>
      <point x="215.0" y="1260.5999755859375"/>
      <point x="59.0" y="1260.5999755859375" type="curve" smooth="yes"/>
      <point x="45.0" y="1260.5999755859375"/>
      <point x="45.0" y="1229.0999755859375"/>
      <point x="45.0" y="1213.0" type="curve" smooth="yes"/>
      <point x="45.0" y="1196.199951171875"/>
      <point x="45.0" y="1161.9000244140625"/>
      <point x="59.0" y="1161.9000244140625" type="curve" smooth="yes"/>
      <point x="229.0" y="1161.9000244140625"/>
      <point x="293.0" y="1161.9000244140625"/>
      <point x="367.0" y="1184.300048828125" type="curve" smooth="yes"/>
      <point x="401.0" y="1196.199951171875"/>
      <point x="436.0" y="1220.699951171875"/>
      <point x="447.02" y="1235.3159936523436" type="curve" smooth="yes"/>
      <point x="451.2494" y="1240.9255299560546"/>
      <point x="458.82421717676704" y="1240.9818989116307"/>
      <point x="463.13663229099365" y="1235.4359276003777" type="curve" smooth="yes"/>
      <point x="498.0" y="1190.5999755859375"/>
      <point x="586.0" y="1163.300048828125"/>
      <point x="676.0" y="1163.300048828125" type="curve" smooth="yes"/>
      <point x="887.0" y="1163.300048828125"/>
      <point x="1030.0" y="1282.300048828125"/>
      <point x="1030.0" y="1468.5" type="curve" smooth="yes"/>
      <point x="1030.0" y="1528.699951171875"/>
      <point x="993.0" y="1601.5"/>
      <point x="903.0" y="1601.5" type="curve" smooth="yes"/>
      <point x="776.0" y="1601.5"/>
      <point x="692.0" y="1549.0"/>
      <point x="621.0" y="1446.800048828125" type="curve" smooth="yes"/>
      <point x="592.0" y="1406.9000244140625"/>
      <point x="569.0" y="1362.0999755859375"/>
      <point x="559.72" y="1338.9579614257811" type="curve" smooth="yes"/>
      <point x="556.1584" y="1330.0762159912108"/>
      <point x="545.3227208369807" y="1325.815255131071"/>
      <point x="536.6653634829376" y="1329.8920872552706" type="curve" smooth="yes"/>
      <point x="498.0" y="1348.0999755859375"/>
      <point x="494.0" y="1362.0999755859375"/>
      <point x="494.0" y="1523.0999755859375" type="curve" smooth="yes"/>
      <point x="494.0" y="1568.5999755859375"/>
      <point x="485.0" y="1581.9000244140625"/>
    </contour>
    <contour>
      <point x="639.92" y="1295.3479614257812" type="curve" smooth="yes"/>
      <point x="634.1324" y="1296.594515991211"/>
      <point x="631.1864559994314" y="1302.4730976038632"/>
      <point x="633.6520340413432" y="1307.8555818782327" type="curve" smooth="yes"/>
      <point x="688.0" y="1426.5"/>
      <point x="756.0" y="1502.800048828125"/>
      <point x="885.0" y="1502.800048828125" type="curve" smooth="yes"/>
      <point x="924.0" y="1502.800048828125"/>
      <point x="930.0" y="1462.9000244140625"/>
      <point x="930.0" y="1439.800048828125" type="curve" smooth="yes"/>
      <point x="930.0" y="1371.199951171875"/>
      <point x="848.0" y="1290.699951171875"/>
      <point x="709.0" y="1290.699951171875" type="curve" smooth="yes"/>
      <point x="672.0" y="1290.699951171875"/>
      <point x="655.0" y="1292.0999755859375"/>
    </contour>
  </outline>
</glyph>
<glyph name="uni08F4" format="2">
  <unicode hex="08F4"/>
  <outline>
    <contour>
      <point x="731.0" y="1462.0" type="curve" smooth="yes"/>
      <point x="731.0" y="1487.2535400390625"/>
      <point x="728.6582641601562" y="1511.3861083984375"/>
      <point x="726.1471374511718" y="1524.5731787109376" type="curve" smooth="yes"/>
      <point x="725.1833843383789" y="1529.6342853515625"/>
      <point x="727.7360243581542" y="1537.1661690113262"/>
      <point x="731.5782864294171" y="1540.5984630934136" type="curve" smooth="yes"/>
      <point x="788.0" y="1591.0" type="line" smooth="yes"/>
      <point x="811.0" y="1612.0"/>
      <point x="825.0" y="1630.0"/>
      <point x="825.0" y="1646.0" type="curve" smooth="yes"/>
      <point x="825.0" y="1679.0"/>
      <point x="780.0" y="1728.0"/>
      <point x="752.0" y="1728.0" type="curve" smooth="yes"/>
      <point x="731.0" y="1728.0"/>
      <point x="717.0" y="1718.0"/>
      <point x="690.0" y="1696.0" type="curve"/>
      <point x="674.1834594726563" y="1681.5380200195314" type="line" smooth="yes"/>
      <point x="668.1131802978516" y="1675.9876118408204"/>
      <point x="658.0727188382052" y="1676.6791939516913"/>
      <point x="652.8207755159619" y="1683.009471319257" type="curve" smooth="yes"/>
      <point x="628.1344604492188" y="1712.764404296875"/>
      <point x="583.9887084960938" y="1737.0"/>
      <point x="539.0" y="1737.0" type="curve" smooth="yes"/>
      <point x="438.0" y="1737.0"/>
      <point x="346.0" y="1618.0"/>
      <point x="346.0" y="1464.0" type="curve" smooth="yes"/>
      <point x="346.0" y="1437.421875"/>
      <point x="348.62652587890625" y="1412.0732421875"/>
      <point x="351.43220153808596" y="1398.276435546875" type="curve" smooth="yes"/>
      <point x="352.5090005065918" y="1392.9813163085937"/>
      <point x="349.92755268829205" y="1385.0521594110628"/>
      <point x="345.93975937149077" y="1381.4058889563837" type="curve" smooth="yes"/>
      <point x="293.0" y="1333.0" type="line" smooth="yes"/>
      <point x="268.0" y="1311.0"/>
      <point x="254.0" y="1296.0"/>
      <point x="254.0" y="1280.0" type="curve" smooth="yes"/>
      <point x="254.0" y="1247.0"/>
      <point x="295.0" y="1198.0"/>
      <point x="324.0" y="1198.0" type="curve" smooth="yes"/>
      <point x="344.0" y="1198.0"/>
      <point x="360.0" y="1210.0"/>
      <point x="385.0" y="1231.0" type="curve" smooth="yes"/>
      <point x="401.66710571289065" y="1245.8886962890624" type="line" smooth="yes"/>
      <point x="408.0638259399414" y="1251.6028752441405"/>
      <point x="418.58429503676155" y="1250.809004197207"/>
      <point x="424.05108251463565" y="1244.1996089551612" type="curve" smooth="yes"/>
      <point x="448.56756591796875" y="1214.5589599609375"/>
      <point x="493.2498779296875" y="1190.0"/>
      <point x="539.0" y="1190.0" type="curve" smooth="yes"/>
      <point x="639.0" y="1190.0"/>
      <point x="731.0" y="1309.0"/>
    </contour>
    <contour>
      <point x="484.3276642122693" y="1507.9419288411514" type="line" smooth="yes"/>
      <point x="472.4893439766416" y="1497.1174758424504"/>
      <point x="463.20329802246096" y="1501.6917622558594"/>
      <point x="464.57011962890624" y="1517.674453125" type="curve" smooth="yes"/>
      <point x="468.1314697265625" y="1559.3184814453125"/>
      <point x="501.93084716796875" y="1610.0"/>
      <point x="539.0" y="1610.0" type="curve" smooth="yes"/>
      <point x="552.2572631835938" y="1610.0"/>
      <point x="564.99169921875" y="1603.517578125"/>
      <point x="571.4666430664063" y="1596.78244140625" type="curve" smooth="yes"/>
      <point x="573.9516818603515" y="1594.1975423828126"/>
      <point x="573.8087271788542" y="1589.759580423224"/>
      <point x="571.1624841696032" y="1587.3399691518061" type="curve" smooth="yes"/>
    </contour>
    <contour>
      <point x="591.4892493903169" y="1415.456872193972" type="line" smooth="yes"/>
      <point x="603.791891793527" y="1426.4468222163232"/>
      <point x="613.3078375" y="1421.6302323242187"/>
      <point x="611.7359423828125" y="1405.20880859375" type="curve" smooth="yes"/>
      <point x="607.6402587890625" y="1362.421630859375"/>
      <point x="572.9216918945312" y="1317.0"/>
      <point x="539.0" y="1317.0" type="curve" smooth="yes"/>
      <point x="526.0178833007812" y="1317.0"/>
      <point x="513.0358276367188" y="1323.31591796875"/>
      <point x="506.34051635742185" y="1330.128935546875" type="curve" smooth="yes"/>
      <point x="503.7709020629883" y="1332.7437247070313"/>
      <point x="503.91672696338776" y="1337.2283410166337"/>
      <point x="506.65078210295263" y="1339.6706723758164" type="curve" smooth="yes"/>
    </contour>
  </outline>
</glyph>
<glyph name="uni1E5A" format="2">
  <advance width="1228"/>
  <unicode hex="1E5A"/>
  <outline>
    <contour>
      <point x="298.0" y="1187.0" type="line" smooth="yes"/>
      <point x="253.0" y="1187.0"/>
      <point x="235.0" y="1169.0"/>
      <point x="235.0" y="1119.0" type="curve" smooth="yes"/>
      <point x="235.0" y="55.0" type="line" smooth="yes"/>
      <point x="235.0" y="9.0"/>
      <point x="253.0" y="-10.0"/>
      <point x="309.0" y="-10.0" type="curve" smooth="yes"/>
      <point x="311.0" y="-10.0" type="line" smooth="yes"/>
      <point x="367.0" y="-10.0"/>
      <point x="385.0" y="9.0"/>
      <point x="385.0" y="55.0" type="curve" smooth="yes"/>
      <point x="385.0" y="425.0" type="line" smooth="yes"/>
      <point x="385.0" y="450.44"/>
      <point x="407.56" y="473.0"/>
      <point x="433.0" y="473.0" type="curve" smooth="yes"/>
      <point x="558.8355712890625" y="473.0" type="line" smooth="yes"/>
      <point x="584.2755712890626" y="473.0"/>
      <point x="619.1063245430721" y="454.0690144319105"/>
      <point x="632.9435569358914" y="432.7213073019372" type="curve" smooth="yes"/>
      <point x="905.0" y="13.0" type="line" smooth="yes"/>
      <point x="926.0" y="-20.0"/>
      <point x="953.0" y="-22.0"/>
      <point x="1002.0" y="0.0" type="curve" smooth="yes"/>
      <point x="1053.0" y="23.0"/>
      <point x="1060.0" y="49.0"/>
      <point x="1035.0" y="88.0" type="curve" smooth="yes"/>
      <point x="797.3149032204075" y="450.2596068866621" type="line" smooth="yes"/>
      <point x="783.3590439423025" y="471.52995224844994"/>
      <point x="792.8450662460846" y="495.9607931276983"/>
      <point x="817.4979293986672" y="502.2401193957012" type="curve" smooth="yes"/>
      <point x="942.6657104492188" y="534.12158203125"/>
      <point x="1032.0" y="657.468994140625"/>
      <point x="1032.0" y="828.0" type="curve" smooth="yes"/>
      <point x="1032.0" y="1044.0"/>
      <point x="890.0" y="1187.0"/>
      <point x="620.0" y="1187.0" type="curve" smooth="yes"/>
    </contour>
    <contour>
      <point x="385.0" y="995.0" type="line" smooth="yes"/>
      <point x="385.0" y="1020.44"/>
      <point x="407.56" y="1043.0"/>
      <point x="433.0" y="1043.0" type="curve" smooth="yes"/>
      <point x="599.0" y="1043.0" type="line" smooth="yes"/>
      <point x="786.0" y="1043.0"/>
      <point x="878.0" y="969.0"/>
      <point x="878.0" y="828.0" type="curve" smooth="yes"/>
      <point x="878.0" y="689.0"/>
      <point x="786.0" y="617.0"/>
      <point x="599.0" y="617.0" type="curve" smooth="yes"/>
      <point x="433.0" y="617.0" type="line" smooth="yes"/>
      <point x="407.56" y="617.0"/>
      <point x="385.0" y="639.56"/>
      <point x="385.0" y="665.0" type="curve" smooth="yes"/>
    </contour>
    <contour>
      <point x="709.0" y="-146.0" type="line" smooth="yes"/>
      <point x="709.0" y="-100.0"/>
      <point x="690.0" y="-81.0"/>
      <point x="614.0" y="-81.0" type="curve" smooth="yes"/>
      <point x="538.0" y="-81.0"/>
      <point x="519.0" y="-100.0"/>
      <point x="519.0" y="-146.0" type="curve" smooth="yes"/>
      <point x="519.0" y="-276.0" type="line" smooth="yes"/>
      <point x="519.0" y="-322.0"/>
      <point x="538.0" y="-341.0"/>
      <point x="614.0" y="-341.0" type="curve" smooth="yes"/>
      <point x="690.0" y="-341.0"/>
      <point x="709.0" y="-322.0"/>
      <point x="709.0" y="-276.0" type="curve" smooth="yes"/>
    </contour>
  </outline>
</glyph>
